<?xml version="1.0" encoding="UTF-8"?>
<svg width="404px" height="39px" viewBox="0 0 404 39" version="1.1" xmlns="http://www.w3.org/2000/svg" xmlns:xlink="http://www.w3.org/1999/xlink">
    <!-- Generator: Sketch 61.2 (89653) - https://sketch.com -->
    <title>ToB商户后台管理系统</title>
    <desc>Created with Sketch.</desc>
    <g id="页面-1" stroke="none" stroke-width="1" fill="none" fill-rule="evenodd">
        <g id="商户后台登录页" transform="translate(-520.000000, -400.000000)" fill="#383B41" fill-rule="nonzero">
            <path d="M537.2,435.48 C536.96,433.84 536.88,432.44 536.88,430.28 L536.88,408.44 L541.88,408.44 C544.76,408.44 546.28,408.52 547.76,408.72 L547.76,403.36 C546.309091,403.550909 544.894628,403.632479 542.264185,403.6395 L526.04,403.64 C523.76,403.64 522.04,403.56 520.6,403.36 L520.6,408.72 C522,408.52 523.72,408.44 526.08,408.44 L531.48,408.44 L531.48,430.28 C531.48,432.44 531.4,433.8 531.16,435.48 L537.2,435.48 Z M561.84,436.24 C568.96,436.24 573.64,431.36 573.64,423.96 C573.64,416.56 569.04,411.84 561.8,411.84 C554.52,411.84 549.88,416.6 549.88,424.04 C549.88,431.52 554.52,436.24 561.84,436.24 Z M561.76,432 C557.6,432 555.04,428.96 555.04,424.04 C555.04,419.04 557.6,416 561.8,416 C566.04,416 568.48,418.96 568.48,424.12 C568.48,429 565.92,432 561.76,432 Z M578,435.6 C579.64,435.52 580.8,435.48 583.12,435.48 L592.96,435.48 C599.6,435.48 603.32,432.32 603.32,426.72 C603.32,424.12 602.48,422.12 600.84,420.6 C599.76,419.6 598.84,419.2 596.8,418.76 C598.36,418.28 599.08,417.92 599.96,417.08 C601.48,415.68 602.2,413.88 602.2,411.44 C602.2,406.44 598.72,403.64 592.52,403.64 L581.568929,403.639178 C580.03259,403.636219 579.354783,403.622609 578.04,403.56 C578.24,405.2 578.36,406.64 578.36,408.48 L578.36,430.2 C578.36,432.76 578.28,433.92 578,435.6 Z M591.96,416.68 L583.64,416.68 L583.64,408.12 L591.92,408.12 C593.52,408.12 594.88,408.56 595.76,409.36 C596.4,409.96 596.8,411.04 596.8,412.32 C596.8,415.04 595,416.68 591.96,416.68 Z M592.24,430.96 L583.64,430.96 L583.64,421.12 L592.16,421.12 C594,421.12 595.52,421.6 596.52,422.48 C597.4,423.28 597.8,424.36 597.8,425.96 C597.8,429.2 595.8,430.96 592.24,430.96 Z M613.28,438.28 C613.08,436.84 613.04,435.56 613.04,433.4 L613.04,422.12 C613.88,422.64 614.8,423.56 615.72,424.88 L617.12,424.04 L617.12,432.64 C617.12,434.04 617.08,434.72 616.96,435.64 L621.16,435.64 L621.16,433.88 L631.08,433.88 L631.08,433.88 C631.68,435.52 631.84,436.12 632.04,437.88 C635.48,438 635.48,438 636.36,438 C640.6,438 641.84,437 641.84,433.56 L641.84,415.12 C641.84,413.4 641.88,412.72 642,411.68 C641.088,411.794 640.3926,411.8358 638.542,411.839695 L633.08,411.84 C633.64,411 634.12,409.96 634.84,408.28 L639.2,408.28 C641.2,408.28 642.48,408.32 643.64,408.48 L643.64,404.2 C642.36,404.36 640.92,404.44 638.92,404.44 L627.4,404.44 C626.88,403 626.6,402.36 625.8,400.72 L621.84,401.84 C622.44,403.08 622.44,403.08 623,404.44 L611.88,404.44 C610,404.44 608.6,404.36 607.16,404.2 L607.16,408.48 C608.32,408.32 609.64,408.28 611.6,408.28 L615.8,408.28 C616.4,409.24 617.04,410.76 617.32,411.84 L612.6,411.84 C611.36,411.84 609.24,411.76 608.64,411.68 C608.76,412.88 608.8,413.88 608.8,415.12 L608.8,433.44 C608.8,435.52 608.72,436.8 608.56,438.28 L613.28,438.28 Z M628.44,411.84 L621.92,411.84 C621.4,410.2 621.12,409.56 620.44,408.28 L630.12,408.28 C629.8,409.36 629.12,410.84 628.44,411.84 Z M630.573416,422.799241 L619.08,422.8 L619.08,422.8 C621.16,421.4 622.24,420.44 624.56,417.84 L620.84,415.96 C619.4,417.8 618.48,418.6 616.48,419.92 C615.28,420.72 614.88,420.92 613.04,421.68 L613.04,415.64 L637.6,415.64 L637.6,421.92 C635,419.44 633.52,418.28 629.96,415.96 L626.84,418.04 C629.56,420.12 631.36,421.56 632.56,422.76 C631.650667,422.789333 630.977956,422.797156 630.573416,422.799241 Z M636.2,434.04 C635.44,434.04 634.84,434 633.6,433.92 C633.48,433.12 633.44,432.12 633.44,430.92 L633.440625,425.211875 C633.4425,424.8875 633.45,424.67 633.48,423.8 C633.84,424.2 633.96,424.36 634.32,424.84 L637.6,422.12 L637.6,432.96 C637.6,433.84 637.36,434.04 636.2,434.04 Z M629.6,430.4 L621.2,430.4 L621.2,426.28 L629.6,426.28 L629.6,430.4 Z M650.16,438.64 C652.08,436.12 653.08,434.24 654.08,431.4 C655.04,428.68 655.48,426.44 655.76,422.92 L675.32,422.92 L675.32,425.44 L680.08,425.44 C679.928421,424.378947 679.884543,423.605097 679.880344,421.724006 L679.88,410.64 C679.88,408.84 679.92,408 680.04,406.88 C678.6,407 677.28,407.04 675.96,407.04 L667.16,407.04 L669.36,405.96 C668.36,403.92 667.16,402.04 666,400.76 L662,402.44 C663.32,404.16 663.92,405.12 664.84,406.76 C664.92,406.96 664.92,406.96 665,407.04 L655.64,407.04 C653.88,407.04 652.96,407 651.44,406.92 C651.6,409.8 651.68,411.96 651.68,414.92 C651.68,418.32 651.48,421.72 651.16,424.28 C650.84,427 650.4,428.72 649.6,430.52 C648.8,432.28 648.04,433.48 646.56,435.28 C648.28,436.48 648.88,437.04 650.16,438.64 Z M675.32,418.92 L656,418.92 C656.08,417.56 656.12,417.2 656.12,416.32 L656.12,411.04 L656.12,411.04 L675.32,411.04 L675.32,418.92 Z M689.8,437.8 C693.24,432.36 694.48,427.16 694.92,416.2 L719.08,416.2 C720.84,416.2 722,416.28 723.28,416.44 L723.28,411.68 C722.08,411.84 720.96,411.92 719.04,411.92 L695.04,411.92 L695.04,408 C706,407.64 712.84,406.84 720.48,404.92 L717,401.08 C713.04,402.76 701.56,404.24 692.56,404.24 C691.84,404.24 691.32,404.2 690.56,404.12 C690.68,405.24 690.72,406.52 690.72,409.24 C690.72,424 689.88,428.76 686.28,434.36 C687.76,435.52 688.76,436.52 689.8,437.8 Z M701.08,438.04 L701.08,435.88 L715.76,435.88 L715.76,438.04 L720.32,438.04 C720.16,437.04 720.08,435.68 720.08,433.32 L720.08,424.4 C720.08,422.44 720.12,421.04 720.24,420.08 C719.28,420.2 718.2,420.24 716.36,420.24 L700.48,420.24 C699,420.24 697.52,420.2 696.64,420.12 C696.752,421.016 696.794311,422.260444 696.799455,424.015941 L696.8,433.24 C696.8,435.6 696.72,437 696.56,438.04 L701.08,438.04 Z M715.8,432 L701.04,432 L701.04,424.2 L715.8,424.2 L715.8,432 Z M759.48,420.2 L763.44,417.48 C759.4,412.12 756.88,409.32 752.16,404.84 L748.28,407.04 C750.96,409.44 751.96,410.48 753.76,412.6 C745.64,413.2 745.64,413.2 736.44,413.52 C738.72,411.32 741.64,408 744.28,404.56 C745.12,403.44 745.12,403.44 745.4,403.08 L740.6,401.28 C740.44,401.8 740.4,401.92 740.04,402.44 C739.92,402.6 739.76,402.84 739.6,403.08 C737.76,405.96 737.44,406.36 733.32,411.12 C731.36,412.96 730.88,413.2 728.72,413.6 L729.52,418.04 C731.8,417.88 732.96,417.84 734.68,417.76 C746.24,417.28 746.24,417.28 756.76,416.32 C757.64,417.48 758.12,418.16 759.48,420.2 Z M736.08,438.08 L736.08,436 L754.52,436 L754.52,438.08 L759.08,438.08 C758.92,436.68 758.84,435.4 758.84,433.52 L758.84,424.48 C758.84,422.84 758.88,421.92 759.04,420.76 C758.171111,420.873333 757.088148,420.915309 755.184568,420.919623 L735.76,420.92 C733.68,420.92 732.48,420.88 731.6,420.76 C731.72,421.88 731.8,423 731.8,424.48 L731.8,433.52 C731.8,435.32 731.72,436.56 731.56,438.08 L736.08,438.08 Z M754.56,432.08 L736.04,432.08 L736.04,424.84 L754.56,424.84 L754.56,432.08 Z M772.56,419.56 L772.56,415.2 L798.36,415.2 L798.36,419.56 L802.68,419.56 C802.57,418.863333 802.527222,418.233889 802.520856,417.209514 L802.52035,413.617376 C802.522449,412.697959 802.537143,412.257143 802.64,411.64 C801.386,411.716 800.6735,411.7559 798.65057,411.7597 L787.16,411.76 C786.96,411.24 786.8,410.8 786.44,410 L786.92,410.48 C788.08,409.36 788.8,408.56 789.56,407.52 L791.8,407.52 C792.68,408.96 793.12,409.88 793.68,411.4 L797.64,410.24 C797.12,409.16 797.08,409.08 796.12,407.52 L799.84,407.52 C801.6,407.52 802.48,407.56 803.56,407.72 L803.56,403.76 C802.468235,403.910588 801.695363,403.954879 799.97415,403.959568 L791.72,403.96 C792.08,403.24 792.44,402.48 792.84,401.64 L788.56,400.96 C788,403.12 786.84,405.08 785.08,406.84 L785.08,403.72 C784.2175,403.87 783.425313,403.914531 781.846504,403.919512 L776.04,403.92 C776.52,403.08 776.72,402.72 777.24,401.72 L772.96,400.92 C772,403.72 769.88,406.32 766.88,408.4 C768.48,409.68 768.72,409.92 769.8,411.36 C771.6,409.92 772.4,409.12 773.68,407.48 L775.84,407.48 C776.48,408.72 776.88,409.8 777.32,411.44 L781.2,410.12 C780.72,409.12 780.48,408.6 779.84,407.48 L782.920816,407.480933 C783.312653,407.483265 783.765714,407.491429 784.28,407.52 C784.12,407.64 783.96,407.76 783.68,407.96 C784.52,408.44 784.8,408.64 785.44,409.12 L781.96,410 C782.32,410.6 782.36,410.68 782.68,411.48 C782.72,411.56 782.76,411.64 782.8,411.76 L771.926311,411.759008 C770.072066,411.752397 769.410909,411.712727 768.32,411.64 C768.44,412.4 768.48,413 768.48,414.2 L768.48,416.92 C768.48,418.04 768.4,418.76 768.32,419.56 L772.56,419.56 Z M777.96,438.28 L777.96,436.56 L794.04,436.56 L794.04,438.28 L798.44,438.28 C798.28,437.12 798.24,436 798.24,434.64 L798.24,430.6 C798.24,429.28 798.28,428.28 798.4,427.28 C797.550769,427.390769 796.735621,427.433373 795.451179,427.439272 L777.96,427.44 L777.96,425.52 L793.44,425.52 C794.8,425.52 795.72,425.56 796.72,425.64 C796.617143,424.817143 796.602449,424.2 796.60035,423.108455 L796.6,419.68 C796.6,418.56 796.6,417.8 796.72,416.96 C795.84,417.07 794.926389,417.112778 793.640255,417.119144 L776.96,417.12 C775.6,417.12 774.56,417.08 773.6,416.96 C773.72,417.72 773.76,418.44 773.76,419.6 L773.76,433.84 C773.76,435.68 773.68,436.88 773.52,438.28 L777.96,438.28 Z M792.44,422.36 L777.96,422.36 L777.96,420.24 L792.44,420.24 L792.44,422.36 Z M794.04,433.24 L777.96,433.24 L777.96,430.64 L794.04,430.64 L794.04,433.24 Z M844,437.2 L844,432.92 C842.98,433.071111 841.995679,433.115185 840.103525,433.119616 L833.32,433.12 L833.32,429 L838.48,429 C840.52,429 841.52,429.04 842.68,429.2 L842.68,425.08 C841.581053,425.231579 840.733407,425.275457 838.776632,425.279656 L833.32,425.28 L833.32,422 L837.92,422 C840.32,422 840.96,422 842.28,422.12 C842.170435,421.06087 842.127561,419.801664 842.120934,417.459439 L842.12,408.24 C842.12,405.8 842.16,403.92 842.28,402.76 C841.356923,402.907692 840.263432,402.953136 837.772544,402.959254 L826.08,402.96 C823.48,402.96 822.2,402.92 820.68,402.76 C820.84,404.08 820.88,405.4 820.88,408.12 L820.88,417.16 C820.8,421.2 820.8,421.2 820.72,422.12 C821.92,422.04 822.84,422 825.52,422 L829.32,422 L829.32,425.28 L824.84,425.28 C822.52,425.28 821.72,425.24 820.72,425.08 L820.72,429.16 C821.76,429.04 822.6,429 824.88,429 L829.32,429 L829.32,433.12 L822.16,433.12 C820.08,433.12 819.2,433.08 818.12,432.92 L818.12,437.2 C819.48,437.04 820.52,437 822.64,437 L839.48,437 C841.64,437 842.72,437.04 844,437.2 Z M807.68,434.32 C808.16,434.12 808.28,434.08 809.28,433.68 C814.72,431.44 816.4,430.72 819.72,429.08 L819.6,424.84 C817.92,425.68 817.8,425.72 815.68,426.64 L815.68,418.76 L816.6,418.76 C817.52,418.76 818.32,418.8 819.12,418.92 L819.12,414.84 C818.24,415 817.64,415.04 816.6,415.04 L815.68,415.04 L815.68,407.24 L816.88,407.24 C818,407.24 818.84,407.28 819.84,407.4 L819.84,403.12 C818.911429,403.305714 818.017347,403.353469 816.613309,403.359344 L810.64,403.36 C809,403.36 807.96,403.28 807,403.12 L807,407.44 C808,407.28 808.72,407.24 810,407.24 L811.52,407.24 L811.52,415.04 L810.28,415.04 C809.04,415.04 808.44,415 807.48,414.84 L807.48,418.96 C808.4,418.8 809.04,418.76 810.2,418.76 L811.52,418.76 L811.52,428.28 C808.8,429.24 807.96,429.52 806.6,429.8 L807.68,434.32 Z M829.32,410.84 L824.88,410.84 L824.88,406.84 L829.32,406.84 L829.32,410.84 Z M837.96,410.84 L833.32,410.84 L833.32,406.84 L837.96,406.84 L837.96,410.84 Z M829.32,418.24 L824.88,418.24 L824.88,414.2 L829.32,414.2 L829.32,418.24 Z M837.96,418.24 L833.32,418.24 L833.32,414.2 L837.96,414.2 L837.96,418.24 Z M862.48,437.8 C864.76,437.8 865.72,437.64 866.52,437.16 C867.36,436.64 867.76,435.72 867.76,434.16 L867.76,424.08 C872.8,423.92 872.8,423.92 875,423.8 C875.76,423.76 877,423.72 878.48,423.64 C879.4,425.12 879.48,425.24 880.32,426.72 L884.04,424.32 C881.36,420.2 880.8,419.44 876.8,414.8 L873.36,416.8 C874.68,418.32 875.12,418.84 875.96,419.96 C867.08,420.4 867.08,420.4 860.4,420.52 C866.08,417.88 869.56,415.84 874.28,412.36 C875.28,411.64 875.48,411.48 876.28,410.96 L872.12,408.48 C871.88,408.685714 871.786939,408.773878 871.66449,408.895627 L871.6,408.96 C871.12,409.44 871.12,409.44 870.92,409.6 C870.16,410.28 869.16,411.08 868.08,411.92 C863.36,412.24 863.36,412.24 859.16,412.36 C861.6,410.36 862.64,409.4 865.08,406.96 C868.16,406.76 874.04,406.04 877.48,405.4 C879.56,405.04 879.56,405.04 880.24,404.92 L877.44,400.92 C875.64,401.56 874.92,401.76 873.04,402.08 C867.92,403.04 859.16,403.68 851.36,403.68 L850.9904,403.67968 C850.4528,403.6784 849.736,403.672 848.84,403.64 C849.68,405.28 849.92,405.96 850.36,407.64 C854.32,407.52 855.36,407.48 859.28,407.28 C858.2,408.48 857.24,409.4 855.56,410.84 C853.96,411.96 853.28,412.2 851.04,412.48 L851.8,416.48 C853.48,416.4 853.48,416.4 855.72,416.32 C858.32,416.2 858.32,416.2 860,416.12 C860.4,416.08 861,416.04 861.8,416 C859.24,417.48 857.08,418.6 855.2,419.4 C853.32,420.2 852.48,420.36 849.32,420.64 L850.04,424.56 C853.4,424.44 853.4,424.44 863.32,424.2 L863.32,432.6 C863.32,433.56 863.08,433.76 861.96,433.76 C860.56,433.76 859.04,433.64 857.44,433.36 C858.08,434.72 858.32,435.6 858.52,437.64 C860.16,437.76 861.52,437.8 862.48,437.8 Z M879.96,437.12 L883.4,433.72 C881.28,431.28 877.88,428.12 874.12,425.12 L870.68,427.72 C872.64,429.24 873.12,429.68 875.64,432.2 C877.64,434.24 877.92,434.52 879.96,437.12 Z M850.04,437.08 C854.92,433.84 857.08,431.84 859.96,427.68 L856.4,425.48 C854.12,428.92 851.6,431.04 847.04,433.44 C848.24,434.56 849.16,435.64 850.04,437.08 Z M920.4,420.88 L923.92,418.56 C921.72,415.08 919.84,412.6 917.16,409.72 L913.88,411.72 C915.12,413 915.56,413.48 916.32,414.48 C912.92,414.92 912.36,415 909.16,415.2 C908.68,415.2 907.88,415.28 906.96,415.32 C907.72,414.64 909.04,413.16 909.68,412.28 C910.36,411.36 911.04,410.44 911.72,409.52 L919.64,409.52 C921,409.52 922.24,409.6 923.48,409.72 L923.48,405.48 C922.28,405.64 921.04,405.72 919.28,405.72 L914.12,405.72 C913.16,403.68 912.44,402.44 911.4,400.96 L907.76,402.6 C908.48,403.72 908.76,404.24 909.48,405.72 L904.64,405.72 C902.88,405.72 901.56,405.64 900.4,405.48 L900.4,409.72 C901.56,409.56 902.6,409.52 904.24,409.52 L906.92,409.52 C905.76,411.52 904.56,413.08 902.6,415.08 C902.16,415.44 901.8,415.6 900.92,415.84 L901.8,419.48 C903.64,419.2 904.44,419.12 906.8,418.96 C911.56,418.68 911.56,418.68 918.76,417.96 C919.32,418.88 919.64,419.4 920.4,420.88 Z M888.04,427.28 C888.72,427.2 888.72,427.2 889.4,427.12 C890.56,426.96 890.76,426.96 892.88,426.68 C897.36,426.08 897.36,426.08 900.44,425.52 L900.76,421.56 C897.56,422.04 897.24,422.08 893.76,422.52 C896.24,420 897.84,417.8 901.4,411.96 L897.32,410.12 C896.6,411.68 896.52,411.84 895.68,413.24 C893.88,413.32 893.68,413.32 893.48,413.36 L892.64,413.36 L892.64,413.36 C893.56,412.08 895.24,409.04 896.48,406.44 C897.68,404 897.68,404 897.96,403.52 L893.44,401.8 C892.6,404.76 890.72,409 889.12,411.6 C888.2,412.8 887.88,413.04 887,413.32 L887.72,417.48 C889.08,417.36 891.88,417.12 893.32,417.04 C892.56,418.12 891.48,419.52 889.96,421.32 C888.76,422.44 888.64,422.48 887.12,422.92 L888.04,427.28 Z M917.84,437.64 C919.72,437.64 920.8,437.52 921.52,437.16 C922.08,436.92 922.68,436.36 923,435.8 C923.56,434.76 923.92,431.84 923.96,428.16 C922.36,427.76 921.32,427.32 920.12,426.52 L920.12,429.08 C920.12,431.2 919.92,432.84 919.6,433.28 C919.36,433.6 919.12,433.68 918.4,433.68 C917.24,433.68 917.04,433.56 917.04,432.76 L917.04,423.8 C917.04,422.2 917.08,421.08 917.2,420.12 L912.76,420.12 C912.88,421.08 912.92,422 912.92,423.96 L912.92,434.4 C912.92,436.96 913.92,437.64 917.84,437.64 Z M901.96,438.32 C905.08,436.08 906.4,434.68 907.6,432.36 C908.84,429.88 909.4,427.16 909.48,423.2 C909.52,421.28 909.52,420.92 909.64,420.24 L905.2,420.24 C905.32,421 905.36,421.64 905.36,422.6 C905.36,427.52 904.36,430.52 902.04,432.68 C901.12,433.52 900.6,433.88 898.8,434.84 C900.32,436 901.08,436.84 901.96,438.32 Z M888.16,436.64 C889.08,436.28 889.68,436.12 891.32,435.72 C892.88,435.4 892.88,435.4 894.04,435.12 C897.36,434.24 897.36,434.24 898.76,433.92 C899.96,433.64 899.96,433.64 900.96,433.36 L900.84,429.12 C899.76,429.36 899.76,429.36 897.56,429.92 C895.8,430.36 895.12,430.48 892.32,431.04 C889.64,431.56 888.6,431.76 886.8,431.92 L888.16,436.64 Z" id="ToB商户后台管理系统"></path>
        </g>
    </g>
</svg>