<?xml version="1.0" encoding="UTF-8"?>
<svg width="176px" height="121px" viewBox="0 0 176 121" version="1.1" xmlns="http://www.w3.org/2000/svg" xmlns:xlink="http://www.w3.org/1999/xlink">
    <!-- Generator: Sketch 61.2 (89653) - https://sketch.com -->
    <title>无权限 (2)</title>
    <desc>Created with Sketch.</desc>
    <g id="页面-1" stroke="none" stroke-width="1" fill="none" fill-rule="evenodd">
        <g id="6.1-财务中心-对账单备份-2" transform="translate(-950.000000, -348.000000)" fill-rule="nonzero">
            <g id="无权限-(2)" transform="translate(950.000000, 348.000000)">
                <path d="M83.9214844,120.719141 C85.3244141,118.201953 86.4517578,115.550586 86.6691406,112.676758 C86.9917969,108.408398 84.5208984,103.583984 80.453125,102.999414 C79.4013672,102.848242 78.2878906,102.976367 77.3160156,102.530664 C74.0537109,101.034375 75.74375,95.9011719 74.9306641,92.2828125 C74.0236328,88.2457031 69.5150391,86.1228516 65.5447266,86.353125 C61.5744141,86.5833984 57.9041016,88.4962891 54.1251953,89.7865234 C50.3462891,91.0767578 45.959375,91.6816406 42.5863281,89.4855469 C40.0603516,87.8412109 38.4330078,84.8171875 35.6568359,83.6941406 C32.0257812,82.2251953 27.9265625,84.6634766 25.5083984,87.8472656 C23.0902344,91.0308594 21.6921875,94.9501953 19.2861328,98.1439453 C16.8800781,101.337695 12.8085937,103.808008 9.1609375,102.38457 C6.71972656,101.431836 4.36914062,98.8478516 1.99238281,99.9636719 C-0.168164063,100.97793 -0.18203125,104.163477 0.403710937,106.557422 C1.68730469,111.803516 4.23828125,116.694922 7.70898437,120.719141 L83.9214844,120.719141 L83.9214844,120.719141 Z" id="路径" fill="#F6F6F8"></path>
                <path d="M160.676172,120.719141 C162.079102,118.201953 163.206445,115.550586 163.423828,112.676758 C163.746484,108.408398 161.275586,103.583984 157.207812,102.999414 C156.156055,102.848242 155.042578,102.976367 154.070703,102.530664 C150.808398,101.034375 152.498438,95.9011719 151.685352,92.2828125 C150.77832,88.2457031 146.269727,86.1228516 142.299414,86.353125 C138.329102,86.5833984 134.658789,88.4962891 130.879883,89.7865234 C127.100977,91.0767578 122.714063,91.6816406 119.341016,89.4855469 C116.815039,87.8412109 115.187695,84.8171875 112.411523,83.6941406 C108.780469,82.2251953 104.68125,84.6634766 102.263086,87.8472656 C99.8449219,91.0308594 98.446875,94.9501953 96.0408203,98.1439453 C93.6347656,101.337695 89.5632813,103.808008 85.915625,102.38457 C83.4744141,101.431836 81.1238281,98.8478516 78.7470703,99.9636719 C76.5867188,100.97793 76.5726563,104.163477 77.1583984,106.557422 C78.4419922,111.803516 80.9929688,116.694922 84.4636719,120.719141 L160.676172,120.719141 L160.676172,120.719141 Z" id="路径" fill="#F6F6F8"></path>
                <path d="M68.8478516,23.8607422 L66.2470703,20.1763672 C65.4789052,19.0881328 64.229892,18.4410156 62.8978516,18.4410156 L40.9216797,18.4410156 C38.6576172,18.4410156 36.8220703,20.2765625 36.8220703,22.540625 L36.8220703,86.3148437 C36.8220703,88.5789062 38.6576172,90.4144531 40.9216797,90.4144531 L128.686914,90.4144531 C130.950977,90.4144531 132.786523,88.5789062 132.786523,86.3148437 L132.786523,29.6958984 C132.786523,27.4318359 130.950977,25.5962891 128.686914,25.5962891 L72.1972656,25.5962891 C70.8651284,25.5963167 69.6160359,24.9490815 68.8478516,23.8607422 Z" id="路径" fill="#DADEE4"></path>
                <path d="M120.580469,57.584375 L49.028125,57.584375 C47.8658203,57.584375 46.9236328,56.6421875 46.9236328,55.4798828 L46.9236328,40.3275391 C46.9236328,39.1652344 47.8658203,38.2230469 49.028125,38.2230469 L120.580664,38.2230469 C121.742969,38.2230469 122.685156,39.1652344 122.685156,40.3275391 L122.685156,55.4798828 C122.685156,56.6421875 121.742773,57.584375 120.580469,57.584375 L120.580469,57.584375 Z" id="路径" fill="#E5E8EC"></path>
                <path d="M122.474609,63.8978516 L47.1339844,63.8978516 C45.9716797,63.8978516 45.0294922,62.9556641 45.0294922,61.7933594 L45.0294922,46.6410156 C45.0294922,45.4787109 45.9716797,44.5365234 47.1339844,44.5365234 L122.474609,44.5365234 C123.636914,44.5365234 124.579102,45.4787109 124.579102,46.6410156 L124.579102,61.7933594 C124.579102,62.9556641 123.636914,63.8978516 122.474609,63.8978516 Z" id="路径" fill="#F5F6F7"></path>
                <path d="M124.789453,70.2113281 L44.8191406,70.2113281 C43.6568359,70.2113281 42.7146484,69.2691406 42.7146484,68.1068359 L42.7146484,52.9544922 C42.7146484,51.7921875 43.6568359,50.85 44.8191406,50.85 L124.789453,50.85 C125.951758,50.85 126.893945,51.7921875 126.893945,52.9544922 L126.893945,68.1068359 C126.893945,69.2691406 125.951758,70.2113281 124.789453,70.2113281 Z" id="路径" fill="#FFFFFF"></path>
                <path d="M126.016992,120.718945 L40.6691406,120.718945 C38.5804688,120.718945 36.8078125,119.187305 36.5046875,117.120703 L28.4794922,62.4041016 C28.1068359,59.8636719 30.0761719,57.584375 32.6439453,57.584375 L134.406836,57.584375 C136.985547,57.584375 138.958008,59.8822266 138.567188,62.43125 L130.177344,117.147852 C129.8625,119.202148 128.095313,120.718945 126.016992,120.718945 Z" id="路径" fill="#C5CBD2"></path>
                <path d="M118.942773,103.093945 L88.2025391,103.093945 C86.5794922,103.093945 85.2636719,101.778125 85.2636719,100.155078 L85.2636719,82.8835938 C85.2636719,81.2605469 86.5794922,79.9447266 88.2025391,79.9447266 L118.942773,79.9447266 C120.56582,79.9447266 121.881641,81.2605469 121.881641,82.8835938 L121.881641,100.155078 C121.881641,101.778125 120.566016,103.093945 118.942773,103.093945 L118.942773,103.093945 Z" id="路径" fill="#FFFFFF" opacity="0.2"></path>
                <path d="M102.112695,89.7304687 L93.1160156,89.7304687 C92.0699219,89.7304687 91.2220703,88.8824219 91.2220703,87.8365234 C91.2220703,86.7904297 92.0701172,85.9423828 93.1160156,85.9423828 L102.112695,85.9423828 C103.158789,85.9423828 104.006641,86.7904297 104.006641,87.8365234 C104.006836,88.8824219 103.158789,89.7304687 102.112695,89.7304687 Z M114.029492,97.3064453 L93.1160156,97.3064453 C92.0699219,97.3064453 91.2220703,96.4583984 91.2220703,95.4125 C91.2220703,94.3664062 92.0701172,93.5185547 93.1160156,93.5185547 L114.029297,93.5185547 C115.075391,93.5185547 115.923242,94.3666016 115.923242,95.4125 C115.923242,96.4585937 115.075391,97.3064453 114.029492,97.3064453 Z M114.029492,89.5199219 L111.925,89.5199219 C110.878906,89.5199219 110.031055,88.671875 110.031055,87.6259766 C110.031055,86.5798828 110.879102,85.7320312 111.925,85.7320312 L114.029492,85.7320312 C115.075586,85.7320312 115.923438,86.5800781 115.923438,87.6259766 C115.923438,88.671875 115.075391,89.5199219 114.029492,89.5199219 Z" id="形状" fill="#FFFFFF"></path>
                <path d="M128.147461,23.7568359 C128.147461,36.7704768 138.697101,47.3201172 151.710742,47.3201172 C164.724383,47.3201172 175.274023,36.7704768 175.274023,23.7568359 C175.274023,10.743195 164.724383,0.193554687 151.710742,0.193554687 C138.697101,0.193554687 128.147461,10.743195 128.147461,23.7568359 Z" id="路径" fill="#ACB5BF"></path>
                <polygon id="路径" fill="#ACB5BF" points="129.041602 48.2351562 139.686133 44.0332031 132.301172 37.2652344"></polygon>
                <path d="M160.747852,21.4978516 L158.75332,21.4978516 L158.75332,16.8394531 C158.75332,12.9382813 155.596094,9.76582031 151.711914,9.76582031 C147.827148,9.76582031 144.666406,12.9382813 144.666406,16.8396484 L144.666406,21.4976563 L142.673828,21.4976563 C141.712891,21.4976563 140.933789,22.2794922 140.933789,23.2445313 L140.933789,35.9984375 C140.933789,36.9650391 141.712891,37.7474609 142.673828,37.7474609 L160.749609,37.7474609 C161.710547,37.7474609 162.4875,36.9650391 162.4875,35.9984375 L162.4875,23.2445313 C162.4875,22.2794922 161.708789,21.4976563 160.747461,21.4976563 L160.747852,21.4978516 Z M152.688477,29.9541016 L152.688477,32.7388672 C152.688054,32.8649048 152.586384,32.9671842 152.460352,32.9683594 L150.964648,32.9683594 C150.838181,32.9677216 150.735726,32.8655279 150.734766,32.7390625 L150.734766,29.9541016 C150.032227,29.5931641 149.545508,28.8699219 149.545508,28.0220703 C149.545508,26.8224609 150.515234,25.846875 151.709766,25.846875 C152.90625,25.846875 153.875981,26.8222656 153.875981,28.021875 C153.877734,28.8699219 153.391211,29.5931641 152.688281,29.9539062 L152.688281,29.9541016 L152.688477,29.9541016 L152.688477,29.9541016 Z M156.050781,21.4978516 L147.37207,21.4978516 L147.37207,16.9550781 C147.37207,14.5521484 149.320898,12.5953125 151.713281,12.5953125 C154.105859,12.5953125 156.050977,14.5521484 156.050977,16.9550781 L156.050781,21.4978516 Z" id="形状" fill="#FFFFFF"></path>
            </g>
        </g>
    </g>
</svg>