<?xml version="1.0" encoding="UTF-8"?>
<svg width="18px" height="18px" viewBox="0 0 18 18" version="1.1" xmlns="http://www.w3.org/2000/svg" xmlns:xlink="http://www.w3.org/1999/xlink">
    <!-- Generator: Sketch 61.2 (89653) - https://sketch.com -->
    <title>Shape </title>
    <desc>Created with Sketch.</desc>
    <g id="页面-1" stroke="none" stroke-width="1" fill="none" fill-rule="evenodd">
        <g id="画板" transform="translate(-520.000000, -451.000000)" fill="#FFBF00">
            <path d="M529,469 C524.028906,469 520,464.971094 520,460 C520,455.028906 524.028906,451 529,451 C533.971094,451 538,455.028906 538,460 C538,464.971094 533.971094,469 529,469 L529,469 Z M529.5625,454.9375 C529.5625,454.626367 529.311133,454.375 529,454.375 L529,454.375 C528.688867,454.375 528.4375,454.626367 528.4375,454.9375 L528.4375,454.9375 C528.4375,455.248633 528.688867,455.5 529,455.5 L529,455.5 C529.311133,455.5 529.5625,455.248633 529.5625,454.9375 L529.5625,454.9375 L529.5625,454.9375 Z M529.5625,457.1875 C529.5625,456.876367 529.311133,456.625 529,456.625 L529,456.625 C528.688867,456.625 528.4375,456.876367 528.4375,457.1875 L528.4375,465.0625 C528.4375,465.373633 528.688867,465.625 529,465.625 L529,465.625 C529.311133,465.625 529.5625,465.373633 529.5625,465.0625 L529.5625,457.1875 L529.5625,457.1875 Z" id="Shape-" transform="translate(529.000000, 460.000000) scale(1, -1) translate(-529.000000, -460.000000) "></path>
        </g>
    </g>
</svg>