<?xml version="1.0" encoding="UTF-8"?>
<svg width="50px" height="50px" viewBox="0 0 50 50" version="1.1" xmlns="http://www.w3.org/2000/svg" xmlns:xlink="http://www.w3.org/1999/xlink">
    <!-- Generator: Sketch 58 (84663) - https://sketch.com -->
    <title>编组 2</title>
    <desc>Created with Sketch.</desc>
    <g id="页面-1" stroke="none" stroke-width="1" fill="none" fill-rule="evenodd">
        <g id="组件" transform="translate(-609.000000, -889.000000)">
            <g id="编组-2" transform="translate(609.000000, 889.000000)">
                <circle id="椭圆形" fill="#FAFAFA" cx="25" cy="25" r="20.5714286"></circle>
                <path d="M25,49.5 C38.5309764,49.5 49.5,38.5309764 49.5,25 C49.5,11.4690236 38.5309764,0.5 25,0.5 C11.4690236,0.5 0.5,11.4690236 0.5,25 C0.5,38.5309764 11.4690236,49.5 25,49.5 Z M25,48.5 C12.0213084,48.5 1.5,37.9786916 1.5,25 C1.5,12.0213084 12.0213084,1.5 25,1.5 C37.9786916,1.5 48.5,12.0213084 48.5,25 C48.5,37.9786916 37.9786916,48.5 25,48.5 Z" id="椭圆形" fill="#F0F0F0" fill-rule="nonzero"></path>
                <g id="商户" transform="translate(12.142857, 11.285714)" fill="#D8D8D8" fill-rule="nonzero">
                    <path d="M18.8182044,17.9315476 C18.6042907,17.8509425 18.3717758,17.7424355 18.1361607,17.6122272 L14.7073413,23.0809772 L13.8950893,19.500248 L11.7931548,19.500248 L11.1142113,23.0840774 L7.55518353,17.6122272 C7.31336806,17.7486359 7.07775298,17.8602431 6.87313988,17.9315476 C4.80220734,18.6600942 -0.288318452,20.7589286 0.0403025794,24.68688 C0.11780754,25.6293403 5.30443948,26.609003 12.844122,26.609003 C20.3838046,26.609003 25.5704365,25.6293403 25.6479415,24.68688 C25.9765625,20.7558284 20.8736359,18.703497 18.8182044,17.9315476 Z" id="路径"></path>
                    <path d="M8.17522321,10.7762897 C8.46354167,12.3015873 8.94717262,13.6470734 9.58581349,14.3074157 L9.58581349,16.1458333 C9.58581349,16.1923363 9.5765129,16.2419395 9.5610119,16.2915427 L11.796255,17.2960069 L11.796255,18.7717014 L13.8981895,18.7717014 L13.8981895,17.2991071 L16.1303323,16.2946429 C16.1148313,16.2450397 16.108631,16.1954365 16.108631,16.1489335 L16.108631,14.3105159 C16.7472718,13.6470734 17.2309028,12.3015873 17.5192212,10.7793899 C18.1919643,10.5561756 18.5732887,10.1965526 19.0538194,8.62785218 C19.5653522,6.95684524 18.2880704,7.01264881 18.2880704,7.01264881 C19.3204365,3.81634425 17.9625496,0.812251984 15.6839038,1.03236607 C14.1121032,-1.53769841 8.85106647,1.61830357 7.20176091,1.39818948 C7.20176091,2.27864583 7.59548611,2.9389881 7.59548611,2.9389881 C7.0219494,3.95585317 7.24206349,5.98338294 7.40637401,7.00954861 C7.31336806,7.00954861 6.15699405,7.01884921 6.6468254,8.62475198 C7.11805556,10.1934524 7.50248016,10.5530754 8.17522321,10.7762897 L8.17522321,10.7762897 Z" id="路径"></path>
                </g>
            </g>
        </g>
    </g>
</svg>