<?xml version="1.0" encoding="UTF-8"?>
<svg width="16px" height="16px" viewBox="0 0 16 16" version="1.1" xmlns="http://www.w3.org/2000/svg" xmlns:xlink="http://www.w3.org/1999/xlink">
    <!-- Generator: Sketch 58 (84663) - https://sketch.com -->
    <title>财务 </title>
    <desc>Created with Sketch.</desc>
    <g id="页面-1" stroke="none" stroke-width="1" fill="none" fill-rule="evenodd">
        <g id="组件" transform="translate(-352.000000, -880.000000)" fill="#8A92A5" fill-rule="nonzero">
            <g id="财务-" transform="translate(352.000000, 880.000000)">
                <path d="M-1.77635684e-15,15.4179448 C-1.77635684e-15,15.6805982 0.214723926,15.8953221 0.477377301,15.8953221 L2.06863497,15.8953221 C2.33128834,15.8953221 2.54601227,15.6805982 2.54601227,15.4179448 L2.54601227,6.83473926 C2.54601227,6.57208589 2.33128834,6.35736196 2.06863497,6.35736196 L0.477377301,6.35736196 C0.214723926,6.35736196 -1.77635684e-15,6.57208589 -1.77635684e-15,6.83473926 L-1.77635684e-15,15.4179448 Z M4.45360429,15.4179448 C4.45360429,15.6805982 4.66832822,15.8953221 4.9309816,15.8953221 L6.52223926,15.8953221 C6.78489264,15.8953221 6.99961656,15.6805982 6.99961656,15.4179448 L6.99961656,9.69516871 C6.99961656,9.43251534 6.78489264,9.21779141 6.52223926,9.21779141 L4.9309816,9.21779141 C4.66832822,9.21779141 4.45360429,9.43251534 4.45360429,9.69516871 L4.45360429,15.4179448 Z M8.90912577,15.4179448 C8.90912577,15.6805982 9.12384969,15.8953221 9.38650307,15.8953221 L10.9777607,15.8953221 C11.2404141,15.8953221 11.455138,15.6805982 11.455138,15.4179448 L11.455138,9.69516871 C11.455138,9.43251534 11.2404141,9.21779141 10.9777607,9.21779141 L9.38650307,9.21779141 C9.12384969,9.21779141 8.90912577,9.43251534 8.90912577,9.69516871 L8.90912577,15.4179448 Z M13.8401074,6.35736196 C13.577454,6.35736196 13.3627301,6.57208589 13.3627301,6.83473926 L13.3627301,15.4179448 C13.3627301,15.6805982 13.577454,15.8953221 13.8401074,15.8953221 L15.431365,15.8953221 C15.6940184,15.8953221 15.9087423,15.6805982 15.9087423,15.4179448 L15.9087423,6.83473926 C15.9087423,6.57208589 15.6940184,6.35736196 15.431365,6.35736196 L13.8401074,6.35736196 Z M7.96203988,-2.66453526e-14 C5.85314417,-2.66453526e-14 4.14302147,1.70820552 4.14302147,3.81518405 C4.14302147,5.92216258 5.85314417,7.6303681 7.96203988,7.6303681 C10.0709356,7.6303681 11.7791427,5.92216258 11.7791427,3.81518405 C11.7810583,1.70820552 10.0709356,-2.66453526e-14 7.96203988,-2.66453526e-14 Z M9.29447853,3.54102761 L9.29447853,4.07592025 L8.43941718,4.07592025 L8.3684816,4.22546012 L8.3684816,4.50728528 L9.29447853,4.50728528 L9.29447853,5.04217791 L8.36656442,5.04217791 L8.36656442,6.08128834 L7.55559816,6.08128834 L7.55559816,5.04217791 L6.62960123,5.04217791 L6.62960123,4.50728528 L7.55751534,4.50728528 L7.55751534,4.22546012 L7.48657975,4.07592025 L6.62960123,4.07592025 L6.62960123,3.54102761 L7.22967791,3.54102761 L6.2845092,1.54716258 L7.25843558,1.54716258 L7.95820552,3.30521472 L7.97162577,3.30521472 L8.70398773,1.54716258 L9.64532209,1.54716258 L8.6982362,3.53911043 L9.29447853,3.53911043 L9.29447853,3.54102761 Z" id="形状"></path>
            </g>
        </g>
    </g>
</svg>