<?xml version="1.0" encoding="UTF-8"?>
<svg width="20px" height="20px" viewBox="0 0 20 20" version="1.1" xmlns="http://www.w3.org/2000/svg" xmlns:xlink="http://www.w3.org/1999/xlink">
    <!-- Generator: Sketch 58 (84663) - https://sketch.com -->
    <title>查看 (1)</title>
    <desc>Created with Sketch.</desc>
    <g id="页面-1" stroke="none" stroke-width="1" fill="none" fill-rule="evenodd">
        <g id="组件" transform="translate(-524.000000, -780.000000)" fill="#8A92A5" fill-rule="nonzero">
            <g id="查看-(1)" transform="translate(524.000000, 780.000000)">
                <g>
                    <path d="M18.6757979,17.5013966 L17.2070574,16.0326561 L16.2648337,15.0904324 L16.0015753,14.827174 C15.9877217,14.8133204 15.9600144,14.7994667 15.9600144,14.7856131 C15.9600144,14.7579058 16.0292826,14.688618 16.0431363,14.6608912 C16.0985509,14.5777693 16.153985,14.4946279 16.1955654,14.3976328 C16.9022186,13.1505898 16.9299259,11.6125616 16.2786873,10.3377917 C15.6135951,9.03533407 14.2834106,8.14852491 12.8285433,8.02384207 C11.373637,7.89913972 9.90489655,8.56423195 9.03196056,9.74198724 C8.17287822,10.9058889 7.95118081,12.4716439 8.47771704,13.8295357 C9.00425326,15.1874274 10.223589,16.2127731 11.6507685,16.4899046 C12.3435681,16.6284606 13.0640749,16.5868801 13.7291671,16.3790559 C14.0755864,16.2682072 14.4081325,16.1157975 14.7129713,15.9356611 C14.7683859,15.9079538 14.9069419,15.7693783 14.962376,15.7832514 C14.9762297,15.7832514 15.0177906,15.838666 15.0316443,15.8525197 L16.8052236,17.6260989 L17.5811645,18.4020399 C17.6504327,18.4713081 17.7058668,18.5405959 17.7890082,18.59603 C18.0938471,18.8038737 18.5095346,18.734586 18.7450856,18.4436203 C18.9529099,18.1664888 18.9252026,17.7508013 18.6757979,17.5013966 L18.6757979,17.5013966 Z M12.4821241,15.1458665 C11.3459297,15.1458665 10.2928573,14.453067 9.84946244,13.3999945 C9.39221397,12.3192148 9.65549184,11.0583181 10.500701,10.2408162 C11.3459297,9.42329478 12.6484069,9.21545102 13.7014793,9.71427994 C14.7961127,10.226943 15.4473318,11.4324251 15.3087758,12.6240536 C15.142493,14.0512331 13.8954499,15.1597201 12.4821241,15.1458665 Z M14.6159763,5.18333669 C15.0454979,5.18333669 15.378044,4.79537598 15.3226294,4.37968846 C15.2810685,4.01943505 14.9762297,3.77001083 14.6159568,3.75615718 L4.88899753,3.75615718 C4.33475401,3.75615718 3.79436413,3.74230353 3.24012061,3.75615718 C3.0184232,3.75615718 2.82443309,3.83927907 2.67202343,4.00556189 C2.39489192,4.32425435 2.46417967,4.80922963 2.79672579,5.05863434 C3.00456955,5.19719034 3.22626696,5.18333669 3.46181802,5.18333669 L14.6159568,5.18333669 L14.6159763,5.18333669 Z M7.49391283,9.45100208 C7.8957467,9.45100208 8.22829282,9.10460231 8.20058552,8.6889343 C8.17287822,8.31480773 7.8680394,8.02384207 7.49391283,8.02384207 L3.22628647,8.02384207 C2.92144765,8.03769572 2.64433565,8.21781267 2.54734059,8.52265149 C2.43649189,8.8551976 2.60275519,9.22930467 2.90759401,9.38173383 C3.14314506,9.49256302 3.44798388,9.45100208 3.69738859,9.45100208 L7.49395185,9.45100208 L7.49391283,9.45100208 Z M3.21243282,12.2915075 C2.6581893,12.2915075 2.31178953,12.9150387 2.61660884,13.3861409 C2.78289165,13.6632529 3.07385731,13.718687 3.36484247,13.718687 L6.05291869,13.718687 C6.53789397,13.718687 6.92585468,13.2614385 6.75959138,12.7764632 C6.63488902,12.4162098 6.30234291,12.3053611 5.95592363,12.3053611 L5.11071445,12.3053611 C4.45947587,12.2915075 3.83594459,12.2915075 3.21243282,12.2915075 Z" id="形状"></path>
                    <path d="M16.7951435,1.03584031e-16 C17.9095419,1.03584031e-16 18.3136497,0.116032014 18.7210571,0.33391588 C19.1284645,0.551799746 19.4482003,0.871535463 19.6660841,1.27894287 C19.883968,1.68635028 20,2.09045808 20,3.2048565 L20,12.5 L18.25,12.5 L18.25,3.2048565 C18.25,2.45302396 18.2164064,2.27906203 18.122911,2.10424087 C18.0681268,2.00180329 17.9981967,1.93187319 17.8957591,1.87708898 C17.7343857,1.79078555 17.5737445,1.75552269 16.9586487,1.75060831 L3.01370382,1.75085266 L2.6783655,1.75930903 C2.35103314,1.77482112 2.22785179,1.81098113 2.10424087,1.87708898 C2.00180329,1.93187319 1.93187319,2.00180329 1.87708898,2.10424087 C1.79078555,2.26561425 1.75552269,2.4262555 1.75060831,3.04135132 L1.75,16.7951435 C1.75,17.546976 1.7835936,17.720938 1.87708898,17.8957591 C1.93187319,17.9981967 2.00180329,18.0681268 2.10424087,18.122911 C2.27906203,18.2164064 2.45302396,18.25 3.2048565,18.25 L12.5,18.25 L12.5,20 L3.2048565,20 C2.09045808,20 1.68635028,19.883968 1.27894287,19.6660841 C0.871535463,19.4482003 0.551799746,19.1284645 0.33391588,18.7210571 C0.132792311,18.3449888 0.0184537527,17.9717319 0.00205328556,17.0400285 L6.90560205e-17,3.2048565 C6.90560205e-17,2.09045808 0.116032014,1.68635028 0.33391588,1.27894287 C0.551799746,0.871535463 0.871535463,0.551799746 1.27894287,0.33391588 C1.65501125,0.132792311 2.02826812,0.0184537527 2.95997154,0.00205328556 L16.7951435,1.03584031e-16 Z" id="形状结合"></path>
                </g>
            </g>
        </g>
    </g>
</svg>