<?xml version="1.0" encoding="UTF-8"?>
<svg width="16px" height="16px" viewBox="0 0 16 16" version="1.1" xmlns="http://www.w3.org/2000/svg" xmlns:xlink="http://www.w3.org/1999/xlink">
    <!-- Generator: Sketch 58 (84663) - https://sketch.com -->
    <title>查找</title>
    <desc>Created with Sketch.</desc>
    <g id="页面-1" stroke="none" stroke-width="1" fill="none" fill-rule="evenodd">
        <g id="组件" transform="translate(-649.000000, -782.000000)" fill="#7D87A5" fill-rule="nonzero">
            <g id="查找" transform="translate(649.000000, 782.000000)">
                <path d="M12.227349,11.3574444 L15.7277102,14.8578057 L14.8392628,15.7462531 L11.3378998,12.2448705 C10.1405877,13.2406663 8.60166624,13.8395188 6.92296607,13.8395188 C3.10641342,13.8395188 0.0125026743,10.744233 0.0125026743,6.92601072 C0.0125026743,3.10778842 3.10641342,0.0125026743 6.92296607,0.0125026743 C10.7394991,0.0125026743 13.8334098,3.10778842 13.8334098,6.92601072 C13.8334098,8.6122734 13.2299806,10.1575395 12.227349,11.3574444 Z M6.92296607,12.5825119 C10.0455947,12.5825119 12.5769727,10.0500144 12.5769727,6.92601072 C12.5769727,3.80200708 10.0455947,1.26950949 6.92296607,1.26950949 C3.80033744,1.26950949 1.26895949,3.80200708 1.26895949,6.92601072 C1.26895949,10.0500144 3.80033744,12.5825119 6.92296607,12.5825119 Z" id="形状"></path>
            </g>
        </g>
    </g>
</svg>