<?xml version="1.0" encoding="UTF-8"?>
<svg width="10px" height="11px" viewBox="0 0 10 11" version="1.1" xmlns="http://www.w3.org/2000/svg" xmlns:xlink="http://www.w3.org/1999/xlink">
    <!-- Generator: Sketch 58 (84663) - https://sketch.com -->
    <title>登出</title>
    <desc>Created with Sketch.</desc>
    <g id="页面-1" stroke="none" stroke-width="1" fill="none" fill-rule="evenodd">
        <g id="组件" transform="translate(-602.000000, -822.000000)" fill="#3C4551" fill-rule="nonzero">
            <g id="登出" transform="translate(602.000000, 822.000000)">
                <path d="M4.97507753,10.7256564 L4.97507774,10.7256564 C3.68242952,10.7285233 2.4420565,10.2155178 1.52907431,9.30040812 L1.52907428,9.30040809 C1.30833308,9.07926445 1.10913286,8.83761944 0.934166007,8.57874186 L0.934165857,8.57874163 C0.391130354,7.77412465 0.101902122,6.82513251 0.103848201,5.85441491 L0.103848201,5.85437093 C0.100801639,4.56149214 0.613820772,3.32084664 1.52909499,2.40769676 L1.529095,2.40769674 C1.72819461,2.22637889 2.03658378,2.24079439 2.21790059,2.43989379 C2.38735172,2.62596336 2.38735381,2.9104252 2.21790556,3.09649688 L2.21790544,3.09649699 C1.48472462,3.82565028 1.07347862,4.81765943 1.07572138,5.85168788 L1.07572136,5.8516995 C1.07373413,6.88548377 1.48495726,7.87719633 2.2179159,8.60623015 L2.21791588,8.60623012 C2.94690253,9.33924327 3.93863815,9.75047879 4.97242556,9.74841419 L4.97242571,9.74841419 C6.00644263,9.75058357 6.99842559,9.33935016 7.72762709,8.60623012 L7.72762726,8.60622996 C8.46039935,7.87712697 8.87138335,6.88540288 8.86914059,5.85169931 L8.86914064,5.85167676 C8.8714815,4.81776254 8.46049373,3.82579216 7.72761683,3.09649634 L7.72761682,3.09649634 C7.54986642,2.89420551 7.56976098,2.58612131 7.77205222,2.40837196 C7.95612951,2.24662587 8.23165593,2.24662378 8.41573637,2.40836708 C8.63639688,2.62835685 8.8362542,2.87115153 9.0113049,3.13003331 L9.01130502,3.13003349 C9.554351,3.93466724 9.84357923,4.88368454 9.84161649,5.85442309 L9.84161649,5.8544038 C9.84432077,7.14714635 9.33108088,8.38754032 8.41573331,9.30041772 C8.19575401,9.52040749 7.95295933,9.72027529 7.6947378,9.89532599 L7.69473767,9.89532608 C7.4341319,10.071692 7.15667292,10.2217705 6.86643545,10.3433544 L6.86643521,10.3433545 C6.26829275,10.5972593 5.62489889,10.7273059 4.97509536,10.7256564 L4.97507753,10.7256564 Z M5.46132714,5.36548262 L5.46132714,0.491594513 L5.46132714,0.491594519 C5.46132714,0.223045808 5.24362624,0.00534490641 4.97507753,0.00534490641 C4.70652882,0.00534490641 4.48882792,0.223045808 4.48882792,0.491594519 L4.48882792,5.3654931 L4.48882792,5.36549317 C4.48882792,5.63404188 4.70652986,5.85174278 4.97507753,5.85174278 C5.24362624,5.85174278 5.46132714,5.63404083 5.46132714,5.36549317 L5.46132714,5.36548262 Z" id="形状"></path>
            </g>
        </g>
    </g>
</svg>