<?xml version="1.0" encoding="UTF-8"?>
<svg width="20px" height="20px" viewBox="0 0 20 20" version="1.1" xmlns="http://www.w3.org/2000/svg" xmlns:xlink="http://www.w3.org/1999/xlink">
    <!-- Generator: Sketch 58 (84663) - https://sketch.com -->
    <title>复制key</title>
    <desc>Created with Sketch.</desc>
    <g id="页面-1" stroke="none" stroke-width="1" fill="none" fill-rule="evenodd">
        <g id="组件" transform="translate(-483.000000, -780.000000)" fill="#8A92A5" fill-rule="nonzero">
            <g id="复制key" transform="translate(483.000000, 780.000000)">
                <path d="M14.6405267,5.20568753 C15.0344252,5.20568753 15.339391,4.75999836 15.2885723,4.28245664 C15.2504583,3.8685976 14.9709018,3.58205912 14.6405088,3.56614405 L5.72027329,3.56614405 C5.21199699,3.56614405 4.71642537,3.55022898 4.20814908,3.56614405 C4.00483856,3.56614405 3.82693738,3.66163446 3.68716811,3.85266012 C3.43302102,4.21877395 3.49656226,4.77591343 3.80152804,5.0624295 C3.99213389,5.2216026 4.1954444,5.20568753 4.41145959,5.20568753 L14.6405088,5.20568753 L14.6405267,5.20568753 Z" id="路径"></path>
                <path d="M8.22956502,9.25360815 C8.6077616,9.25360815 8.92074618,8.85596157 8.89466872,8.37879911 C8.86859127,7.94932378 8.58168414,7.6153123 8.22956502,7.6153123 L4.2129755,7.6153123 C3.92606838,7.63121547 3.66525708,7.83797915 3.57396762,8.18791621 C3.46963942,8.56965961 3.62612253,8.99911254 3.91302965,9.17409227 C4.13472477,9.30131767 4.42163189,9.25360815 4.65636573,9.25360815 L8.22960174,9.25360815 L8.22956502,9.25360815 Z" id="路径"></path>
                <path d="M4.19993677,11.6656917 C3.67829581,11.6656917 3.3522725,12.3852877 3.63916126,12.9289705 C3.79566273,13.2487759 4.06951276,13.3127505 4.34338115,13.3127505 L6.87333524,13.3127505 C7.32978256,13.3127505 7.69492205,12.7850558 7.53843894,12.2253625 C7.42107202,11.8096064 7.10808744,11.6816797 6.78204577,11.6816797 L5.98655478,11.6816797 C5.37362435,11.6656917 4.78677138,11.6656917 4.19993677,11.6656917 Z" id="路径"></path>
                <path d="M15.8071939,0 C16.8560395,0 17.2363762,0.110124304 17.6198185,0.316914725 C18.0032607,0.523705147 18.3041885,0.827161685 18.5092556,1.21382615 C18.7143228,1.60049062 18.8235294,1.98402348 18.8235294,3.04168289 L18.823,11.863 L17.176,11.863 L17.1764706,3.04168289 C17.1764706,2.32812951 17.1448531,2.16302477 17.0568574,1.99710454 C17.0052958,1.89988251 16.9394793,1.83351287 16.8430674,1.78151796 C16.6785299,1.69278285 16.514801,1.66089965 15.8071939,1.66089965 L2.83642713,1.66170891 L2.52081459,1.66973472 C2.21273707,1.68445702 2.09680169,1.71877596 1.980462,1.78151796 C1.88405016,1.83351287 1.81823359,1.89988251 1.76667198,1.99710454 C1.6860093,2.14919808 1.65271992,2.30060639 1.64773185,2.87440269 L1.64705882,15.9400274 C1.64705882,16.6535808 1.67867633,16.8186856 1.76667198,16.9846058 C1.81823359,17.0818278 1.88405016,17.1481975 1.980462,17.2001924 C2.1312881,17.2815329 2.28143467,17.315102 2.85044934,17.320132 L11.764,17.32 L11.764,18.981 L3.01633553,18.9817103 C1.96748995,18.9817103 1.5871532,18.871586 1.20371094,18.6647956 C0.820268671,18.4580052 0.519340937,18.1545486 0.314273769,17.7678842 C0.124980999,17.4109631 0.0173682379,17.0567104 0.00193250406,16.1724442 L0,3.04168289 C0,1.98402348 0.109206601,1.60049062 0.314273769,1.21382615 C0.519340937,0.827161685 0.820268671,0.523705147 1.20371094,0.316914725 C1.55765764,0.126031259 1.90895823,0.0175141895 2.78585557,0.00194874359 L15.8071939,0 Z" id="形状结合"></path>
                <g id="systen-key" transform="translate(14.705882, 14.705882) scale(-1, 1) translate(-14.705882, -14.705882) translate(9.411765, 9.411765)">
                    <path d="M8.25138889,3.70971311 L6.16164933,5.79945268 C6.38210202,6.23000764 6.50646637,6.71791078 6.50646637,7.23486335 L6.50646637,7.23575053 C6.50646637,8.97763618 5.09438396,10.3897186 3.35249831,10.3897186 C1.61061267,10.3897186 0.198530259,8.97763618 0.198530259,7.23575053 L0.198530259,7.23485198 C0.198530259,5.49296634 1.61061267,4.08088393 3.35249831,4.08088393 C3.87013334,4.08088393 4.35866205,4.20558949 4.78964923,4.42659952 L9.01762749,0.198621252 L10.3900484,1.57105357 L9.10915483,2.85194718 L10.2132609,3.95605324 L9.35549496,4.81381918 L8.25138889,3.70971311 Z M3.35249831,5.7794229 C2.54855459,5.7794229 1.896819,6.43115849 1.896819,7.23509084 L1.896819,7.23551168 C1.896819,8.0394554 2.54855459,8.69119099 3.35249831,8.69119099 C4.15644203,8.69119099 4.80817763,8.0394554 4.80817763,7.23551168 L4.80817763,7.23509084 C4.80817763,6.43114712 4.15644203,5.7794229 3.35249831,5.7794229 Z" id="形状"></path>
                </g>
            </g>
        </g>
    </g>
</svg>