<?xml version="1.0" encoding="UTF-8"?>
<svg width="20px" height="20px" viewBox="0 0 20 20" version="1.1" xmlns="http://www.w3.org/2000/svg" xmlns:xlink="http://www.w3.org/1999/xlink">
    <!-- Generator: Sketch 58 (84663) - https://sketch.com -->
    <title>公告</title>
    <desc>Created with Sketch.</desc>
    <g id="页面-1" stroke="none" stroke-width="1" fill="none" fill-rule="evenodd">
        <g id="组件" transform="translate(-546.000000, -872.000000)" fill="#8A92A5" fill-rule="nonzero">
            <g id="公告" transform="translate(546.000000, 872.000000)">
                <g id="对话-(3)">
                    <path d="M13.9397731,0.821104707 C15.1597028,1.34107477 16.1996429,2.06103328 17.0995911,2.96098145 C17.9995392,3.86092961 18.6994989,4.92086855 19.219469,6.12079943 C19.739439,7.32073031 19.9794252,8.62065545 19.9594263,9.98057711 C19.9194286,11.2805022 19.6794425,12.4804331 19.1994701,13.6203675 C18.7194978,14.7403029 18.0995335,15.7202465 17.3195784,16.580197 C17.0795922,16.8601808 16.9196014,17.1401647 16.8796037,17.4601463 C16.8196072,17.760129 16.9595991,18.0001152 17.2595819,18.1801048 C17.8395485,18.4800875 18.5195093,18.7000749 19.3194632,18.8400668 C19.479454,18.8800645 19.1594724,19.0000576 18.3995162,19.2400438 C17.63956,19.4800299 16.4596279,19.6800184 14.8997178,19.8200104 C14.1797592,19.9000058 13.5397961,19.9400035 12.9798284,19.9600023 C12.4198606,19.9800012 11.8998906,19.9800012 11.4399171,19.9600023 C10.9799436,19.9400035 10.5599678,19.9200046 10.1799896,19.9000058 C9.80001152,19.8600081 9.44003225,19.8400092 9.12005068,19.7800127 C7.84012441,19.6400207 6.64019352,19.2800415 5.52025803,18.7200737 C4.40032254,18.1401071 3.42037898,17.4001498 2.60042621,16.5202004 C1.78047344,15.6402511 1.14051029,14.6203099 0.680536797,13.4803755 C0.220563301,12.3404412 0.000575957031,11.1205115 0.0205748242,9.82058633 C0.0405736719,8.44066582 0.300558691,7.16073953 0.840527578,5.96080865 C1.38049648,4.76087777 2.100455,3.72093768 3.00040318,2.84098836 C3.90035137,1.96103904 4.98028914,1.26107936 6.20021887,0.741109316 C7.42014859,0.221139277 8.70007488,-0.0188469141 10.0799954,0.00115193359 C11.4399171,0.0211507813 12.7398422,0.281135801 13.9397731,0.821104707 Z M5.64025111,9.96057826 C5.64025111,9.56060131 5.50025918,9.24061973 5.24027416,8.96063586 C4.96029029,8.68065199 4.64030871,8.56065891 4.24033176,8.56065891 C3.8403548,8.56065891 3.52037322,8.70065084 3.22039051,8.96063586 C2.92040779,9.22062088 2.80041469,9.56060131 2.80041469,9.96057826 C2.80041469,10.3605552 2.94040662,10.6805368 3.22039051,10.9605207 C3.50037438,11.2405046 3.8403548,11.3804965 4.24033176,11.3804965 C4.64030871,11.3804965 4.96029029,11.2405046 5.24027416,10.9605207 C5.50025918,10.6805368 5.64025111,10.3405564 5.64025111,9.96057826 L5.64025111,9.96057826 Z M10.8999482,8.92063816 C10.6199643,8.6406543 10.2799839,8.50066236 9.88000691,8.50066236 C9.48002996,8.50066236 9.12005068,8.6406543 8.84006682,8.92063816 C8.56008295,9.20062203 8.420091,9.54060246 8.420091,9.94057941 C8.420091,10.3405564 8.56008293,10.6805368 8.84006682,10.9605207 C9.12005068,11.2405046 9.46003111,11.4004953 9.88000691,11.4004953 C10.2799839,11.4004953 10.6199643,11.2605034 10.8999482,10.9605207 C11.179932,10.6805368 11.3399228,10.3405564 11.3399228,9.94057941 C11.3399228,9.54060246 11.1999309,9.20062203 10.8999482,8.92063816 Z M16.5396233,8.92063816 C16.2596395,8.6406543 15.919659,8.50066236 15.5196821,8.50066236 C15.1197051,8.50066236 14.7597258,8.6406543 14.479742,8.92063816 C14.1997581,9.20062203 14.0597662,9.54060246 14.0597662,9.92058057 C14.0597662,10.3005587 14.1997581,10.6605379 14.479742,10.9405218 C14.7597258,11.2205057 15.0997063,11.3804965 15.5196821,11.3804965 C15.919659,11.3804965 16.2396406,11.2405046 16.5396233,10.9405218 C16.8196072,10.6605379 16.9595991,10.3205575 16.9595991,9.92058057 C16.9595991,9.54060246 16.8196072,9.20062203 16.5396233,8.92063816 Z" id="形状"></path>
                </g>
            </g>
        </g>
    </g>
</svg>