<?xml version="1.0" encoding="UTF-8"?>
<svg width="10px" height="11px" viewBox="0 0 10 11" version="1.1" xmlns="http://www.w3.org/2000/svg" xmlns:xlink="http://www.w3.org/1999/xlink">
    <!-- Generator: Sketch 58 (84663) - https://sketch.com -->
    <title>密码</title>
    <desc>Created with Sketch.</desc>
    <g id="页面-1" stroke="none" stroke-width="1" fill="none" fill-rule="evenodd">
        <g id="组件" transform="translate(-570.000000, -823.000000)" fill="#3C4551" fill-rule="nonzero">
            <g id="密码" transform="translate(570.000000, 823.000000)">
                <path d="M8.58188557,11.0000129 L0.8750016,11.0000129 L0.87500157,11.0000129 C0.49530562,11.0000129 0.18750077,10.6922079 0.18750077,10.312512 C0.18750077,10.312512 0.18750077,10.312512 0.18750077,10.312512 L0.18750077,4.35875507 L0.18750077,4.35875518 C0.18750077,3.97905923 0.49530562,3.67125438 0.87500157,3.67125438 L9.12501117,3.67125438 L9.12501114,3.67125438 C9.50470709,3.67125438 9.81251194,3.97905923 9.81251194,4.35875518 L9.81251194,10.3125121 L9.81251194,10.3125121 C9.81251194,10.6922081 9.50470709,11.0000129 9.12501114,11.0000129 L8.58188557,11.0000129 Z M1.15000192,4.58563034 L1.15000192,10.0856303 L8.85001088,10.0856303 L8.85001088,4.58563034 L1.15000192,4.58563034 Z M6.83563355,4.1250048 L6.83563355,2.7500032 C6.83563355,1.73621452 6.0137951,0.914376064 5.00000642,0.914376064 C3.98621774,0.914376064 3.16437928,1.73621452 3.16437928,2.7500032 L3.16437928,4.1250048 C3.19540072,4.37750238 3.02679063,3.86100748 2.77429199,3.89202881 C2.52179443,3.92305024 2.28102455,4.48984109 2.25000322,4.23734245 C2.24541989,4.20003651 2.24541989,4.1623098 2.25000323,4.12500375 L2.25000323,2.75000215 C2.250003,1.23121662 3.48122048,-6.35732546e-07 5.00000643,-6.35732546e-07 C6.51879237,-6.35732546e-07 7.75000963,1.23121662 7.75000963,2.75000256 L7.75000963,4.12500416 C7.75000963,4.37940094 7.54378087,4.58563034 7.28938409,4.58563034 C7.03767607,4.5818731 6.83560562,4.37674074 6.83563355,4.1250048 Z M5.0000064,8.71063514 L4.53938086,8.71063514 L4.53938086,5.96063194 L5.46063194,5.96063194 L5.46063194,8.71063514 L5.0000064,8.71063514 Z" id="形状"></path>
            </g>
        </g>
    </g>
</svg>