<?xml version="1.0" encoding="UTF-8"?>
<svg width="14px" height="12px" viewBox="0 0 14 12" version="1.1" xmlns="http://www.w3.org/2000/svg" xmlns:xlink="http://www.w3.org/1999/xlink">
    <!-- Generator: Sketch 58 (84663) - https://sketch.com -->
    <title>日历</title>
    <desc>Created with Sketch.</desc>
    <g id="页面-1" stroke="none" stroke-width="1" fill="none" fill-rule="evenodd">
        <g id="组件" transform="translate(-703.000000, -782.000000)" fill="#B4BBCB">
            <path d="M712.926989,788.539897 L707.071452,788.539897 C706.801892,788.539897 706.583751,788.321171 706.583751,788.050889 L706.583751,788.050889 C706.583751,787.780607 706.801892,787.561881 707.071452,787.561881 L712.928548,787.561881 C713.198108,787.561881 713.416249,787.780607 713.416249,788.050889 L713.416249,788.050889 C713.414691,788.321171 713.19655,788.539897 712.926989,788.539897 L712.926989,788.539897 Z M712.926989,785.891754 L707.071452,785.891754 C706.801892,785.891754 706.583751,785.673029 706.583751,785.402746 L706.583751,785.402746 C706.583751,785.132464 706.801892,784.913738 707.071452,784.913738 L712.928548,784.913738 C713.198108,784.913738 713.416249,785.132464 713.416249,785.402746 L713.416249,785.402746 C713.414691,785.673029 713.19655,785.891754 712.926989,785.891754 L712.926989,785.891754 Z M715.876572,793.123762 L714.075348,793.123762 L714.075348,793.509656 C714.075348,793.779939 713.857206,793.998664 713.587646,793.998664 L713.587646,793.998664 C713.318086,793.998664 713.099944,793.779939 713.099944,793.509656 L713.099944,793.123762 L706.898497,793.123762 L706.898497,793.509656 C706.898497,793.779939 706.680356,793.998664 706.410796,793.998664 L706.410796,793.998664 C706.141235,793.998664 705.923094,793.779939 705.923094,793.509656 L705.923094,793.123762 L704.12187,793.123762 C703.501725,793.123762 703,792.620693 703,791.998887 L703,783.124875 C703,782.503069 703.501725,782 704.12187,782 L715.87813,782 C716.498275,782 717,782.503069 717,783.124875 L717,791.998887 C716.998442,792.61913 716.496717,793.123762 715.876572,793.123762 L715.876572,793.123762 Z M704.12187,791.998887 L705.924652,791.998887 L705.924652,791.74579 C705.924652,791.475508 706.142794,791.256782 706.412354,791.256782 L706.412354,791.256782 C706.681914,791.256782 706.900056,791.475508 706.900056,791.74579 L706.900056,791.998887 L713.101503,791.998887 L713.101503,791.74579 C713.101503,791.475508 713.319644,791.256782 713.589204,791.256782 L713.589204,791.256782 C713.858765,791.256782 714.076906,791.475508 714.076906,791.74579 L714.076906,791.998887 L715.879688,791.998887 L715.879688,791.998887 L715.879688,790.466245 L704.12187,790.466245 L704.12187,791.998887 L704.12187,791.998887 L704.12187,791.998887 Z M715.876572,783.124875 L704.12187,783.124875 L704.12187,783.124875 L704.12187,789.492916 L715.87813,789.492916 L715.87813,783.124875 L715.876572,783.124875 L715.876572,783.124875 Z" id="日历" transform="translate(710.000000, 787.999332) scale(1, -1) translate(-710.000000, -787.999332) "></path>
        </g>
    </g>
</svg>