<?xml version="1.0" encoding="UTF-8"?>
<svg width="11px" height="11px" viewBox="0 0 11 11" version="1.1" xmlns="http://www.w3.org/2000/svg" xmlns:xlink="http://www.w3.org/1999/xlink">
    <!-- Generator: Sketch 58 (84663) - https://sketch.com -->
    <title>日历组件-年份</title>
    <desc>Created with Sketch.</desc>
    <g id="页面-1" stroke="none" stroke-width="1" fill="none" fill-rule="evenodd">
        <g id="组件" transform="translate(-633.000000, -824.000000)">
            <g id="日历组件-年份" transform="translate(633.000000, 823.000000)">
                <rect id="Rectangle" x="0" y="0" width="12" height="12"></rect>
                <path d="M8.51462885,3.12611787 C8.70701676,3.29934473 8.72254987,3.59573406 8.54932301,3.78812198 L3.99107763,8.85056635 C3.8943593,8.95798293 3.75924678,9.01026749 3.62527855,9.00534789 C3.49137803,9.01052727 3.35583366,8.95825014 3.25887474,8.85056635 L3.25887474,8.85056635 L-1.29937065,3.78812198 C-1.4725975,3.59573406 -1.4570644,3.29934473 -1.26467648,3.12611787 C-1.07228857,2.95289101 -0.775899231,2.96842412 -0.602672373,3.16081203 L-0.602672373,3.16081203 L3.62522449,7.85571301 L7.85262474,3.16081203 C8.0258516,2.96842412 8.32224093,2.95289101 8.51462885,3.12611787 Z" id="down" fill-opacity="0.45" fill="#000000" transform="translate(3.624976, 6.005689) rotate(90.000000) translate(-3.624976, -6.005689) "></path>
                <path d="M12.5146288,3.12611787 C12.7070168,3.29934473 12.7225499,3.59573406 12.549323,3.78812198 L7.99107763,8.85056635 C7.8943593,8.95798293 7.75924678,9.01026749 7.62527855,9.00534789 C7.49137803,9.01052727 7.35583366,8.95825014 7.25887474,8.85056635 L7.25887474,8.85056635 L2.70062935,3.78812198 C2.5274025,3.59573406 2.5429356,3.29934473 2.73532352,3.12611787 C2.92771143,2.95289101 3.22410077,2.96842412 3.39732763,3.16081203 L3.39732763,3.16081203 L7.62522449,7.85571301 L11.8526247,3.16081203 C12.0258516,2.96842412 12.3222409,2.95289101 12.5146288,3.12611787 Z" id="down" fill-opacity="0.45" fill="#000000" transform="translate(7.624976, 6.005689) rotate(90.000000) translate(-7.624976, -6.005689) "></path>
            </g>
        </g>
    </g>
</svg>