<?xml version="1.0" encoding="UTF-8"?>
<svg width="16px" height="16px" viewBox="0 0 16 16" version="1.1" xmlns="http://www.w3.org/2000/svg" xmlns:xlink="http://www.w3.org/1999/xlink">
    <!-- Generator: Sketch 58 (84663) - https://sketch.com -->
    <title>商户</title>
    <desc>Created with Sketch.</desc>
    <g id="页面-1" stroke="none" stroke-width="1" fill="none" fill-rule="evenodd">
        <g id="组件" transform="translate(-352.000000, -830.000000)" fill="#8A92A5" fill-rule="nonzero">
            <g id="商户" transform="translate(352.000000, 830.000000)">
                <path d="M8,0 C12.418,0 16,3.582 16,8 C16,12.418 12.418,16 8,16 C3.582,16 0,12.418 0,8 C0,3.582 3.582,0 8,0 Z M8,9.33333278 C6.38136394,9.33278746 4.85043109,10.0688129 3.84,11.3333328 C4.85043109,12.5978538 6.38136394,13.3338792 8,13.3333328 C9.61849121,13.3340668 11.1492975,12.5979843 12.1593333,11.3333328 C11.1492975,10.0686824 9.61849121,9.33259985 8,9.33333278 Z M8,3.33333333 C7.04729175,3.33333333 6.16695302,3.84159711 5.69059889,4.66666665 C5.21424476,5.4917362 5.21424476,6.5082638 5.69059889,7.33333333 C6.16695302,8.15840289 7.04729175,8.66666667 8,8.66666667 C9.47275932,8.66666667 10.6666666,7.47275932 10.6666666,6 C10.6666666,4.52724068 9.47275932,3.33333333 8,3.33333333 Z" id="形状结合"></path>
            </g>
        </g>
    </g>
</svg>