<?xml version="1.0" encoding="UTF-8"?>
<svg width="38px" height="38px" viewBox="0 0 38 38" version="1.1" xmlns="http://www.w3.org/2000/svg" xmlns:xlink="http://www.w3.org/1999/xlink">
    <!-- Generator: Sketch 58 (84663) - https://sketch.com -->
    <title>上传文件</title>
    <desc>Created with Sketch.</desc>
    <g id="页面-1" stroke="none" stroke-width="1" fill="none" fill-rule="evenodd">
        <g id="组件" transform="translate(-614.000000, -966.000000)" fill="#8A92A5" fill-rule="nonzero">
            <g id="上传文件" transform="translate(614.000000, 966.000000)">
                <path d="M29.2458698,37 L29.2458698,37.5 L25.2458698,37.5 L25.2458698,37 L29.2458698,37 Z M23.2458698,37 L23.2458698,37.5 L19.2458698,37.5 L19.2458698,37 L23.2458698,37 Z M17.2458698,37 L17.2458698,37.5 L13.2458698,37.5 L13.2458698,37 L17.2458698,37 Z M11.2458698,37 L11.2458698,37.5 L7.24586984,37.5 L7.24586984,37 L11.2458698,37 Z M35.2319159,36.3199134 L35.5112551,36.7346056 C34.8738149,37.1639893 34.1373338,37.423752 33.3542104,37.4856969 L33.0915136,37.4989799 L31.2461462,37.4999999 L31.2458698,37 L33,37 C33.826472,37 34.594401,36.7493475 35.2319159,36.3199134 Z M1.33332499,35.6092783 L1.74048574,35.3190712 C2.42301955,36.2766668 3.51700156,36.9207183 4.76438161,36.9931756 L5,37 L5.24586984,37 L5.24586984,37.5 L5,37.5 C3.60854788,37.5 2.3231215,36.8634038 1.47785292,35.8011167 L1.33332499,35.6092783 L1.74048574,35.3190712 Z M37.5,30.8770651 L37.5,33 C37.5,33.6329246 37.3689223,34.2478672 37.1193603,34.8138353 L37.0051878,35.0533043 L36.5604159,34.8248792 C36.8062907,34.3461308 36.9584412,33.8113322 36.992637,33.2447139 L37,33 L37,30.8770651 L37.5,30.8770651 Z M1,29.3688048 L1,33 L1.0048907,33.1995465 L1.0048907,33.1995465 L1.01941022,33.3965618 L0.521814266,33.4455338 L0.506264053,33.238856 L0.506264053,33.238856 L0.500097787,33.0282801 L0.5,29.3688048 L1,29.3688048 Z M37.5,24.8770651 L37.5,28.8770651 L37,28.8770651 L37,24.8770651 L37.5,24.8770651 Z M1,23.3688048 L1,27.3688048 L0.5,27.3688048 L0.5,23.3688048 L1,23.3688048 Z M19,14 C19.5522847,14 20,14.4477153 20,15 L20,18 L23,18 C23.5522847,18 24,18.4477153 24,19 C24,19.5522847 23.5522847,20 23,20 L20,20 L20,23 C20,23.5522847 19.5522847,24 19,24 C18.4477153,24 18,23.5522847 18,23 L18,20 L15,20 C14.4477153,20 14,19.5522847 14,19 C14,18.4477153 14.4477153,18 15,18 L18,18 L18,15 C18,14.4477153 18.4477153,14 19,14 Z M37.5,18.8770651 L37.5,22.8770651 L37,22.8770651 L37,18.8770651 L37.5,18.8770651 Z M1,17.3688048 L1,21.3688048 L0.5,21.3688048 L0.5,17.3688048 L1,17.3688048 Z M37.5,12.8770651 L37.5,16.8770651 L37,16.8770651 L37,12.8770651 L37.5,12.8770651 Z M1,11.3688048 L1,15.3688048 L0.5,15.3688048 L0.5,11.3688048 L1,11.3688048 Z M37.5,6.87706508 L37.5,10.8770651 L37,10.8770651 L37,6.87706508 L37.5,6.87706508 Z M1,5.36880475 L1,9.36880475 L0.5,9.36880475 L0.5,5.36880475 L1,5.36880475 Z M34.9366142,1.4992294 L35.1790424,1.0619325 C36.4575657,1.77071883 37.3195505,3.0582841 37.4747652,4.52123731 L37.493357,4.75362863 L36.9940859,4.78061553 C36.9219066,3.44526401 36.1947772,2.28405779 35.1282785,1.61257794 L34.9366142,1.4992294 L35.1790424,1.0619325 Z M4.32984316,0.549630285 L4.40374867,1.0441381 L4.17573431,1.0850189 C2.97175008,1.33723267 1.96679274,2.13082358 1.42718437,3.19946953 L1.33152613,3.40299893 L0.873185141,3.20319018 C1.48911024,1.79032052 2.79429897,0.779121462 4.32984316,0.549630285 Z M34,0.5 L34,1.12601749 C33.7602851,1.06431912 33.5118735,1.02428347 33.2569767,1.00812179 L33,1 L29,1 L29,0.5 L34,0.5 Z M9,0.5 L9,1 L5,1 L5,0.5 L9,0.5 Z M15,0.5 L15,1 L11,1 L11,0.5 L15,0.5 Z M21,0.5 L21,1 L17,1 L17,0.5 L21,0.5 Z M27,0.5 L27,1 L23,1 L23,0.5 L27,0.5 Z" id="形状结合"></path>
            </g>
        </g>
    </g>
</svg>