<?xml version="1.0" encoding="UTF-8"?>
<svg width="16px" height="15px" viewBox="0 0 16 15" version="1.1" xmlns="http://www.w3.org/2000/svg" xmlns:xlink="http://www.w3.org/1999/xlink">
    <!-- Generator: Sketch 58 (84663) - https://sketch.com -->
    <title>设置 (2)</title>
    <desc>Created with Sketch.</desc>
    <g id="页面-1" stroke="none" stroke-width="1" fill="none" fill-rule="evenodd">
        <g id="组件" transform="translate(-26.000000, -298.000000)" fill="#8A92A5" fill-rule="nonzero">
            <g id="设置-(2)" transform="translate(26.000000, 298.000000)">
                <path d="M15.9226786,6.37737899 C15.8600893,6.02914709 15.5252143,5.67467693 15.1778214,5.59622298 L14.9180714,5.53662477 C14.3077857,5.351539 13.766375,4.94688087 13.4221071,4.35084586 C13.0778393,3.75167411 12.9964643,3.07092928 13.1466964,2.44668116 L13.2280714,2.2020148 C13.3313571,1.86321076 13.1967857,1.39578242 12.9244821,1.16364544 C12.9244821,1.16364544 12.680375,0.956620066 11.991875,0.55821781 C11.3033393,0.162952303 11.0060357,0.0531484962 11.0060357,0.0531484962 C10.6711607,-0.0692023026 10.2017143,0.0468926222 9.95758929,0.307242716 L9.77607143,0.501738722 C9.31289286,0.940918703 8.69008929,1.20757754 8.00157143,1.20757754 C7.31305357,1.20757754 6.684,0.937781955 6.22082143,0.495482848 L6.04557143,0.307242716 C5.80458929,0.046875 5.33201786,-0.0692023026 4.997125,0.0531484962 C4.997125,0.0531484962 4.69667857,0.16293468 4.00816071,0.55821781 C3.319625,0.959756814 3.07864286,1.16681743 3.07864286,1.16681743 C2.806375,1.39580005 2.67178571,1.86009164 2.77507143,2.20203242 L2.85017857,2.44983553 C2.99726786,3.07411889 2.91903571,3.75170935 2.57476786,4.35088111 C2.23051786,4.95005287 1.68283929,5.35784774 1.06941071,5.53979676 L0.819035714,5.59625822 C0.474767857,5.67471217 0.136767857,6.02604558 0.0741785714,6.37741424 C0.0741785714,6.37741424 0.0178392857,6.69110667 0.0178392857,7.48791118 C0.0178392857,8.2847157 0.0741785714,8.59840813 0.0741785714,8.59840813 C0.136767857,8.94974154 0.471642857,9.30107495 0.819035714,9.3795289 L1.06316071,9.43599037 C1.67655357,9.61793938 2.227375,10.0257695 2.57164286,10.6280604 C2.91591071,11.2272321 2.99726786,11.9079417 2.84703571,12.5322251 L2.77507143,12.7737723 C2.67178571,13.1125764 2.80635714,13.5799695 3.07864286,13.8121241 C3.07864286,13.8121241 3.32276786,14.0191494 4.01126786,14.4175517 C4.69980357,14.8159539 4.99710714,14.922621 4.99710714,14.922621 C5.33198214,15.0449718 5.80142857,14.9289121 6.04555357,14.6685268 L6.21766071,14.483441 C6.68398214,14.0411243 7.30991071,13.7713463 8.00155357,13.7713463 C8.69319643,13.7713463 9.32226786,14.044261 9.78546429,14.4865778 L9.95757143,14.6716635 C10.1985536,14.9320489 10.671125,15.0481086 11.0060179,14.9257578 C11.0060179,14.9257578 11.3064464,14.8159716 11.9949821,14.4206884 C12.6835,14.0223214 12.9244821,13.8152608 12.9244821,13.8152608 C13.1967679,13.5862782 13.3313571,13.1188499 13.2280714,12.7769091 L13.1529643,12.525934 C13.005875,11.904805 13.0841071,11.2272321 13.428375,10.6311795 C13.772625,10.0320078 14.3234464,9.62104088 14.9368571,9.43910949 L15.1809643,9.38264803 C15.5252321,9.30422932 15.8632321,8.95286067 15.9258214,8.60152726 C15.9258214,8.60152726 15.9821607,8.28783482 15.9821607,7.49103031 C15.979,6.69107143 15.9226786,6.37737899 15.9226786,6.37737899 Z M8.00155357,10.6781955 C6.24583929,10.6781955 4.81873214,9.25086936 4.81873214,7.48787594 C4.81873214,5.72800164 6.24271429,4.30065789 8.00155357,4.30065789 C9.75728571,4.30065789 11.1843929,5.72801927 11.1843929,7.49101269 C11.1812857,9.25086936 9.75730357,10.6781955 8.00155357,10.6781955 Z" id="形状"></path>
            </g>
        </g>
    </g>
</svg>