<?xml version="1.0" encoding="UTF-8"?>
<svg width="17px" height="18px" viewBox="0 0 17 18" version="1.1" xmlns="http://www.w3.org/2000/svg" xmlns:xlink="http://www.w3.org/1999/xlink">
    <!-- Generator: Sketch 58 (84663) - https://sketch.com -->
    <title>设置管理员</title>
    <desc>Created with Sketch.</desc>
    <g id="页面-1" stroke="none" stroke-width="1" fill="none" fill-rule="evenodd">
        <g id="组件" transform="translate(-563.000000, -781.000000)" fill="#8A92A5" fill-rule="nonzero">
            <g id="设置管理员" transform="translate(563.000000, 781.000000)">
                <g id="管理">
                    <path d="M12.9293468,17.9999774 L11.0713017,17.9999774 C10.7242132,17.9999774 10.4302739,17.7545542 10.3722861,17.4163065 L10.370497,17.4054666 L10.2326301,16.4719712 C10.0901326,16.403564 9.94942468,16.3236855 9.80913645,16.2315984 L8.86753832,16.6006808 C8.7920799,16.6252022 8.71399044,16.6377259 8.63537518,16.6377259 C8.38100642,16.6377259 8.1472626,16.504174 8.02360341,16.2888492 L7.09105567,14.7163261 C6.92624691,14.4224916 6.99139162,14.0609858 7.24954991,13.8371351 L7.27259788,13.8182968 L8.04938766,13.2257851 C8.04528323,13.1514844 8.04317839,13.0765522 8.04317839,12.9999365 C8.04317839,12.9232152 8.04528323,12.848283 8.04938766,12.7740879 L7.27259788,12.1813665 C6.99496902,11.9648848 6.9202473,11.58875 7.09084518,11.2838631 L7.09684397,11.2735494 L8.03644415,9.69039522 C8.17041704,9.48485786 8.39647615,9.36225027 8.64084899,9.36225027 C8.72241144,9.36225027 8.80260574,9.37593171 8.87922181,9.40308411 L8.89448188,9.40876717 L9.81176955,9.76932539 C9.94269043,9.68576335 10.0830839,9.60725292 10.2320011,9.5345312 L10.372499,8.58367096 C10.4295401,8.25100184 10.7299,8 11.0715147,8 L12.9295598,8 C13.2828559,8 13.5835331,8.26394742 13.6224726,8.60440484 L13.7588661,9.5279022 C13.9013635,9.59630941 14.0419667,9.67618798 14.1823597,9.76837985 L15.1244841,9.39908574 C15.1998372,9.37466963 15.2777162,9.36225109 15.356121,9.36225109 C15.6104898,9.36225109 15.8441267,9.49569777 15.9678928,9.71102304 L16.9009667,11.2840723 C17.065144,11.5779068 16.9996836,11.9392029 16.7419463,12.1626322 L16.7188983,12.1813653 L15.9502113,12.767879 C15.9552629,12.8410221 15.9575782,12.9178487 15.9575782,12.9999373 C15.9575782,13.0797107 15.9536843,13.1553796 15.9475803,13.2283122 L16.7508922,13.8368198 C17.009261,14.0605636 17.074511,14.4221742 16.909597,14.7161156 L16.9038087,14.7261136 L15.9642085,16.3093726 C15.8301303,16.5149099 15.6041765,16.6376223 15.3599105,16.6376223 C15.3598053,16.6376223 15.3599105,16.6376223 15.3598053,16.6376223 C15.2781376,16.6376223 15.1977328,16.6237304 15.1209062,16.5964728 L15.1076458,16.5914212 L14.1838319,16.2313892 C14.0562787,16.3141093 13.9177796,16.3921987 13.7688624,16.4652358 L13.6283645,17.4162008 C13.5714286,17.7490817 13.2708587,17.9999774 12.9293489,17.9999774 L12.9293468,17.9999774 Z M11.2759971,17.0528007 L12.7247562,17.0528007 L12.9085085,15.8086322 L13.1539317,15.7050742 C13.4216674,15.5920444 13.6481471,15.4638607 13.82727,15.3243083 L14.0396489,15.1587629 L15.2631904,15.6357182 L15.9747302,14.4362775 L14.9424123,13.6560139 L14.9771422,13.3836471 C14.9944018,13.2484113 15.0103986,13.122857 15.0103986,13.0000405 C15.0103986,12.8601741 15.0012425,12.74746 14.9817728,12.6454803 L14.9267313,12.3577486 L15.9660995,11.5646463 L15.2542432,10.3648891 L14.0458569,10.8398464 L13.8344256,10.6813522 C13.6073128,10.5110709 13.3872525,10.3868846 13.1616135,10.3019553 L12.9008234,10.2035541 L12.715282,8.94717595 L11.2758898,8.94717595 L11.0921375,10.1913444 L10.8467143,10.2949024 C10.5817145,10.4067745 10.3495514,10.5368539 10.1568539,10.6812449 L9.94542261,10.8397391 L8.73703635,10.3647818 L8.02528481,11.564539 L9.04897159,12.3456433 L9.01413654,12.6166411 C8.99803453,12.7422999 8.99014139,12.8677478 8.99014139,13.0000381 C8.99014139,13.1321166 8.99792929,13.2574592 9.01413654,13.3833281 L9.04897159,13.6544307 L8.02528481,14.4353254 L8.73703635,15.6351874 L9.94542261,15.160337 L10.1568539,15.3188312 C10.3838598,15.4890073 10.6039222,15.613087 10.829666,15.6982281 L11.0904561,15.796524 L11.2759975,17.0528007 L11.2759971,17.0528007 Z M12.117932,14.8606044 C11.2605274,14.8606044 10.5628787,14.1629557 10.5628787,13.3055511 C10.5628787,12.4480395 11.2605274,11.7503929 12.117932,11.7503929 C12.9753367,11.7503929 13.6729854,12.4480416 13.6729854,13.3055511 C13.6730906,14.1629557 12.9754415,14.8606044 12.117932,14.8606044 Z M12.117932,12.6975758 C11.7826319,12.6975758 11.5100554,12.9703619 11.5100554,13.3055572 C11.5100554,13.6407526 11.7827367,13.9134338 12.117932,13.9134338 C12.4531274,13.9134338 12.7258086,13.6407526 12.7258086,13.3055572 C12.7258086,12.9703619 12.4532322,12.6975758 12.117932,12.6975758 Z" id="形状"></path>
                    <path d="M7.06928555,0.766996827 C7.56609526,0.766996827 7.88878023,0.816152026 8.313093,0.936940343 L8.77142127,1.07315132 L8.87647896,1.09618288 L8.93861386,1.10575562 C9.09271388,1.12528092 9.24663354,1.09971381 9.36051328,1.06268826 L9.54902118,0.987578185 C9.81276206,0.89824691 10.1023892,0.930130514 10.3429383,1.07916784 C10.6201801,1.24968907 10.7874616,1.54843067 10.7883916,1.87544242 C10.7883916,2.02428941 10.7684736,2.20158177 10.717641,2.39339387 C11.0825818,2.90454283 11.1880792,3.50561521 11.1833206,4.82816158 L11.1766592,5.35916905 C11.4403476,5.61101216 11.5985943,5.96119216 11.6362582,6.35931569 L11.6500215,6.69443149 C11.6465676,7.34678684 11.3588703,8.05609168 10.7700166,8.47786095 C10.7588965,8.53505065 10.7511644,8.59717017 10.7445536,8.67956597 L10.7208238,9.05616926 C10.6909799,9.45051427 10.6333203,9.67221884 10.4639056,9.94585434 C10.4232646,10.0114968 10.3772334,10.075408 10.3254796,10.1377595 L10.1331124,10.2280884 L9.70946554,10.2280884 L9.35558703,10.4436357 L9.23753911,10.3936483 C9.15728579,10.359665 9.11863091,10.3547274 9.09620138,10.3644516 L9.082,10.374 L9.05785751,10.4048095 L8.66110241,10.1011671 L8.68349319,10.0713745 L8.75684421,9.98455734 C9.00747349,9.68273126 9.36848868,8.76843199 9.54789736,8.08845577 L9.63044517,7.74415697 L9.76311255,7.57654066 L9.92855613,7.49467432 C10.2096815,7.35564102 10.3581486,7.02081359 10.3693514,6.71807754 L10.3622791,6.48036743 C10.3512856,6.35237605 10.3137665,6.28820692 10.2593048,6.26286434 L9.87923801,6.08616468 L9.90166693,4.98875489 C9.91391641,3.7695777 9.84773339,3.34053955 9.6302889,3.07799966 L9.55210523,2.99579749 L9.19703049,2.66710886 L9.34723002,2.37199102 C9.16417596,2.39703512 8.97307308,2.40040077 8.777159,2.37557432 C8.64845155,2.35917684 8.5343217,2.33559593 8.40216176,2.29955716 L8.2627841,2.2591704 L7.95665524,2.16653993 C7.64171075,2.07744274 7.42655729,2.04704526 7.06911317,2.04704526 C6.47892064,2.04704526 6.11247513,2.235766 6.04415137,2.51015212 L5.9576964,2.85779544 L5.61608758,2.96586379 C5.06280896,3.14083618 4.85941238,3.93490158 5.04080705,5.62273891 L5.08852095,6.06675945 L4.68834202,6.26474472 C4.63723953,6.29004682 4.60286572,6.34875809 4.59283785,6.47045025 L4.58531785,6.70990175 C4.59591387,7.02615621 4.74666934,7.35708192 5.02502105,7.49485009 L5.19067268,7.57677795 L5.32348471,7.7448481 L5.41718376,8.14300088 C5.6149289,8.93535811 5.87467757,9.63353529 6.09655678,9.90173765 L6.18122126,10.0041047 L6.23842817,10.1549104 L6.24295892,10.2876703 C6.25395372,10.6078742 6.16532925,10.8868904 5.95653248,11.0222766 C5.5966324,11.4118854 4.96830144,11.8910069 4.07206562,12.2829966 L3.84620956,12.3709391 C2.52130288,12.9025077 1.35975713,13.7264892 1.35975713,14.3344799 L1.35975713,15.1299581 L8.02528481,15.1299581 L8.21060409,15.2121583 L9.29480279,16.4095552 L1.01961804,16.4095552 C0.501350331,16.4095552 0.0800721567,15.988481 0.0800721567,15.4703363 L0.0800721567,14.3342073 C0.0800721567,13.4863067 0.674184587,12.6966014 1.8098392,11.9782725 C2.41517583,11.5953583 3.06208091,11.2963753 3.57447727,11.1036991 C4.11966681,10.8640123 4.54435035,10.5806299 4.84401824,10.3173171 C4.58246656,9.84506477 4.36308745,9.20247739 4.181437,8.47646748 C3.5903272,8.05346843 3.30594056,7.34908025 3.30474506,6.68844809 L3.31826281,6.35885544 C3.35238592,5.97912542 3.49522392,5.64680635 3.73383174,5.39956077 C3.58156061,3.57652955 3.86614252,2.38949697 4.92119178,1.86955716 C5.25874697,1.16484216 6.04733765,0.766996827 7.06928555,0.766996827 Z" id="路径"></path>
                </g>
            </g>
        </g>
    </g>
</svg>