<?xml version="1.0" encoding="UTF-8"?>
<svg width="12px" height="12px" viewBox="0 0 12 12" version="1.1" xmlns="http://www.w3.org/2000/svg" xmlns:xlink="http://www.w3.org/1999/xlink">
    <!-- Generator: Sketch 58 (84663) - https://sketch.com -->
    <title>时间组件-分钟选择</title>
    <desc>Created with Sketch.</desc>
    <g id="页面-1" stroke="none" stroke-width="1" fill="none" fill-rule="evenodd" fill-opacity="0.45">
        <g id="组件" transform="translate(-695.000000, -823.000000)" fill="#000000">
            <g id="时间组件-分钟选择" transform="translate(695.000000, 823.000000)">
                <path d="M6,12 C2.6859375,12 0,9.3140625 0,6 C0,2.6859375 2.6859375,0 6,0 C9.3140625,0 12,2.6859375 12,6 C12,9.3140625 9.3140625,12 6,12 L6,12 Z M9.53522727,2.46477273 C9.07613636,2.00568182 8.54090909,1.64431818 7.94545455,1.39318182 C7.32954545,1.13181818 6.675,1 6,1 C5.325,1 4.67045455,1.13181818 4.05454545,1.39204545 C3.45909091,1.64431818 2.925,2.00454545 2.46477273,2.46363636 C2.00568182,2.92272727 1.64431818,3.45795455 1.39318182,4.05340909 C1.13181818,4.67045455 1,5.325 1,6 C1,6.675 1.13181818,7.32954545 1.39204545,7.94545455 C1.64431818,8.54090909 2.00454545,9.075 2.46363636,9.53522727 C2.92272727,9.99431818 3.45795455,10.3556818 4.05340909,10.6068182 C4.67045455,10.8681818 5.325,11 6,11 C6.675,11 7.32954545,10.8681818 7.94545455,10.6079545 C8.54090909,10.3556818 9.075,9.99545455 9.53522727,9.53636364 C9.99431818,9.07727273 10.3556818,8.54204545 10.6068182,7.94659091 C10.8681818,7.32954545 11,6.675 11,6 C11,5.325 10.8681818,4.67045455 10.6079545,4.05454545 C10.3556818,3.45909091 9.99545455,2.92386364 9.53522727,2.46477273 L9.53522727,2.46477273 Z M8.63139932,5.82758621 L6.73720137,5.82758621 L6.73720137,8.5862069 C6.73720137,8.81494253 6.57235495,9 6.36860068,9 L6.36860068,9 C6.16484642,9 6,8.81494253 6,8.5862069 L6,5.82758621 L6,5.82758621 C6,5.37011494 6.32969283,5 6.73720137,5 L6.73720137,5 L8.63139932,5 C8.83515358,5 9,5.18505747 9,5.4137931 L9,5.4137931 C9,5.64252874 8.83515358,5.82758621 8.63139932,5.82758621 L8.63139932,5.82758621 Z" id="Shape" transform="translate(6.000000, 6.000000) scale(1, -1) translate(-6.000000, -6.000000) "></path>
            </g>
        </g>
    </g>
</svg>