<?xml version="1.0" encoding="UTF-8"?>
<svg width="12px" height="12px" viewBox="0 0 12 12" version="1.1" xmlns="http://www.w3.org/2000/svg" xmlns:xlink="http://www.w3.org/1999/xlink">
    <!-- Generator: Sketch 58 (84663) - https://sketch.com -->
    <title>时间组件-删除</title>
    <desc>Created with Sketch.</desc>
    <g id="页面-1" stroke="none" stroke-width="1" fill="none" fill-rule="evenodd" fill-opacity="0.45">
        <g id="组件" transform="translate(-733.000000, -823.000000)" fill="#000000">
            <path d="M739,835 C735.685938,835 733,832.314062 733,829 C733,825.685938 735.685938,823 739,823 C742.314062,823 745,825.685938 745,829 C745,832.314062 742.314062,835 739,835 L739,835 Z M741.405859,827.184766 C741.569922,827.019531 741.569922,826.752344 741.404688,826.588281 C741.322656,826.50625 741.214844,826.465234 741.107031,826.465234 C740.999219,826.465234 740.890234,826.50625 740.808203,826.589453 L739,828.402344 L737.191797,826.589453 C737.109766,826.50625 737.000781,826.465234 736.892969,826.465234 C736.785156,826.465234 736.677344,826.50625 736.595312,826.588281 C736.430078,826.752344 736.430078,827.019531 736.594141,827.184766 L738.404688,829 L736.594141,830.815234 C736.430078,830.980469 736.430078,831.247656 736.595312,831.411719 C736.760547,831.575781 737.027734,831.575781 737.191797,831.410547 L739,829.597656 L740.808203,831.411719 C740.972266,831.576953 741.239453,831.576953 741.404688,831.412891 C741.569922,831.248828 741.569922,830.981641 741.405859,830.816406 L739.595312,829 L741.405859,827.184766 L741.405859,827.184766 Z" id="时间组件-删除" transform="translate(739.000000, 829.000000) scale(1, -1) translate(-739.000000, -829.000000) "></path>
        </g>
    </g>
</svg>