<?xml version="1.0" encoding="UTF-8"?>
<svg width="7px" height="11px" viewBox="0 0 7 11" version="1.1" xmlns="http://www.w3.org/2000/svg" xmlns:xlink="http://www.w3.org/1999/xlink">
    <!-- Generator: Sketch 58 (84663) - https://sketch.com -->
    <title>时间组件-月份</title>
    <desc>Created with Sketch.</desc>
    <g id="页面-1" stroke="none" stroke-width="1" fill="none" fill-rule="evenodd">
        <g id="组件" transform="translate(-658.000000, -824.000000)">
            <g id="时间组件-月份" transform="translate(656.000000, 823.000000)">
                <rect id="Rectangle" x="0" y="0" width="12" height="12"></rect>
                <path d="M10.5146288,3.12611787 C10.7070168,3.29934473 10.7225499,3.59573406 10.549323,3.78812198 L5.99107763,8.85056635 C5.8943593,8.95798293 5.75924678,9.01026749 5.62527855,9.00534789 C5.49137803,9.01052727 5.35583366,8.95825014 5.25887474,8.85056635 L5.25887474,8.85056635 L0.700629353,3.78812198 C0.527402496,3.59573406 0.542935602,3.29934473 0.735323518,3.12611787 C0.927711434,2.95289101 1.22410077,2.96842412 1.39732763,3.16081203 L1.39732763,3.16081203 L5.62522449,7.85571301 L9.85262474,3.16081203 C10.0258516,2.96842412 10.3222409,2.95289101 10.5146288,3.12611787 Z" id="down" fill-opacity="0.45" fill="#000000" transform="translate(5.624976, 6.005689) rotate(90.000000) translate(-5.624976, -6.005689) "></path>
            </g>
        </g>
    </g>
</svg>