<?xml version="1.0" encoding="UTF-8"?>
<svg width="16px" height="15px" viewBox="0 0 16 15" version="1.1" xmlns="http://www.w3.org/2000/svg" xmlns:xlink="http://www.w3.org/1999/xlink">
    <!-- Generator: Sketch 58 (84663) - https://sketch.com -->
    <title>数据</title>
    <desc>Created with Sketch.</desc>
    <g id="页面-1" stroke="none" stroke-width="1" fill="none" fill-rule="evenodd">
        <g id="组件" transform="translate(-352.000000, -930.000000)" fill="#8A92A5" fill-rule="nonzero">
            <g id="数据" transform="translate(352.000000, 930.000000)">
                <path d="M7.01482149,8.02757178 L7.01482149,1.85436714 C6.96348432,1.85249079 6.91404874,1.85061443 6.86271157,1.85061443 C3.25009925,1.85061443 0.320082331,4.74207849 0.320082331,8.30715643 C0.320082331,11.8722344 3.25009925,14.7618281 6.86271157,14.7618281 C10.4753239,14.7618281 13.4053408,11.8722344 13.4053408,8.30715643 C13.4053408,8.21333861 13.401538,8.12139736 13.3977353,8.02757991 L7.01482924,8.02757991 L7.01482149,8.02757178 Z M15.6242454,6.00861884 C15.2819982,2.85822344 12.7512724,0.35516554 9.56266229,0.00616475573 L9.48660742,0.00616475573 L8.48648514,0.00616475573 C8.27543355,0.00616475573 8.10240818,0.17691311 8.10240818,0.385188079 L8.10240818,1.16950559 L8.10240818,6.78918285 C8.10240818,6.99745745 8.27543318,7.16820617 8.48648514,7.16820617 L14.4682066,7.16820617 L15.2819939,7.16820617 C15.487343,7.16820617 15.6565648,7.00683956 15.66417,6.8041932 C15.66417,6.79856414 15.6660714,6.79293507 15.6660714,6.78730601 L15.6660714,6.73852071 L15.6660714,5.84162188 C15.6660714,5.90354151 15.648959,5.95795597 15.6242412,6.00861747 L15.6242454,6.00861884 Z M9.48660984,6.22252279 C9.27555824,6.22252279 9.10253287,6.05177443 9.10253287,5.84349946 L9.10253287,1.13572038 C11.9279753,1.28207609 14.2058141,3.46428706 14.4625121,6.22252279 L9.48662285,6.22252279 L9.48660984,6.22252279 Z" id="形状"></path>
            </g>
        </g>
    </g>
</svg>