<?xml version="1.0" encoding="UTF-8"?>
<svg width="16px" height="16px" viewBox="0 0 16 16" version="1.1" xmlns="http://www.w3.org/2000/svg" xmlns:xlink="http://www.w3.org/1999/xlink">
    <!-- Generator: Sketch 58 (84663) - https://sketch.com -->
    <title>下载</title>
    <desc>Created with Sketch.</desc>
    <g id="页面-1" stroke="none" stroke-width="1" fill="none" fill-rule="evenodd">
        <g id="组件" transform="translate(-484.000000, -1010.000000)" fill="#8A92A5" fill-rule="nonzero">
            <g id="下载" transform="translate(484.000000, 1010.000000)">
                <path d="M13.4588392,15.5294298 L2.07059064,15.5294298 C0.926104019,15.5294298 0,14.6538773 0,13.5761187 L0,9.54615081 C0,9.27721668 0.230514974,9.05883407 0.517647661,9.05883407 L0.776471492,9.05883407 C1.06360418,9.05883407 1.29411915,9.27721668 1.29411915,9.54615081 L1.29411915,13.2667434 C1.29411915,13.8046117 1.75919322,14.2332886 2.32941448,14.2332886 L13.1979933,14.2332886 C13.7702366,14.2332886 14.2332886,13.7965234 14.2332886,13.2566331 L14.2332886,9.54615081 C14.2332886,9.27721668 14.4638036,9.05883407 14.7509363,9.05883407 L15.0117822,9.05883407 C15.2989149,9.05883407 15.5294298,9.27721668 15.5294298,9.54615081 L15.5294298,13.5781408 C15.5294298,14.6558994 14.6033258,15.5294298 13.4588392,15.5294298 L13.4588392,15.5294298 Z M3.65588661,6.57372088 C3.78529852,6.45037515 3.99761495,6.45037515 4.12904892,6.57372088 L7.1196774,9.46526837 L7.1196774,0.505515294 C7.1196774,0.337684216 7.1459642,0 7.49375872,0 L8.01747256,0 C8.39762007,0 8.39357594,0.337684216 8.39357594,0.505515294 L8.39357594,9.46324631 L11.3680279,6.57169882 C11.4974398,6.44835309 11.7097563,6.44835309 11.8391682,6.57169882 L12.3123305,7.01655228 C12.4417424,7.13989801 12.4417424,7.33806001 12.3123305,7.46140574 L8.18125952,11.4428442 C8.17114921,11.4529545 7.96287691,11.5722561 7.75460461,11.5722561 C7.54431025,11.5722561 7.33199383,11.4529545 7.31986146,11.4428442 L3.18474635,7.4634278 C3.05533444,7.34008207 3.05533444,7.14192008 3.18474635,7.01857434 L3.65588661,6.57372088 L3.65588661,6.57372088 Z" id="形状"></path>
            </g>
        </g>
    </g>
</svg>