<?xml version="1.0" encoding="UTF-8"?>
<svg width="10px" height="6px" viewBox="0 0 10 6" version="1.1" xmlns="http://www.w3.org/2000/svg" xmlns:xlink="http://www.w3.org/1999/xlink">
    <!-- Generator: Sketch 58 (84663) - https://sketch.com -->
    <title>下拉</title>
    <desc>Created with Sketch.</desc>
    <g id="页面-1" stroke="none" stroke-width="1" fill="none" fill-rule="evenodd">
        <g id="组件" transform="translate(-490.000000, -825.000000)" fill="#8A92A5" fill-rule="nonzero">
            <g id="下拉" transform="translate(495.000000, 828.214286) scale(-1, 1) translate(-495.000000, -828.214286) translate(490.000000, 825.000000)">
                <path d="M0.188503203,0.899872637 C0.188503203,0.724811406 0.257277145,0.543498801 0.388572689,0.412202704 C0.657416255,0.143359139 1.09507037,0.143359139 1.37016669,0.412202704 L5.04019635,4.08223236 L8.71022601,0.412202704 C8.97906957,0.143359139 9.41672369,0.143359139 9.69182001,0.412202704 C9.96066358,0.68104627 9.96066358,1.11870039 9.69182001,1.39379671 L5.53412525,5.55149146 C5.40282985,5.68278687 5.22776861,5.75156095 5.04645532,5.75156095 C4.86514202,5.75156095 4.68382873,5.67653481 4.55878539,5.55149146 L0.401090628,1.39379671 C0.257290404,1.25624855 0.188503203,1.07493594 0.188503203,0.899874709 L0.188503203,0.899872637 Z" id="路径"></path>
            </g>
        </g>
    </g>
</svg>