<?xml version="1.0" encoding="UTF-8"?>
<svg width="20px" height="20px" viewBox="0 0 20 20" version="1.1" xmlns="http://www.w3.org/2000/svg" xmlns:xlink="http://www.w3.org/1999/xlink">
    <!-- Generator: Sketch 58 (84663) - https://sketch.com -->
    <title>消息</title>
    <desc>Created with Sketch.</desc>
    <g id="页面-1" stroke="none" stroke-width="1" fill="none" fill-rule="evenodd">
        <g id="组件" transform="translate(-486.000000, -872.000000)" fill="#8A92A5" fill-rule="nonzero">
            <g id="消息" transform="translate(486.000000, 872.000000)">
                <path d="M13.2114424,16.84851 L13.2114424,16.84851 C12.7503169,18.7894628 10.8030464,19.9890866 8.86208842,19.5279663 C7.64662867,19.2392003 6.66666138,18.3428868 6.27087446,17.1579479 L6.22309654,17.0046144 L6.18254103,16.8490587 L13.2114424,16.8490587 L13.2114424,16.84851 Z M10.5264315,1.15736852 L10.5303204,1.23736861 L10.5303204,1.56625702 C14.0969912,1.99236949 16.8614475,5.02738084 16.8614475,8.70847887 L16.8614475,11.9679393 C17.3947815,13.201274 18.1992277,14.1623871 19.1392288,14.6996091 C19.6336747,14.9823881 19.4336745,15.7373911 18.8636738,15.7373911 L0.619199473,15.7373911 C0.0491988094,15.7379445 -0.151913404,14.9829428 0.343087172,14.7001664 C1.1486428,14.2390539 1.85642227,13.466277 2.37920152,12.4740518 L2.4747571,12.2851628 L2.4747571,8.7084885 C2.4747571,5.00793732 5.26921348,1.95960044 8.86364474,1.55959998 L8.86364474,1.23737825 C8.86364467,0.777140859 9.23674153,0.404034309 9.69697905,0.404034309 C10.1262201,0.404034309 10.4852231,0.730115418 10.5264315,1.15736852 Z" id="形状"></path>
            </g>
        </g>
    </g>
</svg>