<?xml version="1.0" encoding="UTF-8"?>
<svg width="16px" height="16px" viewBox="0 0 16 16" version="1.1" xmlns="http://www.w3.org/2000/svg" xmlns:xlink="http://www.w3.org/1999/xlink">
    <!-- Generator: Sketch 58 (84663) - https://sketch.com -->
    <title>展开</title>
    <desc>Created with Sketch.</desc>
    <g id="页面-1" stroke="none" stroke-width="1" fill="none" fill-rule="evenodd">
        <g id="组件" transform="translate(-352.000000, -1018.000000)" fill="#8A92A5" fill-rule="nonzero">
            <g id="展开" transform="translate(352.000000, 1018.000000)">
                <path d="M13.319894,7.33030108 L12.4461234,6.48652276 L13.2818881,5.62106667 L13.2818881,5.62106668 C13.3478243,5.55278067 13.4566332,5.55087586 13.5249196,5.61681224 C13.5249198,5.61681241 13.52492,5.61681258 13.5249201,5.61681275 L14.9467577,6.98985927 L14.9450605,6.99157802 L15.7893329,7.806911 L15.7893329,7.806911 C15.8576189,7.87284727 15.8595238,7.98165609 15.7935874,8.04994253 C15.7935872,8.04994271 15.793587,8.04994289 15.7935868,8.04994306 L13.4653869,10.4608365 L12.5999308,9.62507185 L12.5999308,9.62507186 C12.5316508,9.55912936 12.5297557,9.45032054 12.5956982,9.38204033 C12.5956982,9.38204028 12.5956983,9.38204023 12.5956983,9.38204018 L13.2492108,8.70528158 L10.6211101,8.70528158 L10.6211101,7.50215518 L10.6211101,7.50215521 C10.6211101,7.40723111 10.6980612,7.33028001 10.7929853,7.33028001 L13.3198945,7.33028001 L13.319894,7.33030108 Z M1.83399,3.552742 C0.884744755,3.552742 0.115238,2.78323525 0.115238,1.83399 C0.115238,0.884744755 0.884744755,0.115238 1.83399,0.115238 C2.78323525,0.115238 3.552742,0.884744755 3.552742,1.83399 C3.552742,2.78323525 2.78323525,3.552742 1.83399,3.552742 Z M4.5839932,0.115238 L15.8847876,0.115238 L15.8847876,3.2089916 C15.8847876,3.39884924 15.7308948,3.552742 15.5410372,3.552742 L4.2402428,3.552742 L4.2402428,0.4589884 C4.2402428,0.269130757 4.39413556,0.115238 4.5839932,0.115238 Z M0.4589884,12.4472836 L15.8847876,12.4472836 L15.8847876,15.5410372 C15.8847876,15.7308948 15.7308948,15.8847876 15.5410372,15.8847876 L0.115238,15.8847876 L0.115238,12.791034 C0.115238,12.6011764 0.269130757,12.4472836 0.4589884,12.4472836 Z M0.4589884,6.2812608 L9.9121244,6.2812608 L9.9121244,9.3750144 C9.9121244,9.56487204 9.75823164,9.7187648 9.568374,9.7187648 L0.115238,9.7187648 L0.115238,6.6250112 C0.115238,6.43515356 0.269130757,6.2812608 0.4589884,6.2812608 Z" id="形状"></path>
            </g>
        </g>
    </g>
</svg>