<?xml version="1.0" encoding="UTF-8"?>
<svg width="79px" height="79px" viewBox="0 0 79 79" version="1.1" xmlns="http://www.w3.org/2000/svg" xmlns:xlink="http://www.w3.org/1999/xlink">
    <!-- Generator: Sketch 61.2 (89653) - https://sketch.com -->
    <title>印章备份</title>
    <desc>Created with Sketch.</desc>
    <g id="页面-1" stroke="none" stroke-width="1" fill="none" fill-rule="evenodd" opacity="0.200000003">
        <g id="组件" transform="translate(-953.000000, -859.000000)" fill="#8A92A5">
            <g id="印章备份" transform="translate(953.000000, 859.000000)">
                <path d="M28.9813671,3.98933798 C28.9031447,4.38044954 28.6293666,4.77156111 28.4338109,5.12356152 C25.1484737,6.14045159 21.9022477,7.70489785 18.5777994,10.0124561 C15.3315734,12.3200143 12.2026809,15.488018 10.0124561,18.6169106 C7.78312017,21.7849142 6.25778506,24.9920291 5.24089499,28.2382551 C4.69333879,29.8418125 4.34133839,31.4844811 4.02844913,33.0880385 C3.91111566,33.9093728 3.75467104,34.6915959 3.71555988,35.5129302 C3.55911525,36.2951533 3.67644872,37.1164876 3.44178178,37.9378219 C3.12889253,38.0942666 2.9724479,38.2898223 2.65955865,38.446267 C2.65955865,38.6418227 3.08978137,38.954712 2.69866981,39.0720455 C2.50311402,38.954712 2.62044749,38.5244893 2.62044749,38.2507112 C2.62044749,37.9378219 2.58133634,37.5858215 2.69866981,37.3511546 C2.85511443,37.3902657 2.62044749,37.5467104 2.77689212,37.6249327 C2.85511443,37.5858215 3.01155906,37.3902657 3.08978137,37.2729323 C3.05067022,37.1555988 2.81600328,37.0382653 2.65955865,36.9209319 C2.65955865,36.7644872 2.62044749,36.5689314 2.77689212,36.3733757 C2.73778096,36.3342645 2.62044749,36.2951533 2.65955865,36.1778199 C3.40267063,28.6293666 5.98400696,20.8853576 12.9457928,13.6497937 C15.2533511,11.224902 17.6391316,9.42578875 20.1031345,7.90045364 C21.3155804,7.15734166 22.5280262,6.492452 23.7404721,5.94489581 C24.3662506,5.63200655 24.9529179,5.39733961 25.5786964,5.16267267 C26.1653638,5.00622805 26.7911423,4.57600532 27.3778096,4.61511648 C27.8080324,4.22400492 28.4338109,4.18489376 28.9813671,3.98933798 Z M3.44178178,37.5467104 C3.44178178,37.468488 3.28533716,37.3902657 3.20711484,37.3902657 C3.246226,37.5467104 3.28533716,37.6640438 3.44178178,37.5467104 Z M28.1600328,1.76000205 C28.1209216,1.99466899 28.1991439,2.3466694 27.9253658,2.54222518 C27.8080324,2.38578055 27.6906989,2.3466694 27.4951431,2.38578055 C27.3778096,2.81600328 27.3386985,3.28533716 27.2604762,3.71555988 C26.9084758,3.87200451 26.5955865,3.95022682 26.2435861,4.10667145 C26.1653638,3.48089294 26.478253,2.89422559 26.5955865,2.30755824 C27.1431427,2.03378014 27.6515877,1.91644667 28.1600328,1.76000205 Z M28.8249224,1.87733552 C29.1378117,2.22933593 28.707589,2.54222518 28.8249224,2.89422559 C28.9422559,2.93333675 29.0204782,3.08978137 29.0595894,3.08978137 C28.9422559,3.246226 28.6293666,3.246226 28.4338109,3.32444831 C28.4338109,2.85511443 28.6684778,2.3466694 28.5902555,1.87733552 C28.6684778,1.87733552 28.7467001,1.83822436 28.8249224,1.87733552 L28.8249224,1.87733552 Z M29.6462567,2.65955865 C29.7635902,2.62044749 29.8809237,2.81600328 29.9200348,2.89422559 C29.8027013,3.05067022 29.724479,2.9724479 29.6071456,3.05067022 C29.5289232,2.89422559 29.6462567,2.77689212 29.6462567,2.65955865 L29.6462567,2.65955865 Z M39.3458236,0.195555783 C39.4240459,0.273778096 39.3067124,0.312889253 39.4240459,0.391111566 C39.5413793,0.35200041 39.6587128,0.23466694 39.7760463,0.195555783 C41.1840479,0.23466694 42.6311607,0.23466694 44.0391624,0.508445036 C43.7262731,0.977778916 43.2178281,1.4471128 42.7484942,1.87733552 C38.6809339,1.60355742 34.6133736,1.87733552 30.5849245,2.73778096 C30.7022579,2.58133634 30.6631468,2.42489171 30.7804803,2.22933593 C30.976036,2.03378014 31.1715918,2.26844708 31.3671476,1.99466899 C31.4453699,1.87733552 31.1715918,1.76000205 31.1715918,1.64266858 C31.2498141,1.36889048 31.5627034,1.13422354 31.6018146,0.938667759 C34.1440397,0.391111566 36.7644872,0.156444626 39.3458236,0.195555783 Z M30.3111464,3.63733757 C30.3893687,3.95022682 30.0764794,4.30222723 30.2329241,4.61511648 C29.8809237,4.73244995 29.5680344,4.81067226 29.216034,4.92800573 C29.1769228,4.81067226 29.216034,4.69333879 29.3724786,4.57600532 C29.4507009,4.38044954 29.4507009,4.1457826 29.4507009,3.95022682 C29.6853679,3.71555988 29.9982571,3.71555988 30.3111464,3.63733757 L30.3111464,3.63733757 Z M41.8880487,2.65955865 C41.6142706,2.93333675 41.3013814,3.20711484 41.0276033,3.48089294 C37.7813773,3.32444831 34.4960401,3.67644872 31.2498141,4.26311607 C31.1324807,4.1457826 31.3280365,4.02844913 31.2498141,3.91111566 C31.2498141,3.75467104 31.0542584,3.98933798 30.9369249,3.91111566 C30.7804803,3.75467104 31.0151472,3.59822641 30.8978137,3.44178178 C30.8978137,3.40267063 30.9369249,3.44178178 30.9369249,3.44178178 C32.7751492,2.9724479 34.6133736,2.73778096 36.451598,2.58133634 C37.3511546,2.50311402 38.2898223,2.46400287 39.1893789,2.46400287 C40.0889355,2.54222518 41.1058256,2.50311402 41.8880487,2.65955865 L41.8880487,2.65955865 Z M3.48089294,39.5413793 C3.59822641,42.5920496 3.95022682,45.6036086 4.77156111,48.6542788 C4.69333879,48.7716123 4.65422764,48.8889458 4.65422764,49.0062792 C4.38044954,49.0453904 4.26311607,49.3191685 4.10667145,49.5538354 C3.05067022,46.190276 2.58133634,42.6702719 2.62044749,39.4240459 C2.93333675,39.3067124 3.20711484,39.5022682 3.48089294,39.5413793 Z M52.2525052,4.88889458 C52.2916164,4.92800573 52.1742829,5.00622805 52.2525052,5.0453392 C52.0569495,5.24089499 51.7440602,5.16267267 51.6658379,5.47556193 C51.7831714,5.63200655 51.939616,5.55378424 52.0569495,5.63200655 C52.0960606,5.55378424 52.0960606,5.43645077 52.1351718,5.3191173 C52.3698387,5.28000614 52.8000614,4.81067226 52.9565061,5.28000614 C52.7218391,5.39733961 52.448061,5.35822846 52.2525052,5.71022887 C52.4089499,5.82756234 52.6045057,5.67111771 52.7609503,5.74934002 C52.7218391,5.86667349 52.5262833,5.82756234 52.448061,5.90578465 C49.3191685,4.65422764 46.1511648,3.95022682 43.0222723,3.55911525 C43.1787169,3.48089294 43.3351615,3.36355947 43.4916062,3.40267063 C43.5698285,3.36355947 43.4133839,3.28533716 43.4916062,3.246226 C43.5307173,3.12889253 43.3742727,3.28533716 43.2960504,3.246226 C43.1787169,3.08978137 43.0222723,2.89422559 43.1004946,2.69866981 C46.1120537,2.9724479 49.201835,3.79378219 52.2525052,4.88889458 L52.2525052,4.88889458 Z M52.7218391,5.98400696 C52.8000614,5.94489581 52.9173949,6.14045159 52.9173949,6.17956275 C52.8391726,6.17956275 52.7609503,6.14045159 52.682728,6.10134043 C52.7218391,6.02311812 52.7609503,5.98400696 52.7218391,5.98400696 L52.7218391,5.98400696 Z M75.5236434,34.8871517 C75.171643,34.6915959 74.8587538,34.5351513 74.6240868,34.5351513 C73.8418637,29.216034 72.1209728,23.8578055 68.2880795,18.4604659 C66.4498551,15.8400184 63.672963,12.9066817 61.1307378,10.990235 C58.5494015,8.95645487 55.928954,7.47023091 53.3085065,6.37511853 C53.3085065,6.02311812 53.4649511,5.71022887 53.3476176,5.35822846 C53.3476176,5.3191173 53.3867288,5.35822846 53.3867288,5.35822846 C56.1636209,6.53156316 58.9014019,8.01778711 61.6391828,10.1689007 C64.3378526,12.1635697 67.3103005,15.3315734 69.1876361,18.0302432 C71.2214162,20.8462465 72.5903067,23.7013609 73.6463079,26.478253 C74.154753,27.8862547 74.5849757,29.2942563 74.8978649,30.7022579 C75.0543096,31.4062588 75.2107542,32.1102596 75.2889765,32.8142604 C75.40631,33.1662608 75.40631,33.5182612 75.4845323,33.8702616 C75.4845323,34.1831509 75.6800881,34.6524848 75.5236434,34.8871517 Z M23.0364713,64.3769638 C23.7795832,64.1422969 24.483584,64.1031857 25.1875849,63.9467411 C25.6178076,63.438296 26.0480303,62.929851 26.5173642,62.4605171 C26.8302534,62.9689622 27.0649204,63.438296 27.3778096,63.9467411 C28.0426993,64.2205192 28.707589,64.3378526 29.3333675,64.4551861 C28.9031447,64.92452 28.3946997,65.3547427 27.8471435,65.8240766 C27.6515877,66.4107439 27.8471435,67.1929671 27.6124766,67.7014121 C27.0258092,67.427634 26.4000307,67.2711894 25.8133634,66.9583001 C25.1484737,67.1929671 24.483584,67.3494117 23.8186944,67.6231898 C23.7795832,67.0365225 24.0533613,66.4107439 24.1706948,65.7849654 C23.7404721,65.2374092 23.5449163,64.8854088 23.0364713,64.3769638 Z M37.7422661,67.3494117 C38.4853781,67.1147448 39.1893789,67.0756336 39.8933798,66.919189 C40.3236025,66.4107439 40.7538252,65.9022989 41.2231591,65.432965 C41.5360483,65.9414101 41.7707153,66.4107439 42.0836045,66.919189 C42.7484942,67.1929671 43.4133839,67.3103005 44.0391624,67.427634 C43.6089396,67.8969679 43.1004946,68.3271906 42.5529384,68.7965245 C42.3573826,69.3831918 42.5529384,70.165415 42.3182715,70.67386 C41.7316041,70.4000819 41.1058256,70.2436373 40.5191583,69.930748 C39.8542686,70.165415 39.1893789,70.3218596 38.5244893,70.5956377 C38.4853781,70.0089704 38.7591562,69.3831918 38.8764897,68.7574133 C38.4071558,68.170746 38.2116,67.8578567 37.7422661,67.3494117 Z M53.3476176,61.7174051 C54.0907296,61.4827382 54.7947304,61.4436271 55.4987312,61.2871824 C55.928954,60.7787374 56.3591767,60.2702924 56.8285106,59.8009585 C57.1413998,60.3094035 57.3760668,60.7787374 57.688956,61.2871824 C58.3538457,61.5609605 59.0187353,61.678294 59.6445138,61.7956275 C59.2142911,62.2649613 58.7058461,62.6951841 58.1582899,63.1645179 C57.9627341,63.7511853 58.1582899,64.5334084 57.923623,65.0418535 C57.3369556,64.7680754 56.7111771,64.6116307 56.1245098,64.2987415 C55.4596201,64.5334084 54.7947304,64.6898531 54.1298408,64.9636311 C54.0907296,64.3769638 54.3645077,63.7511853 54.4818412,63.1254068 C54.0125073,62.5387394 53.8169515,62.186739 53.3476176,61.7174051 Z M63.0862956,50.6489478 C63.8294076,50.4142809 64.5334084,50.3751697 65.2374092,50.2187251 C65.667632,49.7102801 66.0978547,49.201835 66.5671886,48.7325012 C66.8800778,49.2409462 67.1147448,49.7102801 67.427634,50.2187251 C68.0925237,50.4925032 68.7574133,50.6098367 69.3831918,50.7271701 C68.9529691,51.196504 68.4445241,51.6267267 67.8969679,52.0960606 C67.7014121,52.682728 67.8969679,53.4649511 67.662301,53.9733961 C67.0756336,53.699618 66.4498551,53.5431734 65.8631878,53.2302842 C65.1982981,53.4649511 64.5334084,53.6213957 63.8685188,53.8951738 C63.8294076,53.3085065 64.1031857,52.682728 64.2205192,52.0569495 C63.7511853,51.5093933 63.5556295,51.1573929 63.0862956,50.6489478 Z M65.7458543,38.5636004 C66.4889663,38.3289335 67.1929671,38.2898223 67.8969679,38.1333777 C68.3271906,37.6249327 68.7574133,37.1164876 69.2267472,36.6471538 C69.5396365,37.1555988 69.7743034,37.6249327 70.0871927,38.1333777 C70.7520823,38.4071558 71.416972,38.5244893 72.0427505,38.6418227 C71.6125278,39.1111566 71.1040827,39.5413793 70.5565265,40.0107132 C70.3609708,40.5973806 70.5565265,41.3796037 70.3218596,41.8880487 C69.7351923,41.6142706 69.1094138,41.457826 68.5227464,41.1449368 C67.8578567,41.3796037 67.1929671,41.5360483 66.5280774,41.8098264 C66.4889663,41.2231591 66.7627444,40.5973806 66.8800778,39.9716021 C66.4498551,39.4240459 66.2542993,39.0720455 65.7458543,38.5636004 Z M54.7165081,12.3982366 C54.0125073,12.6720147 53.3085065,12.7502371 52.6045057,12.984904 C52.2133941,13.493349 51.8222825,14.0409052 51.3529486,14.5493503 C51.0400594,14.0800164 50.7662813,13.5715713 50.4142809,13.1022375 C49.7493912,12.8675705 49.0845016,12.7893482 48.4196119,12.7111259 C48.8107235,12.241792 49.3191685,11.733347 49.8276135,11.2640131 C49.9840582,10.6382346 49.7493912,9.89512263 49.944947,9.38667759 C50.5707255,9.62134453 51.1573929,9.738678 51.7831714,10.0124561 C52.448061,9.738678 53.0738395,9.54312222 53.7387292,9.23023296 C53.8169515,9.81690031 53.5822846,10.4426788 53.5040623,11.0684573 C53.9733961,11.6160135 54.1689519,11.9289028 54.7165081,12.3982366 L54.7165081,12.3982366 Z M40.3627136,10.1297896 C39.6587128,10.4035677 38.954712,10.48179 38.2507112,10.7164569 C37.8595996,11.224902 37.468488,11.7724581 36.9991542,12.2809032 C36.6862649,11.8115693 36.4124868,11.3031243 36.0604864,10.8337904 C35.3955967,10.5991234 34.7307071,10.5209011 34.0658174,10.4426788 C34.456929,9.97334494 34.965374,9.4648999 35.4738191,8.99556602 C35.6302637,8.36978752 35.3955967,7.62667554 35.5911525,7.11823051 C36.216931,7.35289744 36.8035984,7.47023091 37.4293769,7.74400901 C38.0942666,7.47023091 38.7200451,7.27467513 39.3849347,6.96178588 C39.463157,7.54845323 39.2284901,8.17423173 39.1502678,8.80001024 C39.6196017,9.30845528 39.8151574,9.66045569 40.3627136,10.1297896 L40.3627136,10.1297896 Z M25.7351411,15.5662403 C25.0311402,15.8400184 24.3271394,15.9182407 23.6231386,16.1529077 C23.232027,16.6613527 22.8409155,17.2089089 22.3715816,17.7173539 C22.0586923,17.2480201 21.7849142,16.739575 21.4329138,16.2702412 C20.7680242,16.0355742 20.1031345,15.9573519 19.4382448,15.8791296 C19.8293564,15.4097957 20.3378014,14.9013507 20.8462465,14.4320168 C21.0026911,13.8062383 20.7680242,13.0631263 20.9635799,12.5546813 C21.5893585,12.7893482 22.1760258,12.9066817 22.8018043,13.1804598 C23.466694,12.9066817 24.0924725,12.7111259 24.7573621,12.3982366 C24.8355845,12.984904 24.6009175,13.6106825 24.5226952,14.236461 C24.9920291,14.744906 25.1875849,15.0969065 25.7351411,15.5662403 L25.7351411,15.5662403 Z M16.1137965,27.1040315 C15.4097957,27.3778096 14.7057949,27.4560319 14.0017941,27.6906989 C13.6106825,28.1991439 13.2195709,28.7467001 12.7502371,29.2551452 C12.4373478,28.7858113 12.1635697,28.2773662 11.8115693,27.8080324 C11.1466796,27.5733654 10.48179,27.4951431 9.81690031,27.4169208 C10.2080119,26.9475869 10.7164569,26.4391419 11.224902,25.969808 C11.3813466,25.3440295 11.1466796,24.6009175 11.3422354,24.0924725 C11.9680139,24.3271394 12.5546813,24.4444729 13.1804598,24.718251 C13.8453494,24.4444729 14.471128,24.2489171 15.1360176,23.9360279 C15.2142399,24.5226952 14.979573,25.1484737 14.9013507,25.7742522 C15.3706846,26.2826973 15.6053515,26.6346977 16.1137965,27.1040315 Z M13.5715713,40.6364917 C12.8675705,40.9102698 12.1635697,40.9884921 11.4595689,41.2231591 C11.0684573,41.7316041 10.6773458,42.2791603 10.2080119,42.7876053 C9.89512263,42.3182715 9.62134453,41.8098264 9.26934412,41.3404925 C8.60445446,41.1058256 7.93956479,41.0276033 7.27467513,40.949381 C7.6657867,40.4800471 8.17423173,39.9716021 8.68267677,39.5022682 C8.8391214,38.8764897 8.60445446,38.1333777 8.80001024,37.6249327 C9.42578875,37.8595996 10.0124561,37.9769331 10.6382346,38.2507112 C11.3031243,37.9769331 11.9289028,37.7813773 12.5937924,37.468488 C12.6720147,38.0551554 12.4373478,38.6809339 12.3591255,39.3067124 C12.8284594,39.8542686 13.0240152,40.1671579 13.5715713,40.6364917 L13.5715713,40.6364917 Z M16.6613527,69.0311914 C27.5342543,76.7752004 38.5636004,78.0267575 49.7102801,75.0543096 C49.6320578,75.2498653 49.8667247,75.4454211 49.7102801,75.6409769 C49.5929466,75.7974215 49.5147243,75.7583104 49.3973908,75.7974215 C49.5147243,76.1103108 49.3191685,76.4623112 49.4756131,76.7752004 C48.184945,77.166312 46.8942768,77.4400901 45.5644975,77.6356459 C45.5644975,77.400979 45.3689417,77.2836455 45.5253863,77.0489785 C45.3298305,76.8143116 44.9778301,76.7752004 44.704052,76.8534228 C44.5867185,77.1272009 44.7822743,77.400979 44.7431632,77.6356459 C44.6258297,77.6747571 44.5867185,77.6356459 44.5084962,77.7920905 C43.3742727,77.909424 42.2400492,78.1049798 41.1058256,78.0658686 C41.1058256,77.9485351 41.1058256,77.7920905 41.1449368,77.6747571 C40.5973806,77.4792013 40.0498244,77.5574236 39.5022682,77.4400901 C39.3849347,77.6747571 39.0329343,77.8703128 39.0720455,78.1049798 C37.6640438,78.1440909 36.216931,78.0267575 34.8089294,77.8703128 C35.0044852,77.7138682 35.1218186,77.400979 35.4347079,77.2445343 C35.4738191,77.0880897 35.3564856,76.8925339 35.3173744,76.7360893 C35.0044852,76.6969781 34.7307071,77.0489785 34.4960401,77.3618678 C34.4960401,77.5574236 34.7307071,77.5965347 34.6524848,77.7920905 C34.222262,77.9485351 33.7920393,77.7529794 33.3227054,77.7138682 C32.8924827,77.6747571 32.46226,77.5574236 32.0320373,77.5183124 C31.1715918,77.3227566 30.3111464,77.166312 29.4115898,76.9316451 C29.4507009,76.5796447 29.0987005,76.3058666 28.8249224,76.0711996 C28.5902555,76.1103108 28.5120332,76.5405335 28.2382551,76.5405335 C26.3218084,76.1103108 24.4053617,75.2889765 22.4889151,74.4285311 C20.5724684,73.5289744 18.6951329,72.4338621 16.8177973,71.1431939 C16.6222416,70.4000819 16.7786862,69.6960811 16.6613527,69.0311914 L16.6613527,69.0311914 Z M74.663198,34.8871517 C74.9760872,35.0044852 75.2889765,35.2782633 75.6018658,35.3564856 C75.6018658,35.4738191 75.4845323,35.5520414 75.4454211,35.708486 C75.2107542,35.7867083 74.9760872,35.5129302 74.7414203,35.4738191 C74.663198,35.2782633 74.7023091,35.0827075 74.663198,34.8871517 Z M24.3271394,21.7066919 C24.2880283,21.8240254 24.0924725,21.9413589 24.0142502,22.0586923 C24.2489171,22.2542481 24.5226952,21.7066919 24.3271394,21.6675808 C24.4444729,21.3155804 24.7964733,21.2764692 25.0702514,21.1591357 C25.226696,21.0418023 25.1484737,20.9244688 25.226696,20.8071353 C29.1378117,17.8346874 33.0098162,16.6222416 36.8818207,16.1529077 C36.960043,16.4657969 36.8818207,16.7786862 36.5689314,17.0524643 C32.5013712,17.6000205 28.4338109,19.0471333 24.2880283,22.6844708 C24.2880283,22.4106927 24.1706948,22.3715816 24.3662506,22.0978035 C24.2489171,22.0586923 24.1315836,22.3324704 23.975139,22.4106927 C23.9360279,22.4889151 24.2098059,22.4106927 24.1706948,22.4498039 C24.1315836,22.5671374 23.975139,22.6453597 23.8969167,22.7626932 C23.8578055,22.8409155 24.0924725,22.7626932 24.0533613,22.8409155 C23.1929159,23.7795832 22.2933593,24.6791398 21.5502473,25.6178076 C21.3938027,25.3831406 21.2764692,25.0311402 21.0809134,24.8355845 C21.6675808,24.0924725 22.3324704,23.3884717 23.0755824,22.6062485 C23.1538047,22.5280262 23.2711382,22.4106927 23.3493605,22.5280262 C23.5449163,22.2542481 23.975139,21.6675808 24.3271394,21.7066919 L24.3271394,21.7066919 Z M20.6115795,25.8915857 C20.728913,26.2044749 20.6115795,26.5173642 20.728913,26.8302534 C19.5946895,28.5902555 18.734244,30.3502575 18.1866878,32.1102596 C18.1475767,32.1884819 18.1084655,32.2275931 18.0302432,32.3058154 C18.0302432,32.3840377 18.0693544,32.5013712 18.0302432,32.5795935 C17.7173539,33.5182612 17.482687,34.4960401 17.3653535,35.4347079 C17.2480201,35.9040418 17.2089089,36.4124868 17.1697978,36.8818207 C17.0524643,37.3120434 17.1306866,37.8987108 16.974242,38.2116 C17.1306866,38.5244893 16.974242,38.954712 17.0133531,39.3458236 C16.0355742,39.6196017 16.1529077,40.9884921 17.0915754,41.2231591 C17.1306866,41.8489376 17.3262424,42.5138272 17.2871312,43.1396058 C17.0524643,43.4133839 16.8177973,43.4133839 16.5831304,43.2569392 C16.2702412,42.6311607 16.3484635,42.0053822 16.23113,41.3404925 L16.1137965,39.463157 C16.1137965,38.2116 16.1529077,36.960043 16.4266858,35.708486 C16.4657969,35.5911525 16.5049081,35.7867083 16.5440193,35.708486 C16.5049081,35.5129302 16.7004639,35.3955967 16.7786862,35.3173744 C17.0524643,34.3395955 17.3262424,33.3618166 17.4044647,32.4231488 C17.3653535,32.3449265 17.3262424,32.2275931 17.2089089,32.1493707 C17.8737986,30.0764794 18.8515775,28.0035881 20.2595791,25.969808 C20.4160238,25.8915857 20.4942461,25.9306968 20.6115795,25.8915857 Z M46.7378322,17.2871312 C46.5031652,17.482687 46.2684983,17.7564651 46.0729425,17.8737986 C43.7653843,17.2480201 41.457826,16.8177973 39.1111566,16.8569085 C39.0720455,16.5831304 39.0329343,16.23113 39.1502678,16.0355742 C41.692493,15.9964631 44.195607,16.4266858 46.7378322,17.2871312 Z M48.5760565,18.0693544 C49.5147243,18.3822436 50.4142809,18.8515775 51.3138375,19.5164672 C51.3920598,19.6729118 51.3529486,19.8684676 51.2747263,20.0249122 C51.1573929,20.1422457 51.0400594,20.1422457 50.8836148,20.1813568 C50.1013916,19.7902453 49.3582797,19.3209114 48.5760565,18.968911 C48.5760565,18.6560217 48.6542788,18.3431325 48.5760565,18.0693544 L48.5760565,18.0693544 Z M28.5511443,58.3147345 C28.5120332,58.5885126 28.472922,58.9014019 28.3555886,59.17518 C27.6906989,58.7840684 27.0258092,58.5102903 26.4000307,57.923623 C26.2435861,57.6107337 26.5955865,57.2196221 26.9084758,57.2978445 C27.4560319,57.688956 28.0035881,58.0018453 28.5511443,58.3147345 Z M37.703155,61.6000717 C37.5858215,61.6000717 37.4293769,61.7565163 37.3902657,61.8738498 C34.6133736,61.6391828 31.8364815,60.935182 29.0987005,59.5662915 C29.0204782,59.2925134 29.1769228,59.0187353 29.2942563,58.7449572 C32.0320373,60.0356254 34.7698182,60.7787374 37.5075992,61.0525155 C37.6249327,61.2089601 37.703155,61.3654047 37.703155,61.6000717 Z M60.9742932,46.8551656 C60.7396262,46.698721 60.4658481,46.5813875 60.2311812,46.5813875 C60.8960709,44.6258297 61.3654047,42.709383 61.5218494,40.7538252 C61.6000717,39.7760463 61.6000717,38.7982674 61.6000717,37.8204885 C61.5609605,36.8427095 61.3654047,35.8649306 61.3262936,34.8871517 C61.3654047,34.8480406 61.3654047,34.8089294 61.4045159,34.7698182 C61.6000717,34.5742625 61.7565163,34.6133736 61.9520721,34.6524848 C62.3822948,35.1609298 62.2258502,35.6693748 62.3431837,36.216931 C62.421406,36.7253761 62.4605171,37.2338211 62.4605171,37.7422661 C62.5387394,38.7591562 62.4996283,39.7760463 62.421406,40.7929364 C62.186739,42.8267165 61.7565163,44.8604966 60.9742932,46.8551656 L60.9742932,46.8551656 Z M47.4809441,59.5271804 C47.5982776,59.8009585 47.5982776,60.1138477 47.5200553,60.3876258 C44.5867185,61.5609605 41.6533818,62.0302944 38.7591562,61.8738498 C38.5636004,61.6000717 38.5244893,61.3262936 38.446267,61.0916266 C41.457826,61.1307378 44.4693851,60.7396262 47.4809441,59.5271804 Z M60.6222928,47.7547222 C59.4489581,50.6098367 57.4542891,53.699618 54.3645077,56.3591767 C54.2862854,56.3591767 54.3253965,56.0462874 54.2471742,55.928954 C54.2080631,55.8116205 54.0907296,55.7333982 53.9733961,55.6160647 C55.7725093,54.0125073 57.180511,52.2916164 58.2756234,50.5707255 C58.3147345,50.453392 58.4711792,50.4925032 58.5102903,50.3360586 C58.8622907,49.3582797 59.6054027,48.2631673 59.9574031,47.207166 C59.9965143,47.1680549 59.9965143,47.1680549 59.9965143,47.1289437 C59.9965143,47.0898326 60.0356254,47.1289437 60.0356254,47.1289437 C60.2311812,47.207166 60.4658481,47.5591665 60.6222928,47.7547222 Z M52.4871722,56.7502883 C52.6045057,57.0240664 52.9173949,57.2587333 53.191173,57.2587333 C51.8222825,58.3929568 50.2578363,59.2142911 48.8107235,59.8791808 C48.8107235,59.5662915 49.0845016,59.2925134 49.0453904,58.9796242 C49.0062792,58.940513 49.0453904,58.940513 49.0062792,58.9014019 C50.1796139,58.2365122 51.3138375,57.6498449 52.4871722,56.7502883 Z M76.4623112,36.0604864 C76.9707562,36.1778199 77.4792013,36.2560422 77.9876463,36.7253761 C78.0267575,36.8818207 78.0267575,37.0773765 78.1832021,37.2729323 C78.2614244,38.5244893 78.2223132,39.7369351 78.2223132,40.9884921 C78.1832021,41.1449368 78.0658686,41.1840479 78.0658686,41.3796037 C77.9876463,41.4969372 78.2614244,41.4969372 78.1440909,41.6142706 C78.0267575,44.5476074 77.4792013,47.441833 76.6187558,50.3751697 C76.1103108,50.1796139 75.6409769,49.9840582 75.171643,49.8276135 C76.3449777,45.2124971 76.8925339,40.6756029 76.4623112,36.0604864 L76.4623112,36.0604864 Z M25.4645671,14.236461 C25.5068824,14.236461 25.6338283,14.3537945 25.591513,14.4320168 C25.5491977,14.471128 25.4645671,14.3537945 25.4222518,14.3146833 C25.4645671,14.2755722 25.4645671,14.2755722 25.4645671,14.236461 Z M51.0400594,73.8027525 C50.9618371,73.8809749 51.1573929,73.5680856 51.0791705,73.4507521 C50.7662813,73.2943075 50.4925032,73.8027525 50.3751697,74.0374195 C44.0000512,76.0320885 37.6249327,76.2667554 31.3280365,74.9369761 C25.0702514,73.5289744 18.6560217,70.5565265 12.6720147,64.416075 C8.25245405,59.7227362 5.71022887,54.7947304 4.22400492,50.0622805 C4.22400492,49.944947 4.18489376,49.8667247 4.30222723,49.7493912 C4.26311607,49.6320578 4.18489376,49.8667247 4.10667145,49.7493912 C4.1457826,49.6711689 4.22400492,49.5929466 4.34133839,49.4756131 C4.65422764,49.4756131 4.88889458,49.7885024 5.12356152,49.8667247 C6.492452,53.9733961 8.48712099,58.0800676 11.9680139,62.2258502 C12.0462362,62.6560729 12.0071251,63.0862956 12.0853474,63.5165184 C12.3200143,63.5556295 12.5155701,63.2036291 12.8284594,63.2036291 C13.0240152,63.3209626 13.2586821,63.6338518 13.3760156,63.7511853 C19.2818002,69.7743034 25.2658072,72.4729732 31.2889253,73.920086 C34.3004844,74.5849757 37.3120434,74.8978649 40.3236025,74.7805315 C41.8489376,74.7805315 43.3351615,74.5849757 44.8604966,74.3503087 C45.6036086,74.2329753 46.3858318,74.0765306 47.1680549,73.920086 C47.9111669,73.8027525 48.69339,73.411641 49.436502,73.4507521 C49.5929466,73.4898633 49.5538354,73.6854191 49.6711689,73.8027525 C49.8667247,73.5680856 49.9840582,73.3725298 50.1405028,73.1378629 C53.6213957,71.9645282 57.1022887,70.2827485 60.6222928,67.7405233 C60.7005151,67.8187456 60.7396262,67.8969679 60.8178485,67.9360791 C60.8960709,68.0534125 60.6614039,67.8969679 60.5831816,67.9751902 C60.6222928,68.0925237 60.8178485,68.2489683 60.8960709,68.3663018 C60.8178485,68.4054129 60.7396262,68.3271906 60.6614039,68.3663018 C60.5831816,68.4445241 60.7787374,68.5618576 60.8569597,68.679191 C57.6107337,71.0649716 54.3253965,72.7467513 51.0400594,73.8027525 Z M75.6800881,36.0213752 C76.1103108,40.5191583 75.6409769,44.9778301 74.3894199,49.436502 C74.3503087,49.5929466 74.2720864,49.4756131 74.1938641,49.5929466 C74.154753,49.7102801 74.3111976,49.7102801 74.3111976,49.7885024 C72.7858625,54.7165081 70.2045261,59.7227362 65.7067431,64.4551861 C64.2596303,65.9022989 62.5387394,67.5058563 61.0134043,68.5227464 C60.8569597,68.4054129 61.0525155,68.4836352 61.0525155,68.4054129 C61.0525155,68.2489683 60.8178485,68.0925237 60.9742932,68.0143014 C60.8569597,67.8578567 60.8569597,67.7405233 60.7787374,67.5840786 C61.0525155,67.3494117 61.3654047,67.1538559 61.6391828,66.8800778 C61.678294,66.919189 61.5609605,66.9974113 61.5218494,67.0365225 C61.7565163,67.2320782 61.8347386,66.8800778 61.9129609,66.6454109 C62.3431837,66.2934105 62.7734064,65.9414101 63.1645179,65.5894097 C63.2427403,65.7458543 63.2818514,65.8240766 63.438296,65.8631878 C63.5165184,65.8631878 63.6338518,65.7458543 63.7120741,65.7458543 C63.8294076,65.5111873 63.7120741,65.2765204 63.7511853,65.0418535 C73.1378629,55.7333982 75.4454211,45.6818309 74.7805315,35.9040418 C75.0151984,35.9431529 75.2107542,36.0995976 75.4454211,35.9431529 C75.2889765,36.1387087 75.5627546,36.0604864 75.6800881,36.0213752 L75.6800881,36.0213752 Z M71.1823051,55.3422866 C71.2214162,55.3031755 71.2605274,55.4205089 71.2996385,55.3813978 C71.3387497,55.2640643 71.416972,55.185842 71.3387497,55.0685085 C71.2996385,55.185842 71.1040827,55.2640643 71.1823051,55.3422866 L71.1823051,55.3422866 Z M71.3778608,56.5547325 C71.3387497,56.4765102 71.4951943,56.3982878 71.416972,56.3200655 C71.3387497,56.3982878 71.2996385,56.3591767 71.2214162,56.437399 C71.2996385,56.5547325 71.2996385,56.5938436 71.3778608,56.5547325 L71.3778608,56.5547325 Z M61.8738498,67.1147448 C61.7956275,67.2320782 61.5609605,67.3494117 61.5609605,67.4667452 C61.7565163,67.5058563 61.8738498,67.2711894 61.8738498,67.1147448 Z M61.6007134,67.8578567 C61.6853971,67.7796344 61.7700808,67.7405233 61.7700808,67.6231898 C61.6853971,67.7405233 61.5583715,67.7796344 61.6007134,67.8578567 Z M45.9164979,0.782223132 C47.0507214,0.899556602 48.184945,1.21244586 49.2800573,1.48622395 C49.436502,1.52533511 49.3191685,1.60355742 49.3582797,1.72089089 C49.4756131,1.68177973 49.5538354,1.52533511 49.6711689,1.60355742 C49.7885024,1.64266858 49.944947,1.64266858 50.0622805,1.7991132 C50.3360586,1.72089089 50.8053925,1.95555783 51.1573929,2.03378014 C51.5485044,2.15111361 51.9005048,2.26844708 52.2916164,2.42489171 C53.0347284,2.65955865 53.7778404,2.9724479 54.5209523,3.28533716 C56.0071763,3.95022682 57.4934002,4.65422764 58.9796242,5.55378424 C63.3209626,7.97867595 68.2098571,12.4373478 71.3778608,17.0524643 C74.5067534,21.6284696 76.3058666,26.3218084 77.3227566,30.7804803 C77.3227566,30.8587026 77.2836455,30.9369249 77.166312,31.0151472 C77.5183124,31.0933695 77.4400901,31.7973703 77.5574236,32.1884819 L77.2054232,32.5404823 C77.4400901,32.6578158 77.5574236,32.46226 77.5574236,32.2667042 C77.7138682,33.2835943 77.9876463,34.4178178 77.9485351,35.4738191 C77.400979,35.3173744 76.8925339,34.9262629 76.3449777,34.8480406 C75.40631,27.964477 72.9814183,20.8071353 66.7627444,13.9235718 C63.3209626,10.1297896 59.3707358,7.43111976 55.6551759,5.5928954 C53.7778404,4.69333879 51.9005048,3.95022682 49.9840582,3.40267063 C49.0453904,3.08978137 48.0676115,2.89422559 47.1289437,2.65955865 C46.6596099,2.58133634 46.190276,2.46400287 45.6818309,2.38578055 C45.447164,2.38578055 45.2124971,2.26844708 44.9778301,2.30755824 C44.8604966,2.26844708 44.7431632,2.22933593 44.6258297,2.26844708 C44.5476074,2.19022477 44.2738293,2.26844708 44.3911628,2.15111361 C44.4693851,2.19022477 44.4302739,2.0728913 44.4693851,2.03378014 C44.6649409,1.64266858 45.2516082,1.48622395 45.4080528,1.13422354 C45.5253863,0.977778916 45.6427198,1.13422354 45.7600532,1.01689007 C45.8773867,0.899556602 46.0729425,0.821334289 45.9164979,0.782223132 Z M49.3796128,1.87852057 L49.2907239,1.76000205 C49.2462795,1.81926131 49.201835,1.87852057 49.201835,1.93777983 C49.2907239,1.87852057 49.3351684,1.99703909 49.3796128,1.87852057 Z M76.4623112,31.953815 C76.5014224,31.8755926 76.5014224,31.7582592 76.4623112,31.6800369 C76.3840889,31.7973703 76.1885331,31.8755926 76.1885331,31.9929261 C76.2667554,31.953815 76.3449777,32.0320373 76.4623112,31.953815 Z M76.8143116,32.1493707 C76.8534228,32.0711484 76.8143116,31.9929261 76.8143116,31.9147038 C76.7360893,32.0320373 76.5405335,32.1102596 76.5405335,32.2275931 C76.6187558,32.2275931 76.6969781,32.2275931 76.8143116,32.1493707 Z M77.166312,32.3449265 C77.2445343,32.2275931 77.2445343,32.1493707 77.166312,32.0320373 C77.0880897,32.1493707 76.8925339,32.2667042 76.8534228,32.3840377 C76.9707562,32.3449265 77.0489785,32.3840377 77.166312,32.3449265 Z M25.7742522,2.54222518 C25.8915857,3.12889253 25.9306968,3.71555988 25.6178076,4.30222723 C22.6844708,5.51467308 19.7511341,7.04000819 16.7786862,9.26934412 C13.8062383,11.49868 11.0293462,14.3537945 8.99556602,17.1697978 C4.88889458,22.8800266 2.89422559,28.6293666 2.15111361,34.4178178 C1.40800164,40.206269 1.95555783,46.0338313 4.06756029,51.9005048 C5.08445036,54.8338416 6.60978547,57.7671783 8.64356561,60.7396262 C10.7555681,63.7120741 13.6889048,66.7627444 16.4657969,68.8356357 C16.23113,69.2267472 16.2702412,69.7743034 16.1920188,70.2436373 C16.1529077,70.3218596 15.9182407,70.4000819 15.9964631,70.4391931 C16.0746854,70.5565265 15.9573519,70.4783042 15.9182407,70.4000819 C15.8791296,70.4391931 15.8400184,70.3218596 15.8009073,70.3218596 C15.722685,70.2827485 15.6053515,70.2045261 15.5271292,70.1263038 C15.3315734,69.9698592 15.1360176,69.8525257 14.9404618,69.6569699 C14.5493503,69.3831918 14.1973499,69.0311914 13.8062383,68.7574133 C13.0631263,68.0925237 12.2026809,67.3103005 11.5377912,66.684522 C7.07911935,62.1085167 4.18489376,57.2196221 2.58133634,52.5262833 C2.89422559,52.2916164 2.9724479,52.0569495 2.9724479,51.8222825 C3.12889253,51.5485044 3.44178178,51.5093933 3.5200041,51.2356152 C3.28533716,50.9618371 3.28533716,50.6489478 3.32444831,50.3360586 C3.20711484,50.2578363 3.08978137,50.4925032 3.01155906,50.5707255 C3.05067022,50.3360586 3.36355947,50.2578363 3.28533716,49.944947 C2.81600328,50.453392 2.38578055,50.5707255 1.91644667,50.7271701 C1.64266858,49.944947 1.4471128,49.1236127 1.25155701,48.3413896 C1.25155701,48.2240561 1.48622395,48.2631673 1.48622395,48.1067226 L1.48622395,47.4027218 C1.56444626,47.0898326 1.76000205,46.7769433 1.48622395,46.5031652 C1.25155701,46.7769433 1.25155701,47.0507214 1.09511239,47.3244995 C0.743111976,46.3076094 0.625778506,45.0951636 0.508445036,44.0000512 C0.35200041,42.8658277 0.273778096,41.7316041 0.23466694,40.6364917 C0.156444626,38.4071558 0.23466694,36.1387087 0.586667349,33.9093728 C0.664889663,33.9093728 0.704000819,34.0267063 0.782223132,34.0267063 C0.860445446,33.8702616 0.664889663,33.9484839 0.586667349,33.8311505 C0.625778506,32.8142604 0.899556602,31.7973703 1.09511239,30.7804803 C1.99466899,30.1547018 2.0728913,29.3333675 1.64266858,28.6293666 C3.36355947,22.723582 6.41422969,16.6613527 12.1244586,11.1466796 C16.5831304,6.84445241 21.237358,4.22400492 25.7742522,2.54222518 L25.7742522,2.54222518 Z M24.2489171,3.75467104 C24.2098059,3.67644872 24.2880283,3.55911525 24.2098059,3.48089294 C24.1706948,3.5200041 24.1315836,3.55911525 24.0533613,3.59822641 C24.1315836,3.67644872 24.2098059,3.79378219 24.2489171,3.75467104 Z M24.5102311,3.44178178 C24.4622376,3.36355947 24.6062182,3.32444831 24.5102311,3.246226 L24.3662506,3.36355947 C24.4142441,3.40267063 24.4622376,3.5200041 24.5102311,3.44178178 Z M2.69866981,49.944947 C2.73778096,49.8276135 2.9724479,49.7493912 2.89422559,49.6320578 C2.77689212,49.6711689 2.65955865,49.7885024 2.58133634,49.8667247 C2.62044749,49.9058358 2.65955865,49.9058358 2.69866981,49.944947 Z M15.0969065,69.422303 C15.0577953,69.3440807 15.1360176,69.3049695 15.2142399,69.2267472 C14.9013507,69.0311914 14.1191275,68.5227464 13.9626829,67.9751902 C13.8844606,68.0534125 13.8062383,67.8969679 13.728016,68.0534125 C14.1973499,68.4836352 14.6666837,69.0703026 15.0969065,69.422303 L15.0969065,69.422303 Z M74.9369761,50.2187251 L74.9760872,50.1796139 C75.0934207,50.4142809 75.2889765,50.5316144 75.4454211,50.7271701 C75.2107542,50.8053925 75.0934207,50.5707255 74.9369761,50.688059 C74.8978649,51.2747263 75.6800881,51.6267267 76.1103108,51.8222825 C75.4845323,53.5822846 74.7805315,55.3422866 73.8418637,57.1022887 C73.6071968,56.7502883 73.7636414,56.0462874 73.2943075,56.0071763 C73.176974,56.2809544 73.2551964,56.5547325 73.3334187,56.8285106 C73.2551964,57.2587333 73.3725298,57.6498449 73.2943075,58.0800676 C72.9423071,58.1582899 72.6294178,58.432068 72.2774174,58.432068 C72.160084,58.7058461 72.3165286,59.0187353 72.2383063,59.3316246 C72.0818617,59.4880692 71.7689724,59.2925134 71.6907501,59.0969577 L71.4560831,59.3316246 C71.5343055,59.6445138 71.3387497,59.9574031 71.416972,60.2702924 C71.5734166,60.4658481 71.7689724,60.426737 71.925417,60.5440705 C70.165415,63.2818514 67.7014121,66.176077 64.8071865,68.7183022 C61.0525155,71.9645282 57.1413998,74.154753 53.3476176,75.6018658 C53.2302842,75.5236434 53.3085065,75.3280877 53.1520618,75.2889765 C52.8782838,75.2498653 52.682728,75.6409769 52.5653945,75.8365327 C52.1351718,76.0711996 51.6658379,76.1885331 51.2356152,76.3058666 C51.2356152,75.6800881 52.0569495,75.171643 52.0960606,74.5458645 C51.6658379,74.3503087 51.3138375,75.2498653 51.1182817,75.4454211 C50.8836148,75.171643 51.1573929,74.9369761 51.196504,74.7023091 C54.4036189,73.5680856 57.6498449,72.0818617 60.8960709,69.7351923 C61.0134043,69.8525257 61.169849,70.0480815 61.2480713,70.0871927 C61.2089601,69.930748 61.169849,69.6960811 61.0525155,69.6569699 C61.0916266,69.5787476 61.1307378,69.6569699 61.169849,69.6960811 C61.2480713,69.6569699 61.0916266,69.5787476 61.2089601,69.5005253 C61.9911832,68.9529691 62.7734064,68.2489683 63.6338518,67.5840786 C67.0365225,64.6507419 69.5396365,61.4045159 71.5734166,58.1582899 C72.9031959,55.4596201 74.1938641,52.8391726 74.9369761,50.2187251 L74.9369761,50.2187251 Z M71.5343055,58.940513 C71.4951943,58.8231796 71.6125278,58.7449572 71.6125278,58.6276238 C71.5343055,58.7058461 71.4560831,58.7840684 71.3387497,58.8622907 C71.416972,58.940513 71.4560831,58.9796242 71.5343055,58.940513 Z M61.2480713,70.3609708 C61.169849,70.2436373 61.169849,70.0871927 61.0916266,69.9698592 C61.0134043,69.9698592 60.8960709,69.930748 60.8178485,69.9698592 C60.935182,70.0871927 61.0916266,70.3218596 61.2480713,70.3609708 Z M61.2480713,70.7129712 C61.2089601,70.67386 61.169849,70.5174154 61.1307378,70.4000819 C61.0525155,70.4000819 60.9742932,70.3609708 60.8960709,70.4000819 C61.0134043,70.4783042 61.1307378,70.7911935 61.2480713,70.7129712 Z M61.0134043,70.9476381 C61.0525155,70.8694158 61.2089601,70.8303046 61.169849,70.7520823 C61.0916266,70.7911935 61.0134043,70.7520823 60.935182,70.7520823 C60.9742932,70.8303046 60.935182,70.8694158 61.0134043,70.9476381 Z" id="形状" fill-rule="nonzero"></path>
                <text id="走水" transform="translate(39.000000, 37.000000) rotate(-40.000000) translate(-39.000000, -37.000000) " font-family="MFJianHei_Noncommercial-Regular, MF JianHei (Noncommercial)" font-size="18" font-weight="normal">
                    <tspan x="20" y="44">走水</tspan>
                </text>
            </g>
        </g>
    </g>
</svg>