<?xml version="1.0" encoding="UTF-8"?>
<svg width="125px" height="42px" viewBox="0 0 125 42" version="1.1" xmlns="http://www.w3.org/2000/svg" xmlns:xlink="http://www.w3.org/1999/xlink">
    <!-- Generator: Sketch 61.2 (89653) - https://sketch.com -->
    <title>后台备份</title>
    <desc>Created with Sketch.</desc>
    <defs>
        <path d="M4.92873355,0.0640756579 L4.89075493,0.0661973684 C3.61136349,0.131546053 2.31775658,0.330138158 1.04239638,0.65709375 L1.04239638,0.65709375 C0.951162829,0.680644737 0.867355263,0.726473684 0.799036184,0.791398026 L0.799036184,0.791398026 C0.563738487,1.01545066 0.32653125,1.25393092 0.0886875,1.50556579 L0.0886875,1.50556579 C2.77555756e-17,1.59934539 0.0780789474,1.7510477 0.206442434,1.73534704 L0.206442434,1.73534704 C1.18412664,1.61653125 2.18217928,1.55669901 3.18426316,1.55648684 L3.18426316,1.55648684 C4.62617763,1.55648684 6.05557401,1.68018257 7.43320066,1.92439145 L7.43320066,1.92439145 C8.30946711,2.07948849 9.15136184,2.28041447 9.93575822,2.52101645 L9.93575822,2.52101645 C9.97819243,2.53204934 10.0257187,2.55857072 10.0649704,2.59570066 L10.0649704,2.59570066 C10.7997187,3.32387171 11.4729375,4.09914474 12.0755033,4.91048684 L12.0755033,4.91048684 C12.150824,5.01232895 12.3129227,4.96904605 12.3248043,4.84280428 L12.3248043,4.84280428 C12.4221908,3.82332237 12.4067023,2.85858059 12.2787632,1.99186184 L12.2787632,1.99186184 C12.2231743,1.6125 11.9711151,1.2914852 11.6182747,1.14105592 L11.6182747,1.14105592 C9.93575822,0.423705592 7.91673849,0.0428585526 5.79905921,0.0428585526 L5.79905921,0.0428585526 C5.51050658,0.0428585526 5.22025658,0.0498601974 4.92873355,0.0640756579" id="path-1"></path>
        <linearGradient x1="80.6870762%" y1="40.5188925%" x2="-31.3239524%" y2="82.928032%" id="linearGradient-3">
            <stop stop-color="#00A0EF" offset="0%"></stop>
            <stop stop-color="#006EBC" offset="100%"></stop>
        </linearGradient>
        <path d="M2.38055921,0.280490132 L0.280702303,2.53247368 C0.0246118421,2.8072352 -0.0154884868,3.21927138 0.182679276,3.53816447 L0.182679276,3.53816447 L1.58343257,5.79120888 C1.78011513,6.10734375 2.16287171,6.25416612 2.52037993,6.15083882 L2.52037993,6.15083882 L5.29494079,5.34734704 C5.62041118,5.25314309 5.85613322,4.97074342 5.89050493,4.63381579 L5.89050493,4.63381579 L6.14150329,2.18557401 C6.175875,1.85076809 6.0050773,1.52869243 5.70888651,1.3691398 L5.70888651,1.3691398 L3.38264309,0.115633224 C3.25831086,0.0485871711 3.12294572,0.016125 2.98864145,0.016125 L2.98864145,0.016125 C2.76374013,0.016125 2.54180921,0.107358553 2.38055921,0.280490132" id="path-4"></path>
        <linearGradient x1="194.582873%" y1="-81.222713%" x2="-26.6076303%" y2="131.315399%" id="linearGradient-6">
            <stop stop-color="#00A0EF" offset="0%"></stop>
            <stop stop-color="#006EBC" offset="100%"></stop>
        </linearGradient>
        <path d="M0.169100329,0.326955592 L0.331199013,2.5623898 C0.342019737,2.71218257 0.413097039,2.85136678 0.528305921,2.94748026 L0.528305921,2.94748026 L2.39541118,4.5084227 C2.53395888,4.62426809 2.74485691,4.57843914 2.82293586,4.41549178 L2.82293586,4.41549178 L3.24176151,3.54007401 C3.31241447,3.39219079 3.31496053,3.22012007 3.24642928,3.07138816 L3.24642928,3.07138816 C2.95172368,2.43084375 2.69032895,1.93966776 2.3124523,1.28469572 L2.3124523,1.28469572 C2.09158224,0.902151316 1.95218586,0.666004934 1.74616776,0.349233553 L1.74616776,0.349233553 C1.65260033,0.204957237 1.49601809,0.112026316 1.32479605,0.0984473684 L1.32479605,0.0984473684 L0.466988487,0.0307648026 C0.4595625,0.0301282895 0.452136513,0.0299161184 0.444922697,0.0299161184 L0.444922697,0.0299161184 C0.285794408,0.0299161184 0.15721875,0.16528125 0.169100329,0.326955592" id="path-7"></path>
        <linearGradient x1="112.893125%" y1="-41.3045205%" x2="-96.5458457%" y2="247.233729%" id="linearGradient-9">
            <stop stop-color="#00A0EF" offset="0%"></stop>
            <stop stop-color="#006EBC" offset="100%"></stop>
        </linearGradient>
        <path d="M8.85368586,0.204532895 C8.46774671,1.11092763 8.02091447,2.00522862 7.51997862,2.87300822 L7.51997862,2.87300822 C6.79923355,4.12205921 5.97749507,5.29812336 5.07725329,6.36895066 L5.07725329,6.36895066 C4.50481579,7.05023191 3.9103125,7.67910691 3.30944408,8.2383898 L3.30944408,8.2383898 C3.27867928,8.26957895 3.23200164,8.29737336 3.18044408,8.31264967 L3.18044408,8.31264967 C2.18239145,8.5850773 1.17436678,8.78027467 0.170373355,8.89675658 L0.170373355,8.89675658 C0.0445559211,8.91139638 0.00106085526,9.07328289 0.104600329,9.14690625 L0.104600329,9.14690625 C0.938856908,9.74077303 1.78202467,10.2094589 2.59654934,10.5321711 L2.59654934,10.5321711 C2.72342763,10.5824556 2.85645888,10.6074918 2.98906579,10.6085526 L2.98906579,10.6085526 L3.00667599,10.6085526 C3.24027632,10.6066431 3.47111842,10.5298372 3.66376974,10.3853487 L3.66376974,10.3853487 C5.32528125,9.13735855 6.82766447,7.29550164 7.94028947,5.13008388 L7.94028947,5.13008388 L7.9576875,5.09613651 C8.54052138,3.95529276 9.01514803,2.73573355 9.36968586,1.46758717 L9.36968586,1.46758717 C9.39514638,1.37699013 9.39726809,1.28151316 9.3752023,1.18985526 L9.3752023,1.18985526 C9.29882072,0.873932566 9.21076974,0.549098684 9.11168586,0.2176875 L9.11168586,0.2176875 C9.09237829,0.152975329 9.03678947,0.119876645 8.98098849,0.119876645 L8.98098849,0.119876645 C8.92964309,0.119876645 8.87787336,0.147671053 8.85368586,0.204532895" id="path-10"></path>
        <linearGradient x1="137.890913%" y1="-29.8782071%" x2="20.5226137%" y2="95.0969006%" id="linearGradient-12">
            <stop stop-color="#00A0EF" offset="0%"></stop>
            <stop stop-color="#006EBC" offset="100%"></stop>
        </linearGradient>
        <path d="M2.86791612,0.101629934 C1.935,0.524274671 1.10541118,1.01714803 0.416916118,1.55924507 L0.416916118,1.55924507 C0.151702303,1.76780921 0.00212171053,2.08712664 0,2.4202352 L0,2.4202352 L0,2.43551151 C0.000212171053,2.47709704 0.00297039474,2.51889474 0.00785032895,2.56048026 L0.00785032895,2.56048026 C0.251847039,4.62278289 1.08780099,6.84591118 2.39901809,8.89484704 L2.39901809,8.89484704 L2.41981086,8.9266727 C3.11254934,10.0040773 3.92813487,11.0280148 4.84577467,11.9719638 L4.84577467,11.9719638 C4.9115477,12.0396464 4.99280921,12.0892944 5.08319408,12.1162401 L5.08319408,12.1162401 C5.39466118,12.2091711 5.71970724,12.2963734 6.05621053,12.3776349 L6.05621053,12.3776349 C6.18181579,12.4077632 6.27432237,12.2645477 6.19709211,12.1612204 L6.19709211,12.1612204 C5.60768092,11.3717319 5.05964309,10.5359901 4.56104112,9.66651316 L4.56104112,9.66651316 C3.8443273,8.41534046 3.24091283,7.11345888 2.76798355,5.7969375 L2.76798355,5.7969375 C2.46691283,4.95949836 2.22227961,4.12927303 2.04108553,3.32917599 L2.04108553,3.32917599 C2.02962829,3.28652961 2.02899178,3.23221382 2.04193421,3.17980757 L2.04193421,3.17980757 C2.30820888,2.18026974 2.64619737,1.21064803 3.05059539,0.284521382 L3.05059539,0.284521382 C3.09281743,0.187559211 3.01834539,0.0888996711 2.9252023,0.0888996711 L2.9252023,0.0888996711 C2.90674342,0.0888996711 2.88722368,0.0929309211 2.86791612,0.101629934" id="path-13"></path>
        <linearGradient x1="106.278279%" y1="-48.1696579%" x2="49.3492479%" y2="58.4636396%" id="linearGradient-15">
            <stop stop-color="#00A0EF" offset="0%"></stop>
            <stop stop-color="#006EBC" offset="100%"></stop>
        </linearGradient>
        <polygon id="path-16" points="0.162025441 0.142366776 9.51569396 0.142366776 9.51569396 10.6233218 0.162025441 10.6233218"></polygon>
    </defs>
    <g id="页面-1" stroke="none" stroke-width="1" fill="none" fill-rule="evenodd">
        <g id="后台备份">
            <rect id="矩形复制-65备份-15" fill="#FFFFFF" x="0" y="0" width="125" height="42"></rect>
            <g id="编组备份-27" transform="translate(89.810442, 13.068877)"></g>
            <g id="编组备份-10" transform="translate(20.000000, 9.000000)">
                <g id="编组" transform="translate(2.121711, 5.161910)">
                    <path d="M14.6951793,0.0599807566 C14.5693618,0.0300646382 14.4772796,0.173916612 14.5551464,0.277031743 C15.1479523,1.06376201 15.6998092,1.8971699 16.2024424,2.76431299 C16.9248849,4.01209095 17.5342401,5.31121431 18.0131102,6.62561398 C18.318,7.46156793 18.5662401,8.2907324 18.7510411,9.09019293 C18.7629227,9.13241497 18.7637714,9.18694293 18.7512533,9.23934918 C18.489222,10.24016 18.1556891,11.2112669 17.7555345,12.139091 C17.70525,12.255785 17.8234293,12.3743887 17.9388503,12.3213459 C18.8700691,11.8946699 19.697324,11.3975531 20.383273,10.8526979 C20.6845559,10.6133689 20.834773,10.2312488 20.7878832,9.84934095 C20.5343388,7.78809918 19.6884128,5.56921431 18.3680724,3.52600707 L18.3470674,3.49439359 C17.649449,2.41995937 16.8291957,1.39984095 15.9071003,0.459923191 C15.8411151,0.392664967 15.7596414,0.343229112 15.6690444,0.31670773 C15.3573651,0.225474178 15.0318947,0.139544901 14.6951793,0.0599807566" id="Fill-1" fill="#00B36E"></path>
                    <path d="M12.4381673,14.764538 C12.5270669,14.6707584 12.448988,14.5190561 12.3206245,14.5345446 C11.3427281,14.6527238 10.3446755,14.7119196 9.34280378,14.7114952 C7.90067714,14.7104344 6.47128076,14.58589 5.09407845,14.3406202 C4.21781201,14.1850988 3.37591727,13.9835363 2.59173306,13.74251 C2.54929885,13.7314771 2.50177253,13.7049558 2.46273306,13.6676137 C1.72840905,12.9390183 1.05582681,12.1631087 0.453685362,11.3515544 C0.378152467,11.2497123 0.216265954,11.2929952 0.204172204,11.4190248 C0.106149178,12.4385067 0.121001151,13.4034607 0.248303783,14.2701794 C0.303892599,14.6495413 0.555739638,14.9707683 0.908367928,15.1214097 C2.8193926,15.9376317 5.16536793,16.3197518 7.59727253,16.2026334 L7.63525115,16.2007238 C8.91443043,16.1360117 10.2084617,15.9382683 11.484034,15.6123735 C11.5754798,15.5890347 11.6590752,15.5432058 11.7271821,15.4780692 C11.9629041,15.254441 12.2003235,15.0159607 12.4381673,14.764538" id="Fill-3" fill="#EA3970"></path>
                </g>
                <g id="编组" transform="translate(8.274671, 2.403686)">
                    <mask id="mask-2" fill="white">
                        <use xlink:href="#path-1"></use>
                    </mask>
                    <g id="Clip-6"></g>
                    <path d="M4.92873355,0.0640756579 L4.89075493,0.0661973684 C3.61136349,0.131546053 2.31775658,0.330138158 1.04239638,0.65709375 L1.04239638,0.65709375 C0.951162829,0.680644737 0.867355263,0.726473684 0.799036184,0.791398026 L0.799036184,0.791398026 C0.563738487,1.01545066 0.32653125,1.25393092 0.0886875,1.50556579 L0.0886875,1.50556579 C2.77555756e-17,1.59934539 0.0780789474,1.7510477 0.206442434,1.73534704 L0.206442434,1.73534704 C1.18412664,1.61653125 2.18217928,1.55669901 3.18426316,1.55648684 L3.18426316,1.55648684 C4.62617763,1.55648684 6.05557401,1.68018257 7.43320066,1.92439145 L7.43320066,1.92439145 C8.30946711,2.07948849 9.15136184,2.28041447 9.93575822,2.52101645 L9.93575822,2.52101645 C9.97819243,2.53204934 10.0257187,2.55857072 10.0649704,2.59570066 L10.0649704,2.59570066 C10.7997187,3.32387171 11.4729375,4.09914474 12.0755033,4.91048684 L12.0755033,4.91048684 C12.150824,5.01232895 12.3129227,4.96904605 12.3248043,4.84280428 L12.3248043,4.84280428 C12.4221908,3.82332237 12.4067023,2.85858059 12.2787632,1.99186184 L12.2787632,1.99186184 C12.2231743,1.6125 11.9711151,1.2914852 11.6182747,1.14105592 L11.6182747,1.14105592 C9.93575822,0.423705592 7.91673849,0.0428585526 5.79905921,0.0428585526 L5.79905921,0.0428585526 C5.51050658,0.0428585526 5.22025658,0.0498601974 4.92873355,0.0640756579" id="Fill-5" fill="url(#linearGradient-3)" mask="url(#mask-2)"></path>
                </g>
                <g id="编组" transform="translate(7.850329, 8.768817)">
                    <mask id="mask-5" fill="white">
                        <use xlink:href="#path-4"></use>
                    </mask>
                    <g id="Clip-8"></g>
                    <path d="M2.38055921,0.280490132 L0.280702303,2.53247368 C0.0246118421,2.8072352 -0.0154884868,3.21927138 0.182679276,3.53816447 L0.182679276,3.53816447 L1.58343257,5.79120888 C1.78011513,6.10734375 2.16287171,6.25416612 2.52037993,6.15083882 L2.52037993,6.15083882 L5.29494079,5.34734704 C5.62041118,5.25314309 5.85613322,4.97074342 5.89050493,4.63381579 L5.89050493,4.63381579 L6.14150329,2.18557401 C6.175875,1.85076809 6.0050773,1.52869243 5.70888651,1.3691398 L5.70888651,1.3691398 L3.38264309,0.115633224 C3.25831086,0.0485871711 3.12294572,0.016125 2.98864145,0.016125 L2.98864145,0.016125 C2.76374013,0.016125 2.54180921,0.107358553 2.38055921,0.280490132" id="Fill-7" fill="url(#linearGradient-6)" mask="url(#mask-5)"></path>
                </g>
                <g id="编组" transform="translate(15.276316, 6.859278)">
                    <mask id="mask-8" fill="white">
                        <use xlink:href="#path-7"></use>
                    </mask>
                    <g id="Clip-10"></g>
                    <path d="M0.169100329,0.326955592 L0.331199013,2.5623898 C0.342019737,2.71218257 0.413097039,2.85136678 0.528305921,2.94748026 L0.528305921,2.94748026 L2.39541118,4.5084227 C2.53395888,4.62426809 2.74485691,4.57843914 2.82293586,4.41549178 L2.82293586,4.41549178 L3.24176151,3.54007401 C3.31241447,3.39219079 3.31496053,3.22012007 3.24642928,3.07138816 L3.24642928,3.07138816 C2.95172368,2.43084375 2.69032895,1.93966776 2.3124523,1.28469572 L2.3124523,1.28469572 C2.09158224,0.902151316 1.95218586,0.666004934 1.74616776,0.349233553 L1.74616776,0.349233553 C1.65260033,0.204957237 1.49601809,0.112026316 1.32479605,0.0984473684 L1.32479605,0.0984473684 L0.466988487,0.0307648026 C0.4595625,0.0301282895 0.452136513,0.0299161184 0.444922697,0.0299161184 L0.444922697,0.0299161184 C0.285794408,0.0299161184 0.15721875,0.16528125 0.169100329,0.326955592" id="Fill-9" fill="url(#linearGradient-9)" mask="url(#mask-8)"></path>
                </g>
                <g id="编组" transform="translate(10.820724, 13.012238)">
                    <mask id="mask-11" fill="white">
                        <use xlink:href="#path-10"></use>
                    </mask>
                    <g id="Clip-12"></g>
                    <path d="M8.85368586,0.204532895 C8.46774671,1.11092763 8.02091447,2.00522862 7.51997862,2.87300822 L7.51997862,2.87300822 C6.79923355,4.12205921 5.97749507,5.29812336 5.07725329,6.36895066 L5.07725329,6.36895066 C4.50481579,7.05023191 3.9103125,7.67910691 3.30944408,8.2383898 L3.30944408,8.2383898 C3.27867928,8.26957895 3.23200164,8.29737336 3.18044408,8.31264967 L3.18044408,8.31264967 C2.18239145,8.5850773 1.17436678,8.78027467 0.170373355,8.89675658 L0.170373355,8.89675658 C0.0445559211,8.91139638 0.00106085526,9.07328289 0.104600329,9.14690625 L0.104600329,9.14690625 C0.938856908,9.74077303 1.78202467,10.2094589 2.59654934,10.5321711 L2.59654934,10.5321711 C2.72342763,10.5824556 2.85645888,10.6074918 2.98906579,10.6085526 L2.98906579,10.6085526 L3.00667599,10.6085526 C3.24027632,10.6066431 3.47111842,10.5298372 3.66376974,10.3853487 L3.66376974,10.3853487 C5.32528125,9.13735855 6.82766447,7.29550164 7.94028947,5.13008388 L7.94028947,5.13008388 L7.9576875,5.09613651 C8.54052138,3.95529276 9.01514803,2.73573355 9.36968586,1.46758717 L9.36968586,1.46758717 C9.39514638,1.37699013 9.39726809,1.28151316 9.3752023,1.18985526 L9.3752023,1.18985526 C9.29882072,0.873932566 9.21076974,0.549098684 9.11168586,0.2176875 L9.11168586,0.2176875 C9.09237829,0.152975329 9.03678947,0.119876645 8.98098849,0.119876645 L8.98098849,0.119876645 C8.92964309,0.119876645 8.87787336,0.147671053 8.85368586,0.204532895" id="Fill-11" fill="url(#linearGradient-12)" mask="url(#mask-11)"></path>
                </g>
                <g id="编组" transform="translate(0.000000, 6.222765)">
                    <mask id="mask-14" fill="white">
                        <use xlink:href="#path-13"></use>
                    </mask>
                    <g id="Clip-14"></g>
                    <path d="M2.86791612,0.101629934 C1.935,0.524274671 1.10541118,1.01714803 0.416916118,1.55924507 L0.416916118,1.55924507 C0.151702303,1.76780921 0.00212171053,2.08712664 0,2.4202352 L0,2.4202352 L0,2.43551151 C0.000212171053,2.47709704 0.00297039474,2.51889474 0.00785032895,2.56048026 L0.00785032895,2.56048026 C0.251847039,4.62278289 1.08780099,6.84591118 2.39901809,8.89484704 L2.39901809,8.89484704 L2.41981086,8.9266727 C3.11254934,10.0040773 3.92813487,11.0280148 4.84577467,11.9719638 L4.84577467,11.9719638 C4.9115477,12.0396464 4.99280921,12.0892944 5.08319408,12.1162401 L5.08319408,12.1162401 C5.39466118,12.2091711 5.71970724,12.2963734 6.05621053,12.3776349 L6.05621053,12.3776349 C6.18181579,12.4077632 6.27432237,12.2645477 6.19709211,12.1612204 L6.19709211,12.1612204 C5.60768092,11.3717319 5.05964309,10.5359901 4.56104112,9.66651316 L4.56104112,9.66651316 C3.8443273,8.41534046 3.24091283,7.11345888 2.76798355,5.7969375 L2.76798355,5.7969375 C2.46691283,4.95949836 2.22227961,4.12927303 2.04108553,3.32917599 L2.04108553,3.32917599 C2.02962829,3.28652961 2.02899178,3.23221382 2.04193421,3.17980757 L2.04193421,3.17980757 C2.30820888,2.18026974 2.64619737,1.21064803 3.05059539,0.284521382 L3.05059539,0.284521382 C3.09281743,0.187559211 3.01834539,0.0888996711 2.9252023,0.0888996711 L2.9252023,0.0888996711 C2.90674342,0.0888996711 2.88722368,0.0929309211 2.86791612,0.101629934" id="Fill-13" fill="url(#linearGradient-15)" mask="url(#mask-14)"></path>
                </g>
                <g id="编组" transform="translate(2.546053, 0.069804)">
                    <g>
                        <mask id="mask-17" fill="white">
                            <use xlink:href="#path-16"></use>
                        </mask>
                        <g id="Clip-16"></g>
                        <path d="M0.439215296,10.5254664 C0.476133059,10.6493743 0.646506414,10.657649 0.697215296,10.5386211 C1.08442747,9.63286283 1.53232056,8.73941053 2.03431727,7.87205526 C2.7567597,6.62406513 3.57998339,5.44884967 4.48149819,4.37929539 C5.05478438,3.69865066 5.65056069,3.07041217 6.25185345,2.51219013 C6.28261826,2.48100099 6.32929589,2.45320658 6.38106562,2.43793026 C7.3795426,2.16677566 8.38777944,1.97285132 9.39177286,1.85764243 C9.51780247,1.8432148 9.56129753,1.68154046 9.45797023,1.60791711 C8.62456234,1.0127773 7.78181891,0.542818421 6.96771859,0.219257566 C6.61148339,0.0775273026 6.20729753,0.134813487 5.90049819,0.364594737 C4.23728931,1.61046316 2.73236003,3.45041053 1.61697681,5.61455526 L1.59957878,5.64850263 C1.0152597,6.78828553 0.538935691,8.00763257 0.182912664,9.27493026 C0.157239967,9.36573947 0.155118257,9.46100428 0.177184046,9.55287434 C0.253141283,9.86879704 0.340767928,10.1938431 0.439215296,10.5254664" id="Fill-15" fill="#FABA35" mask="url(#mask-17)"></path>
                    </g>
                    <path d="M26.0110041,19.1326944 L25.1697459,19.1326944 L25.3706719,17.8407849 L26.2380271,17.8407849 C26.4612311,17.8407849 26.6305436,17.9014658 26.7287788,18.0162503 C26.8202245,18.1229724 26.8516258,18.2759477 26.8214975,18.4709329 C26.7561488,18.8916681 26.4603824,19.1326944 26.0110041,19.1326944 M26.3288363,17.3177832 L25.1483166,17.3177832 C25.0014942,17.3177832 24.8678265,17.4325678 24.8442755,17.5796023 L24.2890238,21.1705974 L24.8550962,21.1705974 L25.0895452,19.6556961 L25.9929696,19.6556961 C26.7175337,19.6556961 27.2757558,19.1901928 27.3831143,18.4978786 C27.4344597,18.1605266 27.366565,17.8700645 27.1840979,17.6576812 C26.9937804,17.435326 26.698014,17.3177832 26.3288363,17.3177832" id="Fill-17" fill="#2F3443"></path>
                    <path d="M29.8284281,19.8257724 L30.646984,18.2260026 L30.9601485,19.8257724 L29.8284281,19.8257724 Z M30.9996123,17.3179105 L30.547688,17.3179105 L28.5337604,21.1707247 L29.1467225,21.1707247 L29.5700038,20.3379533 L31.054989,20.3379533 L31.2213311,21.1707247 L31.8156222,21.1707247 L31.0136156,17.3851687 L30.9996123,17.3179105 Z" id="Fill-19" fill="#2F3443"></path>
                    <polygon id="Fill-21" fill="#2F3443" points="36.4603224 20.0715089 35.0814227 17.3644184 35.0574474 17.3177408 34.5592697 17.3177408 33.9637056 21.1707671 34.529778 21.1707671 34.9573026 18.4083 36.3340806 21.1238773 36.3576316 21.1707671 36.8564457 21.1707671 37.4517977 17.3177408 36.8863618 17.3177408"></polygon>
                    <path d="M41.9824559,19.1386988 L41.9665431,19.2422383 C41.8997092,19.6754916 41.8235398,20.1677285 41.5638424,20.4006923 C41.3762832,20.5668222 41.1443803,20.6476594 40.8554033,20.6476594 L40.1535414,20.6476594 L40.5882799,17.8408485 L41.3160266,17.8408485 C41.5996993,17.8408485 41.801474,17.9180788 41.931747,18.0776314 C42.1127289,18.3014719 42.0465316,18.7275113 41.9824559,19.1386988 M41.4382372,17.3178469 L40.1028326,17.3178469 L39.5070562,21.170661 L40.8681336,21.170661 C41.2733803,21.170661 41.6325859,21.0456923 41.9075595,20.8086972 C42.350997,20.4248798 42.4471105,19.7977021 42.5241286,19.2942202 L42.5474674,19.1433666 C42.6255464,18.6473107 42.7144461,18.0844209 42.3811253,17.6891462 C42.1746829,17.445786 41.8490003,17.3178469 41.4382372,17.3178469" id="Fill-23" fill="#2F3443"></path>
                    <path d="M45.4760433,19.8257724 L46.2939627,18.2260026 L46.6073393,19.8257724 L45.4760433,19.8257724 Z M46.6468031,17.3179105 L46.1946666,17.3179105 L44.1813755,21.1707247 L44.7937012,21.1707247 L45.2169824,20.3379533 L46.7019676,20.3379533 L46.8683097,21.1707247 L47.4626008,21.1707247 L46.6605942,17.3851687 L46.6468031,17.3179105 Z" id="Fill-25" fill="#2F3443"></path>
                    <path d="M53.6292888,17.7991569 C53.9657921,17.7991569 54.1819944,17.8827523 54.3763431,18.0883461 L54.4323563,18.1479661 L54.8543645,17.7819711 L54.793047,17.7170467 C54.5010997,17.4113082 54.1839039,17.2871882 53.6971836,17.2871882 C52.9365503,17.2871882 52.3772674,17.7231997 52.2722428,18.3987523 C52.2236556,18.7187062 52.289853,18.9745845 52.4693497,19.1593855 C52.6208398,19.3117243 52.8499845,19.4137786 53.1510553,19.462578 L53.5698809,19.5300484 C53.8221523,19.5701487 53.8902592,19.5956092 53.9757641,19.6815385 C54.0544796,19.7602539 54.0833349,19.8981651 54.0566013,20.0687507 C53.9976178,20.4508707 53.6651457,20.6791668 53.1671803,20.6791668 C52.7585388,20.6791668 52.5213316,20.5783855 52.2915503,20.3059579 L52.2357493,20.2399727 L51.7954944,20.6203954 L51.8504467,20.6853197 C52.160853,21.0517391 52.5234533,21.2013197 53.1024681,21.2013197 C53.9195388,21.2013197 54.5153151,20.7633987 54.6207641,20.0842391 C54.671473,19.7502819 54.5948793,19.47255 54.3990454,19.2815961 C54.2454336,19.1288329 54.0612691,19.0518148 53.720098,18.9991964 L53.3267329,18.9376668 C53.1491457,18.9085993 52.9887444,18.8402803 52.9081194,18.7592309 C52.833223,18.6853954 52.8077625,18.5670039 52.83195,18.409573 C52.8907214,18.0329694 53.1958234,17.7991569 53.6292888,17.7991569" id="Fill-27" fill="#2F3443"></path>
                    <path d="M58.5823584,19.1326944 L57.7411002,19.1326944 L57.9413896,17.8407849 L58.8087449,17.8407849 C59.0317367,17.8407849 59.2012613,17.9014658 59.2994965,18.0162503 C59.3911544,18.1229724 59.4225558,18.2759477 59.3915788,18.4717816 C59.3277153,18.8916681 59.0325854,19.1326944 58.5823584,19.1326944 M58.8995541,17.3177832 L57.4559423,17.3177832 L56.8597416,21.1705974 L57.4260262,21.1705974 L57.660263,19.6556961 L58.5643238,19.6556961 C59.2882515,19.6556961 59.8464735,19.1901928 59.9531956,18.4978786 C60.0060262,18.1605266 59.9372827,17.8700645 59.7554521,17.6576812 C59.5653469,17.435326 59.2687317,17.3177832 58.8995541,17.3177832" id="Fill-29" fill="#2F3443"></path>
                    <path d="M64.2173245,19.2309084 C64.0991452,19.9987554 64.0369791,20.2204742 63.7927702,20.4368887 C63.6198508,20.5909248 63.3932521,20.679188 63.1723821,20.679188 C62.9568163,20.679188 62.7637406,20.5945317 62.6434396,20.4468607 C62.4732785,20.2393574 62.4800679,20.0195482 62.5973985,19.2576419 C62.717063,18.4891584 62.7798656,18.2668031 63.023438,18.0516617 C63.1963574,17.8974133 63.4227439,17.8093623 63.6431896,17.8093623 C63.8583311,17.8093623 64.0511946,17.8940186 64.1719199,18.0416896 C64.3429298,18.2494051 64.3363525,18.4690021 64.2173245,19.2309084 M63.6979298,17.2872094 C63.3111419,17.2872094 62.9459956,17.4266058 62.6415301,17.6903344 C62.2176123,18.0576025 62.1569314,18.4494824 62.0359939,19.2309084 C61.9137834,20.0174265 61.8528903,20.4114281 62.1707225,20.7886683 C62.3992308,21.0583377 62.7263985,21.201341 63.1182785,21.201341 C63.5042176,21.201341 63.869364,21.0619446 64.1746781,20.7980038 C64.5988081,20.4307357 64.659489,20.0382192 64.7802143,19.2570054 C64.9020005,18.4709117 64.9626814,18.0764857 64.6448492,17.6996699 C64.416341,17.4300005 64.0891732,17.2872094 63.6979298,17.2872094" id="Fill-31" fill="#2F3443"></path>
                    <path d="M68.7760954,19.0191405 L67.8932516,19.0191405 L68.0761431,17.8407424 L68.9848717,17.8407424 C69.1934359,17.8407424 69.352352,17.8973921 69.4444342,18.0055993 C69.5286661,18.1029859 69.5573092,18.2428066 69.5293026,18.4189086 C69.4703191,18.8008164 69.1959819,19.0191405 68.7760954,19.0191405 M69.0756809,17.3177408 L67.5906957,17.3177408 L66.9947072,21.1707671 L67.5605674,21.1707671 L67.8138997,19.5366257 L68.5643487,19.5366257 L69.127875,21.1139053 L69.1486678,21.1707671 L69.7923947,21.1707671 L69.1673388,19.4759447 C69.6693355,19.3397309 70.0119918,18.9590961 70.0921924,18.4407622 L70.0928289,18.4407622 C70.1416283,18.1203839 70.0769161,17.8454102 69.9044211,17.6444842 C69.7215296,17.4306158 69.4350987,17.3177408 69.0756809,17.3177408" id="Fill-33" fill="#2F3443"></path>
                    <polygon id="Fill-35" fill="#2F3443" points="72.2829222 17.8408061 73.3482331 17.8408061 72.8324452 21.1706186 73.3987298 21.1706186 73.9136689 17.8408061 74.9791919 17.8408061 75.0593926 17.3178044 72.3637594 17.3178044"></polygon>
                    <path d="M78.3047398,17.7991569 C78.6410309,17.7991569 78.8574454,17.8827523 79.0517941,18.0883461 L79.1078072,18.1479661 L79.5298155,17.7819711 L79.4682859,17.7170467 C79.1765507,17.4113082 78.8593549,17.2871882 78.3726345,17.2871882 C77.6120013,17.2871882 77.0533549,17.7231997 76.9489668,18.3981158 C76.8991066,18.7187062 76.9653039,18.9745845 77.1454372,19.1593855 C77.2962908,19.3117243 77.5254355,19.4137786 77.8265063,19.462578 L78.2453319,19.5300484 C78.4973911,19.5701487 78.565498,19.5956092 78.6512151,19.682175 C78.7305671,19.7611026 78.7594224,19.8981651 78.7318401,20.0687507 C78.6730688,20.4508707 78.3405967,20.6791668 77.8424191,20.6791668 C77.4344141,20.6791668 77.1974191,20.5783855 76.9676378,20.3059579 L76.9118368,20.2406092 L76.4709454,20.6203954 L76.5256855,20.6853197 C76.8363039,21.0517391 77.1986921,21.2013197 77.7779191,21.2013197 C78.5949898,21.2013197 79.1907661,20.7633987 79.2955786,20.0846635 C79.3475605,19.7511306 79.2709668,19.4731865 79.0744964,19.2815961 C78.9208845,19.1288329 78.7365079,19.0518148 78.395549,18.9998329 L78.0019717,18.9376668 C77.8243845,18.9085993 77.6641954,18.8402803 77.5835704,18.7592309 C77.508674,18.6853954 77.4832135,18.5670039 77.507401,18.409573 C77.5661724,18.0329694 77.8710622,17.7991569 78.3047398,17.7991569" id="Fill-37" fill="#2F3443"></path>
                    <path d="M30.9222123,6.34245049 L30.9463998,6.57308043 L32.987061,6.57308043 C33.0178258,6.57308043 33.0481663,6.55907714 33.0706564,6.53488964 C33.0933587,6.51048997 33.1046038,6.47951299 33.101209,6.44980905 L32.8780051,4.38877944 C32.8735495,4.34549655 32.8389656,4.31536826 32.7944097,4.31536826 L30.8426482,4.31536826 C30.8116712,4.31536826 30.7811186,4.32915937 30.7586285,4.35334687 C30.7359262,4.37753437 30.7251054,4.40851135 30.7276515,4.4382153 L30.827584,5.43563141 L29.2812814,5.43563141 L30.1151137,3.88911661 C30.1318752,3.85835181 30.1331482,3.82504095 30.1185084,3.79809523 C30.1042929,3.77093734 30.077135,3.75544885 30.0440363,3.75544885 L27.8707683,3.75544885 C27.8296071,3.75544885 27.7884459,3.78133372 27.7685018,3.81994885 L26.5211482,6.20984359 C26.5052354,6.24082056 26.504811,6.27370707 26.5190265,6.30044062 C26.5338785,6.32696201 26.560612,6.34245049 26.5932863,6.34245049 L30.9222123,6.34245049 Z" id="Fill-39" fill="#2F3443"></path>
                    <path d="M34.7229597,15.4288031 C34.745662,15.4027061 34.7558462,15.3704561 34.7505419,15.3399035 L34.3974893,13.344859 C34.3902755,13.3043344 34.3571768,13.2773887 34.3145304,13.2773887 L32.432361,13.2773887 C32.4003232,13.2773887 32.3687097,13.2924528 32.3460074,13.3183377 C32.3235173,13.3440104 32.3135452,13.3762604 32.3188495,13.4066008 L32.6719021,15.4018574 C32.679116,15.4425942 32.7120025,15.46954 32.754861,15.46954 L34.6370304,15.46954 C34.6688561,15.46954 34.7004696,15.4544758 34.7229597,15.4288031" id="Fill-41" fill="#2F3443"></path>
                    <path d="M28.0622526,13.2774735 L26.1781737,13.2774735 C26.135103,13.2774735 26.0930931,13.3048436 26.0737855,13.3457926 L25.1349286,15.3414735 C25.1207132,15.3716018 25.1211375,15.4034275 25.1355651,15.4293123 C25.1504171,15.454985 25.1773628,15.4696248 25.2089763,15.4696248 L27.0934796,15.4696248 C27.1363382,15.4696248 27.178348,15.4418304 27.1978678,15.4006692 L28.1367247,13.4056248 C28.1509401,13.3754965 28.1505158,13.3432465 28.1356638,13.317786 C28.1208118,13.2919012 28.0940783,13.2774735 28.0622526,13.2774735" id="Fill-43" fill="#2F3443"></path>
                    <path d="M32.9864245,11.2011464 C33.0326778,11.4186217 33.1152123,11.6106365 33.2323308,11.7714622 C33.3483883,11.931227 33.4949985,12.0595905 33.6683423,12.1516727 C33.8399887,12.2433306 34.0349738,12.2897961 34.2492666,12.2897961 L38.3335594,12.2897961 C38.3643242,12.2897961 38.3948768,12.2760049 38.4175791,12.2516053 C38.4402814,12.2269934 38.4511021,12.1958043 38.4481317,12.1661003 L38.3679311,11.4073766 C38.3634755,11.3643059 38.3288916,11.3337533 38.2839113,11.3337533 L35.2530479,11.3337533 C35.0941317,11.3337533 34.96789,11.2694655 34.8779294,11.1434359 C34.7911515,11.0210132 34.7610232,10.8693109 34.7886054,10.6917237 L34.8573488,10.248074 L38.8591071,9.48892599 C38.9066334,9.47980263 38.9463094,9.43927796 38.9537354,9.39260033 L39.0774311,8.59207895 C39.0820988,8.562375 39.0731877,8.53479276 39.0532436,8.51590954 C39.0330873,8.49681414 39.0042321,8.48853947 38.9747403,8.49532895 L35.0096877,9.26275164 L35.1125906,8.59865625 C35.1210775,8.54434046 35.0835232,8.49999671 35.0294196,8.49999671 L33.381487,8.49999671 C33.3271712,8.49999671 33.276038,8.54434046 33.2677633,8.59865625 L32.9743308,10.4937681 C32.9352913,10.745403 32.9393225,10.9830345 32.9864245,11.2011464" id="Fill-45" fill="#2F3443"></path>
                    <path d="M33.9638965,7.0522051 C34.0784689,7.21684984 34.2246548,7.34712286 34.3977863,7.43984161 C34.5696449,7.53149951 34.7652666,7.57817714 34.9787107,7.57817714 L39.0630035,7.57817714 C39.0937683,7.57817714 39.1243209,7.56417385 39.146811,7.53998635 C39.1695133,7.51558668 39.180334,7.4846097 39.1773637,7.45448141 L39.0973752,6.69533339 C39.0929196,6.65205049 39.0583357,6.62171003 39.0133554,6.62171003 L35.9822798,6.62171003 C35.8231515,6.62171003 35.6966975,6.5574222 35.6069492,6.43118043 C35.5203834,6.30875773 35.4904673,6.15705543 35.5180495,5.97968043 L35.5662123,5.66800115 L39.5679706,4.90927747 C39.6154969,4.90036628 39.655385,4.85962944 39.6625988,4.81273964 L39.7841729,4.02770674 C39.7886285,3.9980028 39.7799294,3.97042056 39.7601975,3.95153734 C39.748316,3.94071661 39.7237041,3.92310641 39.6819064,3.93095674 L35.7187633,4.68267878 L35.8469146,3.85372648 C35.8556137,3.79962286 35.8180594,3.75527911 35.7637436,3.75527911 L34.1160232,3.75527911 C34.0617074,3.75527911 34.0105742,3.79962286 34.0022995,3.85372648 L33.7063209,5.76559984 C33.6674936,6.01702253 33.6713127,6.25465411 33.7184146,6.47255378 C33.7646679,6.6908778 33.8469903,6.88586299 33.9638965,7.0522051" id="Fill-47" fill="#2F3443"></path>
                    <path d="M31.4257155,15.4696248 C31.4575411,15.4696248 31.4891546,15.4545607 31.5116447,15.428888 C31.534347,15.4032153 31.5445313,15.3707531 31.5396513,15.3404127 L31.1989046,13.3451561 C31.1914786,13.3048436 31.1581678,13.2774735 31.1155214,13.2774735 L29.2339885,13.2774735 C29.2021628,13.2774735 29.1707615,13.2923255 29.147847,13.3182104 C29.1253569,13.3438831 29.1153849,13.3763452 29.1206891,13.4064735 L29.4737418,15.4019423 C29.4807434,15.4426791 29.5138421,15.4696248 29.5567007,15.4696248 L31.4257155,15.4696248 Z" id="Fill-49" fill="#2F3443"></path>
                    <path d="M30.7152183,8.59893207 L28.2661278,8.59893207 L28.3883383,7.80880707 L30.837641,7.80880707 L30.7152183,8.59893207 Z M30.4703729,10.1802429 L28.0212824,10.1802429 L28.141159,9.40709161 L30.5902495,9.40709161 L30.4703729,10.1802429 Z M32.7064436,7.0169847 L26.7792331,7.0169847 C26.7249173,7.0169847 26.6739962,7.06111628 26.6657215,7.11543207 L25.8467413,12.4054929 C25.8382544,12.4598087 25.8755965,12.5039403 25.9299123,12.5039403 L27.5632051,12.5039403 C27.6173087,12.5039403 27.6684419,12.4598087 27.6769288,12.4054929 L27.8963137,10.9884025 L30.3451919,10.9884025 L30.3301278,11.0868498 C30.3025456,11.264437 30.2255275,11.4163515 30.1005587,11.538562 C29.9726196,11.6648038 29.8264337,11.7290916 29.6668811,11.7290916 L29.5890143,11.7290916 L29.2890044,12.3764255 C29.2745768,12.4065538 29.2750012,12.4385916 29.2900653,12.4640521 C29.3051294,12.4893005 29.3316508,12.5039403 29.3630521,12.5039403 L30.4024781,12.5039403 C30.6167709,12.5039403 30.8261837,12.457687 31.026261,12.3660291 C31.2278235,12.2735225 31.4141097,12.1432495 31.5800275,11.9788169 C31.7476426,11.8124748 31.8904337,11.6177018 32.0052183,11.3987413 C32.1197906,11.1797808 32.1972331,10.941937 32.2360604,10.6915752 L32.7896146,7.11543207 C32.7981015,7.06111628 32.7607594,7.0169847 32.7064436,7.0169847 L32.7064436,7.0169847 Z" id="Fill-51" fill="#2F3443"></path>
                    <g transform="translate(68.319079, 3.606908)" fill="#2F3443" id="Fill-53">
                        <path d="M13.3364571,1.00490576 L8.17709359,1.00490576 L8.04342582,0.216478125 C8.03621201,0.175741283 8.00290115,0.148371217 7.95983043,0.148371217 L6.30213799,0.148371217 C6.26988799,0.148371217 6.23848668,0.163223191 6.2155722,0.18932023 C6.19329424,0.214992928 6.1833222,0.246818586 6.18820214,0.276946875 L6.31168569,1.00490576 L0.532570559,1.00490576 C0.47825477,1.00490576 0.427333717,1.04903734 0.418846875,1.10335312 L0.263113322,2.1098926 C0.254838651,2.16399622 0.292180757,2.2081278 0.346284375,2.2081278 L1.39080247,2.2081278 L0.17591102,4.39603569 C0.158725164,4.42701266 0.156815625,4.46032352 0.171455428,4.48790576 C0.185670888,4.51527582 0.213040954,4.53118865 0.246351809,4.53118865 L10.8375064,4.53118865 L10.8837597,4.81146661 L12.5461199,4.81146661 C12.5783699,4.81146661 12.6099834,4.79640247 12.6328979,4.76988109 C12.655388,4.74357187 12.6651479,4.7111097 12.6592071,4.68076924 L12.2923633,2.80072155 C12.2847252,2.76125773 12.2516265,2.73473635 12.2098288,2.73473635 L10.60624,2.73473635 C10.5735656,2.73473635 10.5419521,2.75022484 10.5190377,2.77717056 C10.4963354,2.80390411 10.4869998,2.83679062 10.4937893,2.86755543 L10.6230015,3.45972484 L2.55434852,3.45972484 L3.28251957,2.2081278 L13.1501709,2.2081278 C13.2044867,2.2081278 13.2554077,2.16399622 13.2638946,2.1098926 L13.4198403,1.10335312 C13.428115,1.04903734 13.3907729,1.00490576 13.3364571,1.00490576"></path>
                    </g>
                    <path d="M51.0527684,11.0206737 L49.8047783,11.0206737 L50.0417734,9.48922303 L51.2897635,9.48922303 L51.0527684,11.0206737 Z M50.6829543,13.4097197 C50.655372,13.5883678 50.5781418,13.7377362 50.4533852,13.8546424 C50.3250217,13.9747312 50.1805332,14.0354122 50.0224658,14.0354122 L49.3382141,14.0354122 L49.5828474,12.4547378 L50.8308375,12.4547378 L50.6829543,13.4097197 Z M48.0951039,11.0206737 L46.8471138,11.0206737 L47.0841089,9.48922303 L48.332099,9.48922303 L48.0951039,11.0206737 Z M47.6283276,14.0354122 L46.3803375,14.0354122 L46.6249707,12.4547378 L47.8729609,12.4547378 L47.6283276,14.0354122 Z M52.429122,13.7559829 L53.2964773,8.15339408 C53.304752,8.09907829 53.2674099,8.05494671 53.2133063,8.05494671 L45.5596599,8.05494671 C45.5053441,8.05494671 45.454423,8.09907829 45.4459362,8.15339408 L45.3697668,8.64669178 L44.3286434,15.3712411 C44.3203688,15.4253447 44.3577109,15.4696885 44.4118145,15.4696885 L50.6110283,15.4696885 C50.8261697,15.4696885 51.0360069,15.4257691 51.2354477,15.3387789 C51.4363737,15.2509401 51.621599,15.1287296 51.7860316,14.9746934 C51.9511007,14.8195964 52.0917701,14.6356441 52.2040086,14.4287773 C52.3164592,14.2210618 52.3922043,13.9948875 52.429122,13.7559829 L52.429122,13.7559829 Z" id="Fill-55" fill="#2F3443"></path>
                    <path d="M78.6192622,10.9052526 L70.1194776,10.9052526 L70.2622688,9.98336941 L78.1983148,9.98336941 C78.3565944,9.98336941 78.4828362,10.0442625 78.5732211,10.1643513 C78.6614842,10.2812576 78.693522,10.4253217 78.6676372,10.5925125 L78.6192622,10.9052526 Z M78.336226,12.7339549 L69.8364414,12.7339549 L69.9766865,11.8288332 L78.4762589,11.8288332 L78.336226,12.7339549 Z M80.3656421,9.33285296 C80.2589201,9.19133487 80.1154924,9.07973289 79.9408757,9.00080526 C79.8103905,8.94203388 79.6578395,8.91190559 79.4866174,8.91190559 L68.6368263,8.91190559 C68.5825105,8.91190559 68.5313773,8.95624934 68.5231026,9.01035296 L67.7452836,14.0354122 L65.8911207,14.0354122 L66.4202753,6.29307829 L67.0788543,6.29307829 C67.1329579,6.29307829 67.1840911,6.24894671 67.192578,6.19463092 L67.3814102,4.97401086 C67.3896849,4.91990724 67.3523428,4.87556349 67.2984513,4.87556349 L63.8080253,4.87556349 L63.9663049,3.8537477 C63.9747918,3.79964408 63.9374497,3.75530033 63.8831339,3.75530033 L62.2352013,3.75530033 C62.1808855,3.75530033 62.1299645,3.79964408 62.1214776,3.8537477 L61.9634102,4.87556349 L58.4731964,4.87556349 C58.4190928,4.87556349 58.3679595,4.91990724 58.3594727,4.97401086 L58.1706405,6.19463092 C58.1621536,6.24894671 58.1997079,6.29307829 58.2538115,6.29307829 L58.972647,6.29307829 L57.092175,14.0354122 L55.9941898,14.0354122 L56.8454201,8.53593849 L56.8456322,8.53593849 L57.3429612,5.32345658 L57.350175,5.32345658 L58.109323,3.88833158 C58.1256602,3.85756678 58.1265089,3.82446809 58.1122934,3.79752237 C58.0974414,3.77078882 58.0702836,3.75530033 58.0376092,3.75530033 L56.4463263,3.75530033 C56.4055895,3.75530033 56.3646405,3.78097303 56.3444842,3.81895164 L55.8004776,4.8424648 L53.1943806,4.8424648 L53.5975056,3.87878388 C53.6102359,3.84929211 53.6087507,3.81810296 53.5936865,3.79370329 C53.5786224,3.76930362 53.5523132,3.75530033 53.5215484,3.75530033 L51.8551569,3.75530033 C51.8112375,3.75530033 51.7677424,3.78521645 51.7492836,3.82765066 L51.3100895,4.8424648 L48.8484809,4.8424648 L48.7254217,3.82765066 C48.7203296,3.78521645 48.6861701,3.75530033 48.6418263,3.75530033 L46.8470714,3.75530033 L46.9646141,4.8424648 L46.0569464,4.8424648 L45.5638609,4.8424648 L46.3887819,3.75530033 L44.2638888,3.75530033 C44.2293049,3.75530033 44.1936602,3.77375921 44.1713822,3.80346316 L43.6553822,4.49429211 L43.2535303,3.795825 C43.2391026,3.77036447 43.2117326,3.75530033 43.1805434,3.75530033 L41.3915171,3.75530033 C41.354175,3.75530033 41.3183181,3.77524441 41.2960401,3.80834309 C41.27355,3.84144178 41.2699431,3.87963257 41.2867046,3.91039737 L42.4561914,6.05820493 L40.6414924,8.45022138 C40.6077572,8.4947773 40.618578,8.53466546 40.6247309,8.54972961 C40.6308839,8.56479375 40.6506158,8.59980197 40.7025977,8.59980197 L42.2841207,8.59980197 L42.0477622,10.1265849 L39.9706076,12.8152164 C39.936448,12.859348 39.9470566,12.8996605 39.9532095,12.915149 C39.9593625,12.9302132 39.9793066,12.9654336 40.0310763,12.9654336 L41.6083559,12.9654336 L41.5088477,13.607251 C41.4829628,13.7746539 41.4063691,13.9189303 41.2814003,14.0362609 C41.1540977,14.1557132 41.014277,14.2166062 40.8653329,14.2166062 L40.8114414,14.2166062 L40.3096569,14.2166062 L37.7500253,14.2166062 L37.595777,13.3447954 C37.5885632,13.3044829 37.5554645,13.2775372 37.5126059,13.2775372 L35.6435911,13.2775372 C35.6115533,13.2775372 35.580152,13.2923891 35.5572375,13.318274 C35.5349595,13.3439467 35.5249875,13.3759845 35.5298674,13.406325 L35.8706141,15.4009451 C35.8776158,15.4423184 35.9111388,15.4696885 35.9537852,15.4696885 L37.2938576,15.4696885 L37.8351059,15.4696885 L39.7087885,15.4696885 L40.8114414,15.4696885 L41.4333148,15.4696885 C41.6374234,15.4696885 41.8370763,15.4257691 42.0256964,15.3394155 C42.2164382,15.2526375 42.401027,15.1138776 42.5612161,14.9589928 C42.7216174,14.8043201 42.8605895,14.6199434 42.9730401,14.4118036 C43.085703,14.2047247 43.161448,13.978126 43.1983658,13.7392214 L43.6386207,10.8944319 L45.0514678,9.06000099 L43.9227178,9.06000099 L44.3222359,6.4791523 L44.4758477,6.27652895 L45.8348033,6.27652895 L47.1405039,6.27652895 L47.2538033,7.25824441 C47.2586832,7.30067862 47.2932671,7.33080691 47.337823,7.33080691 L49.0133378,7.33080691 C49.0443148,7.33080691 49.0750796,7.31659145 49.0977819,7.29176743 C49.1204842,7.26694342 49.1313049,7.23511776 49.1272737,7.20520164 L49.0065484,6.27652895 L50.7060385,6.27652895 L50.3107638,7.20668684 C50.2980336,7.23639079 50.2990944,7.26779211 50.3143707,7.29219178 C50.3294349,7.31659145 50.3555319,7.33080691 50.3865089,7.33080691 L52.052476,7.33080691 C52.0961832,7.33080691 52.1401026,7.30131513 52.1585615,7.25930526 L52.5905418,6.27652895 L55.4554875,6.27652895 L55.1851816,8.02269671 L55.1058296,8.53593849 L54.0475204,15.3712411 C54.0390336,15.4253447 54.0765878,15.4696885 54.1309036,15.4696885 L54.9581586,15.4696885 L55.6738115,15.4696885 L56.8513609,15.4696885 L57.9648345,15.4696885 L58.3323148,15.4696885 C58.3838724,15.4696885 58.431823,15.430649 58.4445533,15.3793036 L60.6371289,6.29307829 L61.7438132,6.29307829 L60.7979546,12.4042411 L59.8453066,12.4042411 C59.7909908,12.4042411 59.7400697,12.4485849 59.7315829,12.5026885 L59.5425385,13.7235207 C59.5342638,13.7778365 59.5718181,13.8219681 59.6257095,13.8219681 L60.5785697,13.8219681 L60.3386043,15.3712411 C60.3303296,15.4253447 60.3676717,15.4696885 60.4217753,15.4696885 L62.0697079,15.4696885 C62.1240237,15.4696885 62.1751569,15.4253447 62.1834316,15.3712411 L62.4231849,13.8219681 L63.3758329,13.8219681 C63.4301487,13.8219681 63.4810697,13.7778365 63.4895566,13.7235207 L63.678601,12.5026885 C63.6868757,12.4485849 63.6495336,12.4042411 63.5952178,12.4042411 L62.6425697,12.4042411 L63.5886405,6.29307829 L64.7417901,6.29307829 L64.1345566,15.3795158 C64.131374,15.430649 64.1674431,15.4696885 64.2190007,15.4696885 L64.9823921,15.4696885 L65.6857391,15.4696885 L67.6215878,15.4696885 L68.8201421,15.4696885 L69.3147128,15.4696885 C69.3686043,15.4696885 69.4199497,15.4253447 69.4282243,15.3712411 L69.6959842,13.6409862 L78.1957687,13.6409862 L78.1448477,13.9700635 C78.1189628,14.1372543 78.0423691,14.2815306 77.9176125,14.398649 C77.7903099,14.5183135 77.6451849,14.5792066 77.4866931,14.5792066 L76.9144678,14.5792066 L77.3061355,15.4234352 C77.3199266,15.4522905 77.3485697,15.4696885 77.3823049,15.4696885 L78.2500845,15.4696885 C78.4645895,15.4696885 78.6767605,15.4092197 78.8766257,15.3222296 C79.0773395,15.2352395 79.2623526,15.1149385 79.4276339,14.9649336 C79.5910056,14.8157773 79.7308263,14.6352197 79.8428526,14.4287773 C79.9553033,14.2210618 80.0312605,13.9948875 80.0681783,13.7559829 L80.593726,10.3618826 C80.6236421,10.1668974 80.6174891,9.97700428 80.5752671,9.79644671 C80.5332572,9.61737434 80.4623921,9.46100428 80.3656421,9.33285296 L80.3656421,9.33285296 Z" id="Fill-57" fill="#2F3443"></path>
                </g>
            </g>
        </g>
    </g>
</svg>