<?xml version="1.0" encoding="UTF-8"?>
<svg width="75px" height="21px" viewBox="0 0 75 21" version="1.1" xmlns="http://www.w3.org/2000/svg" xmlns:xlink="http://www.w3.org/1999/xlink">
    <!-- Generator: Sketch 61.2 (89653) - https://sketch.com -->
    <title>logo备份</title>
    <desc>Created with Sketch.</desc>
    <defs>
        <path d="M4.355625,0.056625 L4.3220625,0.0585 C3.1914375,0.11625 2.04825,0.29175 0.9211875,0.5806875 L0.9211875,0.5806875 C0.8405625,0.6015 0.7665,0.642 0.706125,0.699375 L0.706125,0.699375 C0.4981875,0.897375 0.2885625,1.108125 0.078375,1.3305 L0.078375,1.3305 C-6.9388939e-18,1.413375 0.069,1.5474375 0.1824375,1.5335625 L0.1824375,1.5335625 C1.0464375,1.4285625 1.9284375,1.3756875 2.814,1.3755 L2.814,1.3755 C4.08825,1.3755 5.3514375,1.4848125 6.568875,1.700625 L6.568875,1.700625 C7.34325,1.8376875 8.08725,2.01525 8.7804375,2.227875 L8.7804375,2.227875 C8.8179375,2.237625 8.8599375,2.2610625 8.894625,2.293875 L8.894625,2.293875 C9.5439375,2.937375 10.138875,3.6225 10.671375,4.3395 L10.671375,4.3395 C10.7379375,4.4295 10.8811875,4.39125 10.8916875,4.2796875 L10.8916875,4.2796875 C10.97775,3.37875 10.9640625,2.5261875 10.851,1.76025 L10.851,1.76025 C10.801875,1.425 10.579125,1.1413125 10.2673125,1.008375 L10.2673125,1.008375 C8.7804375,0.3744375 6.9961875,0.037875 5.12475,0.037875 L5.12475,0.037875 C4.86975,0.037875 4.61325,0.0440625 4.355625,0.056625" id="path-1"></path>
        <linearGradient x1="80.6870762%" y1="40.5188925%" x2="-31.3239524%" y2="82.928032%" id="linearGradient-3">
            <stop stop-color="#00A0EF" offset="0%"></stop>
            <stop stop-color="#006EBC" offset="100%"></stop>
        </linearGradient>
        <path d="M2.10375,0.247875 L0.2480625,2.238 C0.02175,2.4808125 -0.0136875,2.8449375 0.1614375,3.12675 L0.1614375,3.12675 L1.3993125,5.1178125 C1.573125,5.3971875 1.911375,5.5269375 2.2273125,5.435625 L2.2273125,5.435625 L4.67925,4.7255625 C4.966875,4.6423125 5.1751875,4.39275 5.2055625,4.095 L5.2055625,4.095 L5.427375,1.9314375 C5.45775,1.6355625 5.3068125,1.3509375 5.0450625,1.2099375 L5.0450625,1.2099375 L2.9893125,0.1021875 C2.8794375,0.0429375 2.7598125,0.01425 2.641125,0.01425 L2.641125,0.01425 C2.442375,0.01425 2.24625,0.094875 2.10375,0.247875" id="path-4"></path>
        <linearGradient x1="194.582873%" y1="-81.222713%" x2="-26.6076303%" y2="131.315399%" id="linearGradient-6">
            <stop stop-color="#00A0EF" offset="0%"></stop>
            <stop stop-color="#006EBC" offset="100%"></stop>
        </linearGradient>
        <path d="M0.1494375,0.2889375 L0.2926875,2.2644375 C0.30225,2.3968125 0.3650625,2.5198125 0.466875,2.60475 L0.466875,2.60475 L2.116875,3.9841875 C2.2393125,4.0865625 2.4256875,4.0460625 2.4946875,3.9020625 L2.4946875,3.9020625 L2.8648125,3.1284375 C2.92725,2.99775 2.9295,2.8456875 2.8689375,2.71425 L2.8689375,2.71425 C2.6085,2.1481875 2.3775,1.714125 2.0435625,1.1353125 L2.0435625,1.1353125 C1.848375,0.79725 1.7251875,0.5885625 1.543125,0.308625 L1.543125,0.308625 C1.4604375,0.181125 1.3220625,0.099 1.17075,0.087 L1.17075,0.087 L0.4126875,0.0271875 C0.406125,0.026625 0.3995625,0.0264375 0.3931875,0.0264375 L0.3931875,0.0264375 C0.2525625,0.0264375 0.1389375,0.1460625 0.1494375,0.2889375" id="path-7"></path>
        <linearGradient x1="112.893125%" y1="-41.3045205%" x2="-96.5458457%" y2="247.233729%" id="linearGradient-9">
            <stop stop-color="#00A0EF" offset="0%"></stop>
            <stop stop-color="#006EBC" offset="100%"></stop>
        </linearGradient>
        <path d="M7.8241875,0.18075 C7.483125,0.98175 7.08825,1.7720625 6.6455625,2.5389375 L6.6455625,2.5389375 C6.008625,3.64275 5.2824375,4.6820625 4.486875,5.628375 L4.486875,5.628375 C3.981,6.2304375 3.455625,6.7861875 2.924625,7.2804375 L2.924625,7.2804375 C2.8974375,7.308 2.8561875,7.3325625 2.810625,7.3460625 L2.810625,7.3460625 C1.928625,7.5868125 1.0378125,7.7593125 0.1505625,7.86225 L0.1505625,7.86225 C0.039375,7.8751875 0.0009375,8.01825 0.0924375,8.0833125 L0.0924375,8.0833125 C0.8296875,8.608125 1.5748125,9.0223125 2.294625,9.3075 L2.294625,9.3075 C2.40675,9.3519375 2.5243125,9.3740625 2.6415,9.375 L2.6415,9.375 L2.6570625,9.375 C2.8635,9.3733125 3.0675,9.3054375 3.23775,9.17775 L3.23775,9.17775 C4.7060625,8.074875 6.03375,6.4471875 7.017,4.5335625 L7.017,4.5335625 L7.032375,4.5035625 C7.5474375,3.495375 7.966875,2.417625 8.2801875,1.2969375 L8.2801875,1.2969375 C8.3026875,1.216875 8.3045625,1.1325 8.2850625,1.0515 L8.2850625,1.0515 C8.2175625,0.7723125 8.13975,0.48525 8.0521875,0.192375 L8.0521875,0.192375 C8.035125,0.1351875 7.986,0.1059375 7.9366875,0.1059375 L7.9366875,0.1059375 C7.8913125,0.1059375 7.8455625,0.1305 7.8241875,0.18075" id="path-10"></path>
        <linearGradient x1="137.890913%" y1="-29.8782071%" x2="20.5226137%" y2="95.0969006%" id="linearGradient-12">
            <stop stop-color="#00A0EF" offset="0%"></stop>
            <stop stop-color="#006EBC" offset="100%"></stop>
        </linearGradient>
        <path d="M2.5344375,0.0898125 C1.71,0.4633125 0.976875,0.898875 0.3684375,1.3779375 L0.3684375,1.3779375 C0.1340625,1.56225 0.001875,1.8444375 0,2.1388125 L0,2.1388125 L0,2.1523125 C0.0001875,2.1890625 0.002625,2.226 0.0069375,2.26275 L0.0069375,2.26275 C0.2225625,4.08525 0.9613125,6.049875 2.1200625,7.8605625 L2.1200625,7.8605625 L2.1384375,7.8886875 C2.750625,8.8408125 3.471375,9.7456875 4.2823125,10.579875 L4.2823125,10.579875 C4.3404375,10.6396875 4.41225,10.6835625 4.492125,10.707375 L4.492125,10.707375 C4.767375,10.7895 5.054625,10.8665625 5.352,10.938375 L5.352,10.938375 C5.463,10.965 5.54475,10.8384375 5.4765,10.747125 L5.4765,10.747125 C4.955625,10.0494375 4.4713125,9.310875 4.0306875,8.5425 L4.0306875,8.5425 C3.3973125,7.4368125 2.8640625,6.2863125 2.446125,5.122875 L2.446125,5.122875 C2.1800625,4.3828125 1.963875,3.649125 1.80375,2.9420625 L1.80375,2.9420625 C1.793625,2.904375 1.7930625,2.856375 1.8045,2.8100625 L1.8045,2.8100625 C2.0398125,1.92675 2.3385,1.069875 2.695875,0.2514375 L2.695875,0.2514375 C2.7331875,0.16575 2.667375,0.0785625 2.5850625,0.0785625 L2.5850625,0.0785625 C2.56875,0.0785625 2.5515,0.082125 2.5344375,0.0898125" id="path-13"></path>
        <linearGradient x1="106.278279%" y1="-48.1696579%" x2="49.3492479%" y2="58.4636396%" id="linearGradient-15">
            <stop stop-color="#00A0EF" offset="0%"></stop>
            <stop stop-color="#006EBC" offset="100%"></stop>
        </linearGradient>
        <polygon id="path-16" points="0.143185273 0.1258125 8.40921791 0.1258125 8.40921791 9.38805181 0.143185273 9.38805181"></polygon>
        <polygon id="path-18" points="0.142835296 0.13111875 11.8603125 0.13111875 11.8603125 4.25199375 0.142835296 4.25199375"></polygon>
    </defs>
    <g id="页面-1" stroke="none" stroke-width="1" fill="none" fill-rule="evenodd">
        <g id="logo备份">
            <g id="编组" transform="translate(1.875000, 4.561687)">
                <path d="M12.9864375,0.05300625 C12.87525,0.02656875 12.793875,0.15369375 12.8626875,0.24481875 C13.3865625,0.94006875 13.87425,1.67656875 14.3184375,2.44288125 C14.956875,3.54556875 15.495375,4.69363125 15.9185625,5.85519375 C16.188,6.59394375 16.407375,7.32669375 16.5706875,8.03319375 C16.5811875,8.07050625 16.5819375,8.11869375 16.570875,8.16500625 C16.3393125,9.04944375 16.0445625,9.90763125 15.6909375,10.7275687 C15.6465,10.8306937 15.7509375,10.9355062 15.8529375,10.8886312 C16.675875,10.5115687 17.4069375,10.0722562 18.013125,9.59075625 C18.279375,9.37925625 18.412125,9.04156875 18.3706875,8.70406875 C18.146625,6.88250625 17.3990625,4.92163125 16.23225,3.11600625 L16.2136875,3.08806875 C15.5971875,2.13856875 14.8723125,1.23706875 14.0574375,0.40644375 C13.999125,0.34700625 13.927125,0.30331875 13.8470625,0.27988125 C13.571625,0.19925625 13.284,0.12331875 12.9864375,0.05300625" id="Fill-1" fill="#00B36E"></path>
                <path d="M10.9918688,13.0477313 C11.0704313,12.9648563 11.0014313,12.8307937 10.8879938,12.8444813 C10.0238063,12.9489188 9.14180625,13.0012313 8.25643125,13.0008563 C6.98199375,12.9999188 5.71880625,12.8898563 4.50174375,12.6731063 C3.72736875,12.5356687 2.98336875,12.3575438 2.29036875,12.1445438 C2.25286875,12.1347938 2.21086875,12.1113563 2.17636875,12.0783563 C1.52743125,11.4344813 0.93305625,10.7487937 0.40093125,10.0316062 C0.33418125,9.94160625 0.19111875,9.97985625 0.18043125,10.0912312 C0.09380625,10.9921687 0.10693125,11.8449187 0.21943125,12.6108563 C0.26855625,12.9461062 0.49111875,13.2299813 0.80274375,13.3631063 C2.49155625,14.0844188 4.56474375,14.4221063 6.71386875,14.3186063 L6.74743125,14.3169187 C7.87786875,14.2597313 9.02143125,14.0849813 10.1486813,13.7969813 C10.2294938,13.7763563 10.3033688,13.7358563 10.3635563,13.6782938 C10.5718688,13.4806688 10.7816813,13.2699188 10.9918688,13.0477313" id="Fill-3" fill="#EA3970"></path>
            </g>
            <g id="编组" transform="translate(7.312500, 2.124187)">
                <mask id="mask-2" fill="white">
                    <use xlink:href="#path-1"></use>
                </mask>
                <g id="Clip-6"></g>
                <path d="M4.355625,0.056625 L4.3220625,0.0585 C3.1914375,0.11625 2.04825,0.29175 0.9211875,0.5806875 L0.9211875,0.5806875 C0.8405625,0.6015 0.7665,0.642 0.706125,0.699375 L0.706125,0.699375 C0.4981875,0.897375 0.2885625,1.108125 0.078375,1.3305 L0.078375,1.3305 C-6.9388939e-18,1.413375 0.069,1.5474375 0.1824375,1.5335625 L0.1824375,1.5335625 C1.0464375,1.4285625 1.9284375,1.3756875 2.814,1.3755 L2.814,1.3755 C4.08825,1.3755 5.3514375,1.4848125 6.568875,1.700625 L6.568875,1.700625 C7.34325,1.8376875 8.08725,2.01525 8.7804375,2.227875 L8.7804375,2.227875 C8.8179375,2.237625 8.8599375,2.2610625 8.894625,2.293875 L8.894625,2.293875 C9.5439375,2.937375 10.138875,3.6225 10.671375,4.3395 L10.671375,4.3395 C10.7379375,4.4295 10.8811875,4.39125 10.8916875,4.2796875 L10.8916875,4.2796875 C10.97775,3.37875 10.9640625,2.5261875 10.851,1.76025 L10.851,1.76025 C10.801875,1.425 10.579125,1.1413125 10.2673125,1.008375 L10.2673125,1.008375 C8.7804375,0.3744375 6.9961875,0.037875 5.12475,0.037875 L5.12475,0.037875 C4.86975,0.037875 4.61325,0.0440625 4.355625,0.056625" id="Fill-5" fill="url(#linearGradient-3)" mask="url(#mask-2)"></path>
            </g>
            <g id="编组" transform="translate(6.937500, 7.749187)">
                <mask id="mask-5" fill="white">
                    <use xlink:href="#path-4"></use>
                </mask>
                <g id="Clip-8"></g>
                <path d="M2.10375,0.247875 L0.2480625,2.238 C0.02175,2.4808125 -0.0136875,2.8449375 0.1614375,3.12675 L0.1614375,3.12675 L1.3993125,5.1178125 C1.573125,5.3971875 1.911375,5.5269375 2.2273125,5.435625 L2.2273125,5.435625 L4.67925,4.7255625 C4.966875,4.6423125 5.1751875,4.39275 5.2055625,4.095 L5.2055625,4.095 L5.427375,1.9314375 C5.45775,1.6355625 5.3068125,1.3509375 5.0450625,1.2099375 L5.0450625,1.2099375 L2.9893125,0.1021875 C2.8794375,0.0429375 2.7598125,0.01425 2.641125,0.01425 L2.641125,0.01425 C2.442375,0.01425 2.24625,0.094875 2.10375,0.247875" id="Fill-7" fill="url(#linearGradient-6)" mask="url(#mask-5)"></path>
            </g>
            <g id="编组" transform="translate(13.500000, 6.061687)">
                <mask id="mask-8" fill="white">
                    <use xlink:href="#path-7"></use>
                </mask>
                <g id="Clip-10"></g>
                <path d="M0.1494375,0.2889375 L0.2926875,2.2644375 C0.30225,2.3968125 0.3650625,2.5198125 0.466875,2.60475 L0.466875,2.60475 L2.116875,3.9841875 C2.2393125,4.0865625 2.4256875,4.0460625 2.4946875,3.9020625 L2.4946875,3.9020625 L2.8648125,3.1284375 C2.92725,2.99775 2.9295,2.8456875 2.8689375,2.71425 L2.8689375,2.71425 C2.6085,2.1481875 2.3775,1.714125 2.0435625,1.1353125 L2.0435625,1.1353125 C1.848375,0.79725 1.7251875,0.5885625 1.543125,0.308625 L1.543125,0.308625 C1.4604375,0.181125 1.3220625,0.099 1.17075,0.087 L1.17075,0.087 L0.4126875,0.0271875 C0.406125,0.026625 0.3995625,0.0264375 0.3931875,0.0264375 L0.3931875,0.0264375 C0.2525625,0.0264375 0.1389375,0.1460625 0.1494375,0.2889375" id="Fill-9" fill="url(#linearGradient-9)" mask="url(#mask-8)"></path>
            </g>
            <g id="编组" transform="translate(9.562500, 11.499187)">
                <mask id="mask-11" fill="white">
                    <use xlink:href="#path-10"></use>
                </mask>
                <g id="Clip-12"></g>
                <path d="M7.8241875,0.18075 C7.483125,0.98175 7.08825,1.7720625 6.6455625,2.5389375 L6.6455625,2.5389375 C6.008625,3.64275 5.2824375,4.6820625 4.486875,5.628375 L4.486875,5.628375 C3.981,6.2304375 3.455625,6.7861875 2.924625,7.2804375 L2.924625,7.2804375 C2.8974375,7.308 2.8561875,7.3325625 2.810625,7.3460625 L2.810625,7.3460625 C1.928625,7.5868125 1.0378125,7.7593125 0.1505625,7.86225 L0.1505625,7.86225 C0.039375,7.8751875 0.0009375,8.01825 0.0924375,8.0833125 L0.0924375,8.0833125 C0.8296875,8.608125 1.5748125,9.0223125 2.294625,9.3075 L2.294625,9.3075 C2.40675,9.3519375 2.5243125,9.3740625 2.6415,9.375 L2.6415,9.375 L2.6570625,9.375 C2.8635,9.3733125 3.0675,9.3054375 3.23775,9.17775 L3.23775,9.17775 C4.7060625,8.074875 6.03375,6.4471875 7.017,4.5335625 L7.017,4.5335625 L7.032375,4.5035625 C7.5474375,3.495375 7.966875,2.417625 8.2801875,1.2969375 L8.2801875,1.2969375 C8.3026875,1.216875 8.3045625,1.1325 8.2850625,1.0515 L8.2850625,1.0515 C8.2175625,0.7723125 8.13975,0.48525 8.0521875,0.192375 L8.0521875,0.192375 C8.035125,0.1351875 7.986,0.1059375 7.9366875,0.1059375 L7.9366875,0.1059375 C7.8913125,0.1059375 7.8455625,0.1305 7.8241875,0.18075" id="Fill-11" fill="url(#linearGradient-12)" mask="url(#mask-11)"></path>
            </g>
            <g id="编组" transform="translate(0.000000, 5.499187)">
                <mask id="mask-14" fill="white">
                    <use xlink:href="#path-13"></use>
                </mask>
                <g id="Clip-14"></g>
                <path d="M2.5344375,0.0898125 C1.71,0.4633125 0.976875,0.898875 0.3684375,1.3779375 L0.3684375,1.3779375 C0.1340625,1.56225 0.001875,1.8444375 0,2.1388125 L0,2.1388125 L0,2.1523125 C0.0001875,2.1890625 0.002625,2.226 0.0069375,2.26275 L0.0069375,2.26275 C0.2225625,4.08525 0.9613125,6.049875 2.1200625,7.8605625 L2.1200625,7.8605625 L2.1384375,7.8886875 C2.750625,8.8408125 3.471375,9.7456875 4.2823125,10.579875 L4.2823125,10.579875 C4.3404375,10.6396875 4.41225,10.6835625 4.492125,10.707375 L4.492125,10.707375 C4.767375,10.7895 5.054625,10.8665625 5.352,10.938375 L5.352,10.938375 C5.463,10.965 5.54475,10.8384375 5.4765,10.747125 L5.4765,10.747125 C4.955625,10.0494375 4.4713125,9.310875 4.0306875,8.5425 L4.0306875,8.5425 C3.3973125,7.4368125 2.8640625,6.2863125 2.446125,5.122875 L2.446125,5.122875 C2.1800625,4.3828125 1.963875,3.649125 1.80375,2.9420625 L1.80375,2.9420625 C1.793625,2.904375 1.7930625,2.856375 1.8045,2.8100625 L1.8045,2.8100625 C2.0398125,1.92675 2.3385,1.069875 2.695875,0.2514375 L2.695875,0.2514375 C2.7331875,0.16575 2.667375,0.0785625 2.5850625,0.0785625 L2.5850625,0.0785625 C2.56875,0.0785625 2.5515,0.082125 2.5344375,0.0898125" id="Fill-13" fill="url(#linearGradient-15)" mask="url(#mask-14)"></path>
            </g>
            <g id="编组" transform="translate(2.250000, 0.061687)">
                <g>
                    <mask id="mask-17" fill="white">
                        <use xlink:href="#path-16"></use>
                    </mask>
                    <g id="Clip-16"></g>
                    <path d="M0.38814375,9.301575 C0.42076875,9.411075 0.57133125,9.4183875 0.61614375,9.3132 C0.95833125,8.5127625 1.35414375,7.7232 1.79776875,6.9567 C2.43620625,5.853825 3.16370625,4.8152625 3.96039375,3.870075 C4.46701875,3.268575 4.99351875,2.7133875 5.52489375,2.220075 C5.55208125,2.1925125 5.59333125,2.16795 5.63908125,2.15445 C6.52145625,1.914825 7.41245625,1.74345 8.29970625,1.6416375 C8.41108125,1.6288875 8.44951875,1.4860125 8.35820625,1.42095 C7.62170625,0.8950125 6.87695625,0.4797 6.15751875,0.1937625 C5.84270625,0.0685125 5.48551875,0.1191375 5.21439375,0.3222 C3.74458125,1.4232 2.41464375,3.0492 1.42895625,4.9617 L1.41358125,4.9917 C0.89720625,5.99895 0.47626875,7.0765125 0.16164375,8.19645 C0.13895625,8.2767 0.13708125,8.3608875 0.15658125,8.442075 C0.22370625,8.7212625 0.30114375,9.0085125 0.38814375,9.301575" id="Fill-15" fill="#FABA35" mask="url(#mask-17)"></path>
                </g>
                <path d="M22.9864688,16.9079625 L22.2430313,16.9079625 L22.4205938,15.766275 L23.1870938,15.766275 C23.3843437,15.766275 23.5339687,15.8199 23.6207813,15.9213375 C23.7015938,16.01565 23.7293438,16.1508375 23.7027188,16.32315 C23.6449688,16.6949625 23.3835938,16.9079625 22.9864688,16.9079625 M23.2673438,15.3040875 L22.2240938,15.3040875 C22.0943438,15.3040875 21.9762188,15.405525 21.9554063,15.5354625 L21.4647188,18.7089 L21.9649688,18.7089 L22.1721563,17.37015 L22.9705313,17.37015 C23.6108438,17.37015 24.1041563,16.958775 24.1990313,16.3469625 C24.2444063,16.0488375 24.1844063,15.79215 24.0231563,15.6044625 C23.8549688,15.4079625 23.5935938,15.3040875 23.2673438,15.3040875" id="Fill-17" fill="#FFFFFF"></path>
                <path d="M26.3600063,17.52045 L27.0833813,16.1067 L27.3601313,17.52045 L26.3600063,17.52045 Z M27.3950063,15.3042 L26.9956312,15.3042 L25.2158813,18.7090125 L25.7575688,18.7090125 L26.1316313,17.973075 L27.4439438,17.973075 L27.5909438,18.7090125 L28.1161312,18.7090125 L27.4073813,15.3636375 L27.3950063,15.3042 Z" id="Fill-19" fill="#FFFFFF"></path>
                <polygon id="Fill-21" fill="#FFFFFF" points="32.22075 17.7376125 31.0021875 15.3453 30.981 15.30405 30.54075 15.30405 30.0144375 18.70905 30.5146875 18.70905 30.8925 16.2678 32.1091875 18.6676125 32.13 18.70905 32.5708125 18.70905 33.0969375 15.30405 32.59725 15.30405"></polygon>
                <path d="M37.100775,16.9132688 L37.0867125,17.0047688 C37.02765,17.3876438 36.9603375,17.8226438 36.7308375,18.0285187 C36.5650875,18.1753312 36.36015,18.2467688 36.104775,18.2467688 L35.484525,18.2467688 L35.8687125,15.7663313 L36.5118375,15.7663313 C36.762525,15.7663313 36.9408375,15.8345813 37.0559625,15.9755813 C37.2159,16.1733938 37.1574,16.5498938 37.100775,16.9132688 M36.6198375,15.3041438 L35.4397125,15.3041438 L34.9132125,18.7089562 L36.116025,18.7089562 C36.47415,18.7089562 36.7915875,18.5985188 37.0345875,18.3890813 C37.4264625,18.0498938 37.5114,17.4956437 37.5794625,17.0507063 L37.6000875,16.9173938 C37.6690875,16.4790188 37.74765,15.9815813 37.4530875,15.6322688 C37.27065,15.4172063 36.9828375,15.3041438 36.6198375,15.3041438" id="Fill-23" fill="#FFFFFF"></path>
                <path d="M40.1881313,17.52045 L40.9109438,16.1067 L41.1878813,17.52045 L40.1881313,17.52045 Z M41.2227563,15.3042 L40.8231938,15.3042 L39.0440063,18.7090125 L39.5851313,18.7090125 L39.9591938,17.973075 L41.2715063,17.973075 L41.4185063,18.7090125 L41.9436938,18.7090125 L41.2349437,15.3636375 L41.2227563,15.3042 Z" id="Fill-25" fill="#FFFFFF"></path>
                <path d="M47.393325,15.7294875 C47.6907,15.7294875 47.8817625,15.8033625 48.0535125,15.98505 L48.1030125,16.0377375 L48.47595,15.7143 L48.4217625,15.656925 C48.1637625,15.3867375 47.88345,15.27705 47.453325,15.27705 C46.7811375,15.27705 46.2868875,15.6623625 46.194075,16.2593625 C46.1511375,16.5421125 46.2096375,16.7682375 46.3682625,16.93155 C46.5021375,17.066175 46.7046375,17.1563625 46.9707,17.1994875 L47.340825,17.2591125 C47.5637625,17.29455 47.62395,17.31705 47.6995125,17.3929875 C47.769075,17.46255 47.794575,17.584425 47.77095,17.735175 C47.718825,18.0728625 47.4250125,18.2746125 46.98495,18.2746125 C46.623825,18.2746125 46.4142,18.18555 46.2111375,17.9448 L46.161825,17.8864875 L45.7727625,18.222675 L45.821325,18.28005 C46.0956375,18.6038625 46.416075,18.73605 46.9277625,18.73605 C47.649825,18.73605 48.176325,18.34905 48.2695125,17.7488625 C48.314325,17.4537375 48.2466375,17.2083 48.073575,17.03955 C47.937825,16.90455 47.775075,16.8364875 47.473575,16.7899875 L47.12595,16.7356125 C46.9690125,16.709925 46.8272625,16.64955 46.7560125,16.577925 C46.689825,16.512675 46.667325,16.40805 46.6887,16.268925 C46.7406375,15.9361125 47.0102625,15.7294875 47.393325,15.7294875" id="Fill-27" fill="#FFFFFF"></path>
                <path d="M51.7704563,16.9079625 L51.0270188,16.9079625 L51.2040187,15.766275 L51.9705188,15.766275 C52.1675812,15.766275 52.3173937,15.8199 52.4042063,15.9213375 C52.4852063,16.01565 52.5129562,16.1508375 52.4855813,16.3239 C52.4291437,16.6949625 52.1683313,16.9079625 51.7704563,16.9079625 M52.0507688,15.3040875 L50.7750187,15.3040875 L50.2481437,18.7089 L50.7485813,18.7089 L50.9555813,17.37015 L51.7545188,17.37015 C52.3942688,17.37015 52.8875813,16.958775 52.9818937,16.3469625 C53.0285812,16.0488375 52.9678313,15.79215 52.8071438,15.6044625 C52.6391437,15.4079625 52.3770188,15.3040875 52.0507688,15.3040875" id="Fill-29" fill="#FFFFFF"></path>
                <path d="M56.7501938,16.9947563 C56.6457563,17.6733187 56.5908188,17.8692562 56.3750063,18.0605063 C56.2221938,18.1966313 56.0219438,18.2746313 55.8267563,18.2746313 C55.6362563,18.2746313 55.4656313,18.1998188 55.3593188,18.0693188 C55.2089438,17.8859438 55.2149438,17.6916937 55.3186313,17.0183813 C55.4243813,16.3392563 55.4798813,16.1427563 55.6951313,15.9526312 C55.8479438,15.8163188 56.0480063,15.7385063 56.2428187,15.7385063 C56.4329438,15.7385063 56.6033813,15.8133188 56.7100688,15.9438188 C56.8611937,16.1273812 56.8553813,16.3214438 56.7501938,16.9947563 M56.2911938,15.2770687 C55.9493813,15.2770687 55.6266938,15.4002562 55.3576312,15.6333188 C54.9830063,15.9578812 54.9293812,16.3041937 54.8225063,16.9947563 C54.7145062,17.6898188 54.6606938,18.0380063 54.9415688,18.3713813 C55.1435063,18.6096938 55.4326313,18.7360688 55.7789438,18.7360688 C56.1200063,18.7360688 56.4426938,18.6128813 56.7125063,18.3796313 C57.0873188,18.0550688 57.1409438,17.7081937 57.2476313,17.0178187 C57.3552562,16.3231312 57.4088813,15.9745687 57.1280063,15.6415688 C56.9260688,15.4032563 56.6369438,15.2770687 56.2911938,15.2770687" id="Fill-31" fill="#FFFFFF"></path>
                <path d="M60.778875,16.8076125 L59.9986875,16.8076125 L60.1603125,15.7662375 L60.963375,15.7662375 C61.1476875,15.7662375 61.288125,15.8163 61.3695,15.911925 C61.4439375,15.9979875 61.46925,16.12155 61.4445,16.277175 C61.392375,16.614675 61.1499375,16.8076125 60.778875,16.8076125 M61.043625,15.30405 L59.7313125,15.30405 L59.204625,18.70905 L59.7046875,18.70905 L59.9285625,17.264925 L60.59175,17.264925 L61.08975,18.6588 L61.108125,18.70905 L61.677,18.70905 L61.124625,17.2113 C61.56825,17.090925 61.8710625,16.75455 61.9419375,16.2964875 L61.9425,16.2964875 C61.985625,16.0133625 61.9284375,15.7703625 61.776,15.5928 C61.614375,15.4038 61.36125,15.30405 61.043625,15.30405" id="Fill-33" fill="#FFFFFF"></path>
                <polygon id="Fill-35" fill="#FFFFFF" points="63.8779313 15.7662938 64.8193688 15.7662938 64.3635563 18.7089188 64.8639938 18.7089188 65.3190563 15.7662938 66.2606813 15.7662938 66.3315563 15.3041063 63.9493687 15.3041063"></polygon>
                <path d="M69.1995375,15.7294875 C69.496725,15.7294875 69.687975,15.8033625 69.859725,15.98505 L69.909225,16.0377375 L70.2821625,15.7143 L70.2277875,15.656925 C69.969975,15.3867375 69.6896625,15.27705 69.2595375,15.27705 C68.58735,15.27705 68.0936625,15.6623625 68.0014125,16.2588 C67.95735,16.5421125 68.01585,16.7682375 68.1750375,16.93155 C68.30835,17.066175 68.51085,17.1563625 68.7769125,17.1994875 L69.1470375,17.2591125 C69.3697875,17.29455 69.429975,17.31705 69.505725,17.39355 C69.57585,17.4633 69.60135,17.584425 69.576975,17.735175 C69.5250375,18.0728625 69.231225,18.2746125 68.790975,18.2746125 C68.4304125,18.2746125 68.220975,18.18555 68.0179125,17.9448 L67.9686,17.88705 L67.578975,18.222675 L67.62735,18.28005 C67.90185,18.6038625 68.2221,18.73605 68.733975,18.73605 C69.4560375,18.73605 69.9825375,18.34905 70.0751625,17.7492375 C70.1211,17.4544875 70.0534125,17.2088625 69.8797875,17.03955 C69.7440375,16.90455 69.5811,16.8364875 69.2797875,16.79055 L68.931975,16.7356125 C68.7750375,16.709925 68.633475,16.64955 68.562225,16.577925 C68.4960375,16.512675 68.4735375,16.40805 68.4949125,16.268925 C68.54685,15.9361125 68.8162875,15.7294875 69.1995375,15.7294875" id="Fill-37" fill="#FFFFFF"></path>
                <path d="M27.3266063,5.60495625 L27.3479813,5.80876875 L29.1513563,5.80876875 C29.1785438,5.80876875 29.2053563,5.79639375 29.2252313,5.77501875 C29.2452938,5.75345625 29.2552313,5.72608125 29.2522313,5.69983125 L29.0549813,3.87845625 C29.0510438,3.84020625 29.0204813,3.81358125 28.9811063,3.81358125 L27.2562938,3.81358125 C27.2289188,3.81358125 27.2019188,3.82576875 27.1820438,3.84714375 C27.1619813,3.86851875 27.1524188,3.89589375 27.1546688,3.92214375 L27.2429813,4.80358125 L25.8764813,4.80358125 L26.6133563,3.43689375 C26.6281688,3.40970625 26.6292938,3.38026875 26.6163563,3.35645625 C26.6037938,3.33245625 26.5797938,3.31876875 26.5505438,3.31876875 L24.6299813,3.31876875 C24.5936063,3.31876875 24.5572313,3.34164375 24.5396063,3.37576875 L23.4372938,5.48776875 C23.4232313,5.51514375 23.4228563,5.54420625 23.4354188,5.56783125 C23.4485438,5.59126875 23.4721688,5.60495625 23.5010438,5.60495625 L27.3266063,5.60495625 Z" id="Fill-39" fill="#FFFFFF"></path>
                <path d="M30.6854063,13.6347562 C30.7054688,13.6116937 30.7144688,13.5831937 30.7097813,13.5561937 L30.3977813,11.7931312 C30.3914063,11.7573187 30.3621563,11.7335062 30.3244688,11.7335062 L28.6611563,11.7335062 C28.6328438,11.7335062 28.6049063,11.7468187 28.5848438,11.7696937 C28.5649688,11.7923813 28.5561563,11.8208812 28.5608438,11.8476937 L28.8728438,13.6109437 C28.8792188,13.6469437 28.9082813,13.6707562 28.9461563,13.6707562 L30.6094688,13.6707562 C30.6375938,13.6707562 30.6655313,13.6574437 30.6854063,13.6347562" id="Fill-41" fill="#FFFFFF"></path>
                <path d="M24.7992,11.7335813 L23.1342,11.7335813 C23.0961375,11.7335813 23.0590125,11.7577688 23.04195,11.7939563 L22.2122625,13.5575813 C22.1997,13.5842063 22.200075,13.6123313 22.212825,13.6352062 C22.22595,13.6578937 22.2497625,13.6708313 22.2777,13.6708313 L23.943075,13.6708313 C23.98095,13.6708313 24.018075,13.6462688 24.035325,13.6098938 L24.8650125,11.8468313 C24.877575,11.8202063 24.8772,11.7917063 24.864075,11.7692062 C24.85095,11.7463313 24.827325,11.7335813 24.7992,11.7335813" id="Fill-43" fill="#FFFFFF"></path>
                <path d="M29.1507938,9.8986875 C29.1916687,10.090875 29.2646062,10.2605625 29.3681063,10.4026875 C29.4706687,10.543875 29.6002313,10.6573125 29.7534188,10.7386875 C29.9051062,10.8196875 30.0774188,10.86075 30.2667938,10.86075 L33.8761687,10.86075 C33.9033563,10.86075 33.9303563,10.8485625 33.9504187,10.827 C33.9704812,10.80525 33.9800438,10.7776875 33.9774187,10.7514375 L33.9065437,10.0809375 C33.9026062,10.042875 33.8720438,10.015875 33.8322937,10.015875 L31.1538563,10.015875 C31.0134187,10.015875 30.9018563,9.9590625 30.8223562,9.8476875 C30.7456688,9.7395 30.7190438,9.6054375 30.7434188,9.4485 L30.8041688,9.0564375 L34.3406063,8.3855625 C34.3826062,8.3775 34.4176687,8.3416875 34.4242312,8.3004375 L34.5335437,7.593 C34.5376687,7.56675 34.5297937,7.542375 34.5121688,7.5256875 C34.4943562,7.5088125 34.4688563,7.5015 34.4427937,7.5075 L30.9387938,8.1856875 L31.0297312,7.5988125 C31.0372313,7.5508125 31.0040437,7.511625 30.9562312,7.511625 L29.4999187,7.511625 C29.4519188,7.511625 29.4067313,7.5508125 29.3994187,7.5988125 L29.1401063,9.2735625 C29.1056063,9.4959375 29.1091688,9.7059375 29.1507938,9.8986875" id="Fill-45" fill="#FFFFFF"></path>
                <path d="M30.0146062,6.23218125 C30.1158562,6.37768125 30.2450438,6.49280625 30.3980437,6.57474375 C30.5499187,6.65574375 30.7227937,6.69699375 30.9114187,6.69699375 L34.5207938,6.69699375 C34.5479812,6.69699375 34.5749813,6.68461875 34.5948562,6.66324375 C34.6149188,6.64168125 34.6244813,6.61430625 34.6218563,6.58768125 L34.5511687,5.91680625 C34.5472312,5.87855625 34.5166687,5.85174375 34.4769187,5.85174375 L31.7982937,5.85174375 C31.6576687,5.85174375 31.5459187,5.79493125 31.4666062,5.68336875 C31.3901062,5.57518125 31.3636687,5.44111875 31.3880437,5.28436875 L31.4306062,5.00893125 L34.9670438,4.33843125 C35.0090437,4.33055625 35.0442937,4.29455625 35.0506687,4.25311875 L35.1581063,3.55936875 C35.1620437,3.53311875 35.1543562,3.50874375 35.1369187,3.49205625 C35.1264187,3.48249375 35.1046687,3.46693125 35.0677312,3.47386875 L31.5654188,4.13818125 L31.6786687,3.40561875 C31.6863562,3.35780625 31.6531687,3.31861875 31.6051688,3.31861875 L30.1490438,3.31861875 C30.1010437,3.31861875 30.0558562,3.35780625 30.0485438,3.40561875 L29.7869813,5.09518125 C29.7526687,5.31736875 29.7560437,5.52736875 29.7976687,5.71993125 C29.8385437,5.91286875 29.9112937,6.08518125 30.0146062,6.23218125" id="Fill-47" fill="#FFFFFF"></path>
                <path d="M27.7715625,13.6708313 C27.7996875,13.6708313 27.827625,13.6575188 27.8475,13.6348313 C27.8675625,13.6121438 27.8765625,13.5834563 27.87225,13.5566438 L27.571125,11.7933938 C27.5645625,11.7577688 27.535125,11.7335813 27.4974375,11.7335813 L25.8346875,11.7335813 C25.8065625,11.7335813 25.7788125,11.7467063 25.7585625,11.7695812 C25.7386875,11.7922688 25.729875,11.8209563 25.7345625,11.8475813 L26.0465625,13.6110187 C26.05275,13.6470188 26.082,13.6708313 26.119875,13.6708313 L27.7715625,13.6708313 Z" id="Fill-49" fill="#FFFFFF"></path>
                <path d="M27.1436813,7.59905625 L24.9793687,7.59905625 L25.0873687,6.90080625 L27.2518687,6.90080625 L27.1436813,7.59905625 Z M26.9273063,8.99649375 L24.7629937,8.99649375 L24.8689312,8.31324375 L27.0332438,8.31324375 L26.9273063,8.99649375 Z M28.9033687,6.20105625 L23.6653687,6.20105625 C23.6173687,6.20105625 23.5723687,6.24005625 23.5650562,6.28805625 L22.8413062,10.9629938 C22.8338062,11.0109938 22.8668062,11.0499938 22.9148062,11.0499938 L24.3581813,11.0499938 C24.4059938,11.0499938 24.4511812,11.0109938 24.4586813,10.9629938 L24.6525562,9.71068125 L26.8166812,9.71068125 L26.8033688,9.79768125 C26.7789938,9.95461875 26.7109313,10.0888687 26.6004938,10.1968688 C26.4874313,10.3084313 26.3582437,10.3652438 26.2172437,10.3652438 L26.1484313,10.3652438 L25.8833062,10.9373063 C25.8705562,10.9639312 25.8709312,10.9922438 25.8842437,11.0147438 C25.8975563,11.0370562 25.9209938,11.0499938 25.9487438,11.0499938 L26.8673063,11.0499938 C27.0566813,11.0499938 27.2417437,11.0091187 27.4185563,10.9281187 C27.5966812,10.8463687 27.7613063,10.7312438 27.9079312,10.5859313 C28.0560562,10.4389312 28.1822437,10.2668063 28.2836813,10.0733062 C28.3849313,9.87980625 28.4533688,9.66961875 28.4876813,9.44836875 L28.9768687,6.28805625 C28.9843688,6.24005625 28.9513688,6.20105625 28.9033687,6.20105625 L28.9033687,6.20105625 Z" id="Fill-51" fill="#FFFFFF"></path>
                <g transform="translate(60.375000, 3.187500)">
                    <mask id="mask-19" fill="white">
                        <use xlink:href="#path-18"></use>
                    </mask>
                    <g id="Clip-54"></g>
                    <path d="M11.7857063,0.88805625 L7.22626875,0.88805625 L7.10814375,0.19130625 C7.10176875,0.15530625 7.07233125,0.13111875 7.03426875,0.13111875 L5.56933125,0.13111875 C5.54083125,0.13111875 5.51308125,0.14424375 5.49283125,0.16730625 C5.47314375,0.18999375 5.46433125,0.21811875 5.46864375,0.24474375 L5.57776875,0.88805625 L0.47064375,0.88805625 C0.42264375,0.88805625 0.37764375,0.92705625 0.37014375,0.97505625 L0.23251875,1.86455625 C0.22520625,1.91236875 0.25820625,1.95136875 0.30601875,1.95136875 L1.22908125,1.95136875 L0.15545625,3.88486875 C0.14026875,3.91224375 0.13858125,3.94168125 0.15151875,3.96605625 C0.16408125,3.99024375 0.18826875,4.00430625 0.21770625,4.00430625 L9.57733125,4.00430625 L9.61820625,4.25199375 L11.0872687,4.25199375 C11.1157688,4.25199375 11.1437063,4.23868125 11.1639563,4.21524375 C11.1838313,4.19199375 11.1924563,4.16330625 11.1872062,4.13649375 L10.8630188,2.47505625 C10.8562688,2.44018125 10.8270188,2.41674375 10.7900813,2.41674375 L9.37295625,2.41674375 C9.34408125,2.41674375 9.31614375,2.43043125 9.29589375,2.45424375 C9.27583125,2.47786875 9.26758125,2.50693125 9.27358125,2.53411875 L9.38776875,3.05743125 L2.25733125,3.05743125 L2.90083125,1.95136875 L11.6210813,1.95136875 C11.6690812,1.95136875 11.7140812,1.91236875 11.7215813,1.86455625 L11.8593937,0.97505625 C11.8667063,0.92705625 11.8337062,0.88805625 11.7857063,0.88805625" id="Fill-53" fill="#FFFFFF" mask="url(#mask-19)"></path>
                </g>
                <path d="M45.1164,9.7392 L44.013525,9.7392 L44.2229625,8.385825 L45.3258375,8.385825 L45.1164,9.7392 Z M44.7895875,11.85045 C44.7652125,12.008325 44.6969625,12.140325 44.5867125,12.2436375 C44.473275,12.3497625 44.3455875,12.4033875 44.2059,12.4033875 L43.6012125,12.4033875 L43.8174,11.0065125 L44.920275,11.0065125 L44.7895875,11.85045 Z M42.50265,9.7392 L41.399775,9.7392 L41.6092125,8.385825 L42.7120875,8.385825 L42.50265,9.7392 Z M42.09015,12.4033875 L40.987275,12.4033875 L41.2034625,11.0065125 L42.3063375,11.0065125 L42.09015,12.4033875 Z M46.3327125,12.15645 L47.0992125,7.205325 C47.106525,7.157325 47.073525,7.118325 47.0257125,7.118325 L40.262025,7.118325 C40.214025,7.118325 40.169025,7.157325 40.161525,7.205325 L40.0942125,7.6412625 L39.17415,13.5838875 C39.1668375,13.6317 39.1998375,13.6708875 39.24765,13.6708875 L44.726025,13.6708875 C44.91615,13.6708875 45.1015875,13.632075 45.2778375,13.5552 C45.4554,13.477575 45.6190875,13.369575 45.7644,13.23345 C45.910275,13.0963875 46.0345875,12.933825 46.133775,12.7510125 C46.23315,12.56745 46.3000875,12.367575 46.3327125,12.15645 L46.3327125,12.15645 Z" id="Fill-55" fill="#FFFFFF"></path>
                <path d="M69.4774875,9.6372 L61.96605,9.6372 L62.0922375,8.8225125 L69.1054875,8.8225125 C69.2453625,8.8225125 69.356925,8.876325 69.4368,8.98245 C69.5148,9.0857625 69.5431125,9.213075 69.5202375,9.360825 L69.4774875,9.6372 Z M69.2273625,11.2532625 L61.715925,11.2532625 L61.8398625,10.4533875 L69.3511125,10.4533875 L69.2273625,11.2532625 Z M71.0208,8.2476375 C70.9264875,8.122575 70.7997375,8.02395 70.645425,7.9542 C70.5301125,7.9022625 70.3953,7.8756375 70.2439875,7.8756375 L60.6558,7.8756375 C60.6078,7.8756375 60.5626125,7.914825 60.5553,7.9626375 L59.867925,12.4033875 L58.2293625,12.4033875 L58.6969875,5.561325 L59.2789875,5.561325 C59.3268,5.561325 59.3719875,5.522325 59.3794875,5.474325 L59.5463625,4.3956375 C59.553675,4.347825 59.520675,4.3086375 59.47305,4.3086375 L56.3884875,4.3086375 L56.5283625,3.4056375 C56.5358625,3.357825 56.5028625,3.3186375 56.4548625,3.3186375 L54.99855,3.3186375 C54.95055,3.3186375 54.90555,3.357825 54.89805,3.4056375 L54.7583625,4.3086375 L51.6739875,4.3086375 C51.626175,4.3086375 51.5809875,4.347825 51.5734875,4.3956375 L51.4066125,5.474325 C51.3991125,5.522325 51.4323,5.561325 51.4801125,5.561325 L52.1153625,5.561325 L50.45355,12.4033875 L49.4832375,12.4033875 L50.2354875,7.5433875 L50.235675,7.5433875 L50.675175,4.70445 L50.68155,4.70445 L51.352425,3.4362 C51.3668625,3.4090125 51.3676125,3.3797625 51.35505,3.35595 C51.341925,3.332325 51.317925,3.3186375 51.28905,3.3186375 L49.8828,3.3186375 C49.8468,3.3186375 49.8106125,3.341325 49.7928,3.3748875 L49.31205,4.2793875 L47.0089875,4.2793875 L47.3652375,3.4277625 C47.3764875,3.4017 47.375175,3.3741375 47.3618625,3.352575 C47.34855,3.3310125 47.3253,3.3186375 47.2981125,3.3186375 L45.8254875,3.3186375 C45.786675,3.3186375 45.7482375,3.345075 45.731925,3.382575 L45.3438,4.2793875 L43.168425,4.2793875 L43.059675,3.382575 C43.055175,3.345075 43.0249875,3.3186375 42.9858,3.3186375 L41.3997375,3.3186375 L41.5036125,4.2793875 L40.7014875,4.2793875 L40.2657375,4.2793875 L40.9947375,3.3186375 L39.116925,3.3186375 C39.0863625,3.3186375 39.0548625,3.33495 39.035175,3.3612 L38.579175,3.9717 L38.22405,3.35445 C38.2113,3.33195 38.1871125,3.3186375 38.15955,3.3186375 L36.57855,3.3186375 C36.54555,3.3186375 36.5138625,3.3362625 36.494175,3.3655125 C36.4743,3.3947625 36.4711125,3.4285125 36.485925,3.4557 L37.519425,5.3537625 L35.9157375,7.4676375 C35.885925,7.5070125 35.8954875,7.5422625 35.900925,7.555575 C35.9063625,7.5688875 35.9238,7.599825 35.9697375,7.599825 L37.3673625,7.599825 L37.1584875,8.949075 L35.3228625,11.325075 C35.292675,11.364075 35.30205,11.3997 35.3074875,11.4133875 C35.312925,11.4267 35.33055,11.457825 35.3763,11.457825 L36.770175,11.457825 L36.6822375,12.0250125 C36.6593625,12.17295 36.591675,12.30045 36.4812375,12.4041375 C36.3687375,12.5097 36.245175,12.5635125 36.11355,12.5635125 L36.065925,12.5635125 L35.6224875,12.5635125 L33.3604875,12.5635125 L33.224175,11.793075 C33.2178,11.75745 33.18855,11.7336375 33.150675,11.7336375 L31.4989875,11.7336375 C31.470675,11.7336375 31.442925,11.7467625 31.422675,11.7696375 C31.4029875,11.792325 31.394175,11.8206375 31.3984875,11.84745 L31.6996125,13.6101375 C31.7058,13.6467 31.735425,13.6708875 31.7731125,13.6708875 L32.9573625,13.6708875 L33.435675,13.6708875 L35.0914875,13.6708875 L36.065925,13.6708875 L36.6154875,13.6708875 C36.7958625,13.6708875 36.9723,13.632075 37.1389875,13.5557625 C37.30755,13.479075 37.470675,13.35645 37.6122375,13.219575 C37.7539875,13.0828875 37.8768,12.91995 37.976175,12.7360125 C38.0757375,12.5530125 38.142675,12.3527625 38.1753,12.1416375 L38.5643625,9.6276375 L39.812925,8.0065125 L38.815425,8.0065125 L39.1684875,5.7257625 L39.3042375,5.5467 L40.505175,5.5467 L41.65905,5.5467 L41.759175,6.4142625 C41.7634875,6.4517625 41.79405,6.4783875 41.833425,6.4783875 L43.3141125,6.4783875 C43.3414875,6.4783875 43.368675,6.465825 43.3887375,6.4438875 C43.4088,6.42195 43.4183625,6.393825 43.4148,6.3673875 L43.3081125,5.5467 L44.8099875,5.5467 L44.460675,6.3687 C44.449425,6.39495 44.4503625,6.4227 44.4638625,6.4442625 C44.477175,6.465825 44.5002375,6.4783875 44.5276125,6.4783875 L45.9998625,6.4783875 C46.0384875,6.4783875 46.0773,6.452325 46.0936125,6.4152 L46.4753625,5.5467 L49.007175,5.5467 L48.7683,7.089825 L48.698175,7.5433875 L47.762925,13.5838875 C47.755425,13.6317 47.7886125,13.6708875 47.8366125,13.6708875 L48.567675,13.6708875 L49.2001125,13.6708875 L50.2407375,13.6708875 L51.2247375,13.6708875 L51.5494875,13.6708875 C51.59505,13.6708875 51.637425,13.6363875 51.648675,13.5910125 L53.5863,5.561325 L54.5643,5.561325 L53.728425,10.9618875 L52.88655,10.9618875 C52.83855,10.9618875 52.79355,11.001075 52.78605,11.0488875 L52.6189875,12.1277625 C52.611675,12.1757625 52.6448625,12.2147625 52.6924875,12.2147625 L53.53455,12.2147625 L53.3224875,13.5838875 C53.315175,13.6317 53.348175,13.6708875 53.3959875,13.6708875 L54.8523,13.6708875 C54.9003,13.6708875 54.9454875,13.6317 54.9528,13.5838875 L55.164675,12.2147625 L56.00655,12.2147625 C56.05455,12.2147625 56.09955,12.1757625 56.10705,12.1277625 L56.2741125,11.0488875 C56.281425,11.001075 56.248425,10.9618875 56.200425,10.9618875 L55.35855,10.9618875 L56.1946125,5.561325 L57.213675,5.561325 L56.67705,13.5912 C56.6742375,13.6363875 56.7061125,13.6708875 56.751675,13.6708875 L57.4263,13.6708875 L58.0478625,13.6708875 L59.7586125,13.6708875 L60.8178,13.6708875 L61.2548625,13.6708875 C61.3024875,13.6708875 61.3478625,13.6317 61.355175,13.5838875 L61.5918,12.054825 L69.1032375,12.054825 L69.0582375,12.3456375 C69.0353625,12.4933875 68.967675,12.6208875 68.857425,12.7243875 C68.744925,12.8301375 68.616675,12.88395 68.4766125,12.88395 L67.970925,12.88395 L68.31705,13.6300125 C68.3292375,13.6555125 68.35455,13.6708875 68.3843625,13.6708875 L69.1512375,13.6708875 C69.3408,13.6708875 69.5283,13.61745 69.704925,13.540575 C69.8823,13.4637 70.0458,13.3573875 70.1918625,13.224825 C70.3362375,13.0930125 70.4598,12.93345 70.5588,12.7510125 C70.658175,12.56745 70.7253,12.367575 70.757925,12.15645 L71.2223625,9.1570125 C71.2488,8.9847 71.2433625,8.8168875 71.20605,8.657325 C71.168925,8.499075 71.1063,8.3608875 71.0208,8.2476375 L71.0208,8.2476375 Z" id="Fill-57" fill="#FFFFFF"></path>
            </g>
        </g>
    </g>
</svg>