<?xml version="1.0" encoding="UTF-8"?>
<svg width="60px" height="60px" viewBox="0 0 60 60" version="1.1" xmlns="http://www.w3.org/2000/svg" xmlns:xlink="http://www.w3.org/1999/xlink">
    <!-- Generator: Sketch 54 (76480) - https://sketchapp.com -->
    <title>形状结合</title>
    <desc>Created with Sketch.</desc>
    <g id="页面1" stroke="none" stroke-width="1" fill="none" fill-rule="evenodd">
        <g id="结果为空" transform="translate(-651.000000, -312.000000)" fill="#788299">
            <path d="M662.472857,339.628714 L655.692857,354.855857 L673.037143,354.855857 C673.812857,354.855857 674.541429,355.370143 674.7,356.137286 C675.291429,359.073 677.888571,361.284429 681,361.284429 C684.111429,361.284429 686.708571,359.073 687.3,356.137286 C687.454286,355.370143 688.182857,354.855857 688.967143,354.855857 L706.311429,354.855857 L699.527143,339.628714 L699.458571,339.478714 L699.402857,339.320143 L662.592857,339.320143 L662.541429,339.478714 L662.472857,339.628714 Z M703.444286,337.884429 L711,354.855857 L711,367.713 C711,370.083 709.08,371.998714 706.714286,371.998714 L655.285714,371.998714 C652.92,371.998714 651,370.083 651,367.713 L651,354.855857 L658.56,337.884429 C659.168571,336.174429 660.78,335.034429 662.592857,335.034429 L699.402857,335.034429 C701.215714,335.034429 702.835714,336.174429 703.444286,337.884429 Z M681.000857,327.338571 C679.818,327.338571 678.858,326.378571 678.858,325.195714 L678.858,314.142857 C678.858,312.96 679.818,312 681.000857,312 C682.183714,312 683.143714,312.96 683.143714,314.142857 L683.143714,325.195714 C683.143714,326.378571 682.183714,327.338571 681.000857,327.338571 Z M663.707143,326.710714 L655.894286,318.893571 C655.054286,318.057857 655.054286,316.703571 655.894286,315.863571 C656.73,315.027857 658.084286,315.027857 658.924286,315.863571 L666.737143,323.680714 C667.572857,324.516429 667.572857,325.875 666.737143,326.710714 C666.317143,327.130714 665.768571,327.336429 665.224286,327.336429 C664.675714,327.336429 664.127143,327.130714 663.707143,326.710714 Z M696.775286,327.338571 C696.226714,327.338571 695.678143,327.128571 695.258143,326.712857 C694.422429,325.872857 694.422429,324.518571 695.258143,323.678571 L703.075286,315.865714 C703.911,315.025714 705.265286,315.025714 706.105286,315.865714 C706.941,316.701429 706.941,318.055714 706.105286,318.895714 L698.292429,326.712857 C697.872429,327.128571 697.323857,327.338571 696.775286,327.338571 Z" id="形状结合"></path>
        </g>
    </g>
</svg>