<?xml version="1.0" encoding="UTF-8"?>
<svg width="10px" height="11px" viewBox="0 0 10 11" version="1.1" xmlns="http://www.w3.org/2000/svg" xmlns:xlink="http://www.w3.org/1999/xlink">
    <!-- Generator: Sketch 61.2 (89653) - https://sketch.com -->
    <title>10</title>
    <desc>Created with Sketch.</desc>
    <g id="页面-1" stroke="none" stroke-width="1" fill="none" fill-rule="evenodd">
        <g id="组件" transform="translate(-977.000000, -595.000000)" fill="#3C4551" fill-rule="nonzero">
            <path d="M980.159,605.256 L980.159,596 L978.417,596 L977,597.105 L977,599.055 L978.417,598.041 L978.417,605.256 L980.159,605.256 Z M984.306,605.36 C984.93,605.36 985.541,605.165 985.957,604.762 C986.373,604.372 986.594,603.904 986.594,603.098 L986.594,598.158 C986.594,597.352 986.373,596.884 985.957,596.494 C985.541,596.091 984.93,595.896 984.306,595.896 C983.682,595.896 983.071,596.091 982.655,596.494 C982.239,596.884 982.018,597.352 982.018,598.158 L982.018,603.098 C982.018,603.904 982.239,604.372 982.655,604.762 C983.071,605.165 983.682,605.36 984.306,605.36 Z M984.306,603.8 C983.994,603.8 983.76,603.592 983.76,603.163 L983.76,598.093 C983.76,597.664 983.994,597.456 984.306,597.456 C984.618,597.456 984.852,597.664 984.852,598.093 L984.852,603.163 C984.852,603.592 984.618,603.8 984.306,603.8 Z" id="10"></path>
        </g>
    </g>
</svg>