<?xml version="1.0" encoding="UTF-8"?>
<svg width="18px" height="20px" viewBox="0 0 18 20" version="1.1" xmlns="http://www.w3.org/2000/svg" xmlns:xlink="http://www.w3.org/1999/xlink">
    <!-- Generator: Sketch 61.2 (89653) - https://sketch.com -->
    <title>2</title>
    <desc>Created with Sketch.</desc>
    <defs>
        <linearGradient x1="50%" y1="0%" x2="50%" y2="100%" id="linearGradient-1">
            <stop stop-color="#ADD6E8" offset="0%"></stop>
            <stop stop-color="#7E8EAE" offset="100%"></stop>
        </linearGradient>
    </defs>
    <g id="页面-1" stroke="none" stroke-width="1" fill="none" fill-rule="evenodd">
        <g id="组件" transform="translate(-942.000000, -516.000000)" fill="url(#linearGradient-1)">
            <path d="M951.160254,516.288675 L958.820508,520.711325 C959.129909,520.889958 959.320508,521.220085 959.320508,521.57735 L959.320508,530.42265 C959.320508,530.779915 959.129909,531.110042 958.820508,531.288675 L951.160254,535.711325 C950.850853,535.889958 950.469655,535.889958 950.160254,535.711325 L942.5,531.288675 C942.190599,531.110042 942,530.779915 942,530.42265 L942,521.57735 C942,521.220085 942.190599,520.889958 942.5,520.711325 L950.160254,516.288675 C950.469655,516.110042 950.850853,516.110042 951.160254,516.288675 Z M950.642254,520.92 C949.970254,520.92 949.298254,521.13 948.850254,521.564 C948.402254,521.984 948.164254,522.488 948.164254,523.356 L948.164254,523.888 L950.040254,523.888 L950.040254,523.286 C950.040254,522.824 950.306254,522.6 950.642254,522.6 C950.978254,522.6 951.216254,522.838 951.216254,523.3 C951.216254,523.958 951.048254,524.546 950.838254,524.91 L948.276254,529.404 L948.276254,531 L953.092254,531 L953.092254,529.32 L950.292254,529.32 L952.546254,525.47 C952.882254,524.896 953.092254,524.07 953.092254,523.37 C953.092254,522.502 952.784254,521.886 952.350254,521.494 C951.888254,521.074 951.314254,520.92 950.642254,520.92 Z" id="2"></path>
        </g>
    </g>
</svg>