<?xml version="1.0" encoding="UTF-8"?>
<svg width="18px" height="20px" viewBox="0 0 18 20" version="1.1" xmlns="http://www.w3.org/2000/svg" xmlns:xlink="http://www.w3.org/1999/xlink">
    <!-- Generator: Sketch 61.2 (89653) - https://sketch.com -->
    <title>3</title>
    <desc>Created with Sketch.</desc>
    <defs>
        <linearGradient x1="50%" y1="0%" x2="50%" y2="100%" id="linearGradient-1">
            <stop stop-color="#FFA8A1" offset="0%"></stop>
            <stop stop-color="#E18232" offset="100%"></stop>
        </linearGradient>
    </defs>
    <g id="页面-1" stroke="none" stroke-width="1" fill="none" fill-rule="evenodd">
        <g id="组件" transform="translate(-942.000000, -541.000000)" fill="url(#linearGradient-1)">
            <path d="M951.160254,541.288675 L958.820508,545.711325 C959.129909,545.889958 959.320508,546.220085 959.320508,546.57735 L959.320508,555.42265 C959.320508,555.779915 959.129909,556.110042 958.820508,556.288675 L951.160254,560.711325 C950.850853,560.889958 950.469655,560.889958 950.160254,560.711325 L942.5,556.288675 C942.190599,556.110042 942,555.779915 942,555.42265 L942,546.57735 C942,546.220085 942.190599,545.889958 942.5,545.711325 L950.160254,541.288675 C950.469655,541.110042 950.850853,541.110042 951.160254,541.288675 Z M950.642254,545.92 C949.970254,545.92 949.368254,546.116 948.920254,546.55 C948.472254,546.97 948.234254,547.516 948.234254,548.328 L948.234254,548.888 L950.110254,548.888 L950.110254,548.202 C950.110254,547.796 950.348254,547.6 950.642254,547.6 C950.852254,547.6 950.964254,547.684 951.048254,547.796 C951.216254,548.034 951.188254,548.482 951.188254,548.762 C951.188254,549.056 951.216254,549.574 951.020254,549.812 C950.936254,549.91 950.810254,549.98 950.628254,549.98 L950.180254,549.98 L950.180254,551.548 L950.628254,551.548 C950.866254,551.548 951.006254,551.646 951.104254,551.786 C951.251254,552.01875 951.25891,552.498031 951.258527,552.82993 L951.258024,553.219915 C951.254797,553.561235 951.23181,554.008889 951.090254,554.194 C951.006254,554.306 950.866254,554.432 950.642254,554.432 C950.306254,554.432 950.040254,554.208 950.040254,553.746 L950.040254,553.144 L948.164254,553.144 L948.164254,553.676 C948.164254,554.544 948.402254,555.048 948.850254,555.468 C949.298254,555.902 949.970254,556.112 950.642254,556.112 C951.314254,556.112 951.972254,555.902 952.420254,555.482 C953.148254,554.796 953.134273,553.998 953.134273,553.102 C953.134273,552.542 953.134273,551.954 952.868254,551.436 C952.728254,551.17 952.532254,550.96 952.280254,550.764 C952.518254,550.596 952.700254,550.386 952.826254,550.134 C953.050254,549.658 953.064254,549.14 953.064254,548.622 C953.064254,547.754 952.840254,547.012 952.350254,546.536 C951.958254,546.144 951.398254,545.92 950.642254,545.92 Z" id="3"></path>
        </g>
    </g>
</svg>