<?xml version="1.0" encoding="UTF-8"?>
<svg width="6px" height="11px" viewBox="0 0 6 11" version="1.1" xmlns="http://www.w3.org/2000/svg" xmlns:xlink="http://www.w3.org/1999/xlink">
    <!-- Generator: Sketch 61.2 (89653) - https://sketch.com -->
    <title>5</title>
    <desc>Created with Sketch.</desc>
    <g id="页面-1" stroke="none" stroke-width="1" fill="none" fill-rule="evenodd">
        <g id="组件" transform="translate(-948.000000, -595.000000)" fill="#3C4551" fill-rule="nonzero">
            <path d="M950.756,605.104 C951.38,605.104 951.991,604.896 952.407,604.506 C953.122,603.83 953.083,602.868 953.083,601.789 C953.083,600.827 953.057,599.813 952.654,599.319 C952.316,598.916 951.939,598.734 951.302,598.734 C951.081,598.734 950.834,598.799 950.639,598.903 C950.444,599.007 950.275,599.176 950.132,599.345 L950.132,597.304 L952.979,597.304 L952.979,595.744 L948.546,595.744 L948.546,600.996 L950.21,600.996 L950.21,600.931 C950.21,600.502 950.444,600.294 950.756,600.294 C950.964,600.294 951.12,600.385 951.224,600.567 C951.367,600.814 951.341,601.464 951.341,601.958 C951.341,602.452 951.367,603.297 951.185,603.544 C951.068,603.7 950.951,603.752 950.756,603.752 C950.444,603.752 950.21,603.544 950.21,603.115 L950.21,602.478 L948.468,602.478 L948.468,602.842 C948.468,603.648 948.689,604.116 949.105,604.506 C949.521,604.909 950.132,605.104 950.756,605.104 Z" id="5"></path>
        </g>
    </g>
</svg>