<?xml version="1.0" encoding="UTF-8"?>
<svg width="6px" height="10px" viewBox="0 0 6 10" version="1.1" xmlns="http://www.w3.org/2000/svg" xmlns:xlink="http://www.w3.org/1999/xlink">
    <!-- Generator: Sketch 61.2 (89653) - https://sketch.com -->
    <title>6</title>
    <desc>Created with Sketch.</desc>
    <g id="页面-1" stroke="none" stroke-width="1" fill="none" fill-rule="evenodd">
        <g id="组件" transform="translate(-979.000000, -496.000000)" fill="#3C4551" fill-rule="nonzero">
            <path d="M981.781,505.36 C982.548,505.36 983.263,505.113 983.666,504.489 C983.939,504.073 984.108,503.54 984.108,502.409 C984.108,501.174 983.965,500.615 983.627,500.16 C983.302,499.718 982.821,499.51 982.301,499.51 C982.171,499.51 981.976,499.523 981.846,499.601 L983.38,496 L981.56,496 L979.857,500.394 C979.649,500.927 979.48,501.694 979.48,502.409 C979.48,503.384 979.597,503.943 979.935,504.489 C980.286,505.035 980.91,505.36 981.781,505.36 Z M981.794,503.8 C981.625,503.8 981.469,503.722 981.378,503.592 C981.21875,503.34175 981.21875,502.812812 981.221238,502.5016 L981.222,502.383 C981.222,502.123 981.196,501.434 981.378,501.148 C981.469,501.018 981.625,500.94 981.794,500.94 C981.963,500.94 982.106,501.005 982.21,501.148 C982.36925,501.386875 982.36925,501.94425 982.366762,502.26275 L982.366,502.383 C982.366,502.656 982.392,503.319 982.21,503.592 C982.119,503.722 981.963,503.8 981.794,503.8 Z" id="6"></path>
        </g>
    </g>
</svg>