<?xml version="1.0" encoding="UTF-8"?>
<svg width="6px" height="11px" viewBox="0 0 6 11" version="1.1" xmlns="http://www.w3.org/2000/svg" xmlns:xlink="http://www.w3.org/1999/xlink">
    <!-- Generator: Sketch 61.2 (89653) - https://sketch.com -->
    <title>8</title>
    <desc>Created with Sketch.</desc>
    <g id="页面-1" stroke="none" stroke-width="1" fill="none" fill-rule="evenodd">
        <g id="组件" transform="translate(-979.000000, -545.000000)" fill="#3C4551" fill-rule="nonzero">
            <path d="M981.794,555.36 C982.418,555.36 983.029,555.165 983.445,554.762 C984.056,554.164 984.108,553.475 984.108,552.604 C984.108,552.097 984.069,551.564 983.861,551.135 C983.731,550.875 983.549,550.667 983.302,550.472 C983.523,550.29 983.679,550.095 983.796,549.861 C984.004,549.419 984.043,548.964 984.043,548.483 C984.043,547.69 983.913,547.014 983.38,546.481 C982.977,546.078 982.405,545.896 981.781,545.896 C981.157,545.896 980.611,546.078 980.208,546.481 C979.675,547.014 979.545,547.69 979.545,548.483 C979.545,548.964 979.584,549.419 979.792,549.861 C979.909,550.095 980.065,550.29 980.286,550.472 C980.039,550.667 979.857,550.875 979.727,551.135 C979.519,551.564 979.48,552.097 979.48,552.604 C979.48,553.475 979.532,554.164 980.143,554.762 C980.559,555.165 981.17,555.36 981.794,555.36 Z M981.794,549.744 C981.664,549.744 981.56,549.705 981.469,549.627 C981.222,549.406 981.287,548.808 981.287,548.574 C981.287,548.353 981.248,547.833 981.43,547.612 C981.521,547.508 981.651,547.456 981.794,547.456 C981.937,547.456 982.067,547.508 982.158,547.612 C982.34,547.833 982.301,548.353 982.301,548.574 C982.301,548.808 982.353,549.393 982.119,549.627 C982.041,549.705 981.924,549.744 981.794,549.744 Z M981.794,553.8 C981.625,553.8 981.469,553.735 981.378,553.605 C981.196,553.345 981.222,552.76 981.222,552.513 C981.222,552.266 981.183,551.655 981.378,551.395 C981.469,551.265 981.625,551.2 981.794,551.2 C981.963,551.2 982.106,551.265 982.21,551.395 C982.405,551.655 982.366,552.266 982.366,552.513 C982.366,552.76 982.392,553.358 982.21,553.605 C982.119,553.722 981.963,553.8 981.794,553.8 Z" id="8"></path>
        </g>
    </g>
</svg>