<?xml version="1.0" encoding="UTF-8"?>
<svg width="6px" height="11px" viewBox="0 0 6 11" version="1.1" xmlns="http://www.w3.org/2000/svg" xmlns:xlink="http://www.w3.org/1999/xlink">
    <!-- Generator: Sketch 61.2 (89653) - https://sketch.com -->
    <title>9</title>
    <desc>Created with Sketch.</desc>
    <g id="页面-1" stroke="none" stroke-width="1" fill="none" fill-rule="evenodd">
        <g id="组件" transform="translate(-979.000000, -570.000000)" fill="#3C4551" fill-rule="nonzero">
            <path d="M982.028,580.256 L983.731,575.862 C983.939,575.329 984.108,574.562 984.108,573.847 C984.108,572.872 983.991,572.313 983.653,571.767 C983.302,571.221 982.678,570.896 981.807,570.896 C981.04,570.896 980.325,571.143 979.922,571.767 C979.649,572.183 979.48,572.716 979.48,573.847 C979.48,575.082 979.623,575.641 979.961,576.096 C980.286,576.538 980.767,576.746 981.287,576.746 C981.417,576.746 981.612,576.733 981.742,576.655 L980.208,580.256 L982.028,580.256 Z M981.794,575.316 C981.625,575.316 981.482,575.251 981.378,575.108 C981.21875,574.869125 981.21875,574.31175 981.221238,573.99325 L981.222,573.873 C981.222,573.6 981.196,572.937 981.378,572.664 C981.469,572.534 981.625,572.456 981.794,572.456 C981.963,572.456 982.119,572.534 982.21,572.664 C982.36925,572.91425 982.36925,573.443187 982.366762,573.7544 L982.366,573.873 C982.366,574.133 982.392,574.822 982.21,575.108 C982.119,575.238 981.963,575.316 981.794,575.316 Z" id="9"></path>
        </g>
    </g>
</svg>