<?xml version="1.0" encoding="UTF-8"?>
<svg width="48px" height="48px" viewBox="0 0 48 48" version="1.1" xmlns="http://www.w3.org/2000/svg" xmlns:xlink="http://www.w3.org/1999/xlink">
    <!-- Generator: Sketch 61.2 (89653) - https://sketch.com -->
    <title>活跃用户数</title>
    <desc>Created with Sketch.</desc>
    <g id="页面-1" stroke="none" stroke-width="1" fill="none" fill-rule="evenodd">
        <g id="组件" transform="translate(-1292.000000, -487.000000)">
            <g id="活跃用户数" transform="translate(1292.000000, 487.000000)">
                <circle id="椭圆形备份" fill="#FFEBEB" cx="24" cy="24" r="24"></circle>
                <path d="M23.2562987,25.9988545 C23.0903184,26.4681905 23,26.9732762 23,27.4994559 C23,28.9134301 23.6522157,30.1750791 24.6722296,31 L17.9956281,30.9992908 C17.4499419,30.9992908 17,30.5516006 17,29.9993395 C17,27.857395 18.6841158,26.1084719 20.8003731,26.0044434 L21,25.999548 L23.2562987,25.9988545 Z M27.5,23.9996373 C29.4329966,23.9996373 31,25.5665594 31,27.4994559 C31,29.4323524 29.4329966,30.9992745 27.5,30.9992745 C25.5670034,30.9992745 24,29.4323524 24,27.4994559 C24,25.5665594 25.5670034,23.9996373 27.5,23.9996373 Z M27.5617821,25.9995336 C27.040288,26.3837625 26.6150429,27.0164704 26.7085425,27.7981687 C26.5940444,27.6689272 26.3797973,27.5199373 26.3165489,27.284702 C25.9638041,27.7286738 25.8700566,28.3713786 26.2200505,29.0043356 C26.2533,29.0605818 26.2952995,29.1300771 26.3465484,29.1898233 C26.4975463,29.3883099 26.859291,29.7492867 27.5165309,29.7492867 C28.0170238,29.7492867 28.3367688,29.5405505 28.5390167,29.3650619 C28.7407637,29.2025728 28.8795116,28.9210901 28.9427619,28.6858555 C29.1570086,27.7984136 28.7407648,27.0264669 28.1770227,26.6057443 C28.1770227,26.81773 28.0925241,27.0762134 28.0502746,27.2152031 C27.8060284,26.9004743 27.5617821,26.5827442 27.5617821,25.9995336 Z M24.0000094,17 C26.2090166,17 28.0000094,18.7909249 28.0000094,20.9997915 C28.0000094,21.7287429 27.8049615,22.4121738 27.4642098,23.0007422 C25.9216754,23.0122985 24.565114,23.7994698 23.7635186,24.9910259 C21.6643887,24.8701294 20.0000094,23.1291775 20.0000094,20.9997915 C20.0000094,18.7909112 21.7909997,17 24.0000094,17 Z" id="形状结合" fill="#FF4D40" fill-rule="nonzero"></path>
            </g>
        </g>
    </g>
</svg>