<?xml version="1.0" encoding="UTF-8"?>
<svg width="48px" height="48px" viewBox="0 0 48 48" version="1.1" xmlns="http://www.w3.org/2000/svg" xmlns:xlink="http://www.w3.org/1999/xlink">
    <!-- Generator: Sketch 61.2 (89653) - https://sketch.com -->
    <title>新增用户数</title>
    <desc>Created with Sketch.</desc>
    <g id="页面-1" stroke="none" stroke-width="1" fill="none" fill-rule="evenodd">
        <g id="组件" transform="translate(-1292.000000, -547.000000)">
            <g id="新增用户数" transform="translate(1292.000000, 547.000000)">
                <circle id="椭圆形备份-3" fill="#FFEBEB" cx="24" cy="24" r="24"></circle>
                <path d="M23.2562987,25.9988545 C23.0903184,26.4681905 23,26.9732762 23,27.4994559 C23,28.9134301 23.6522157,30.1750791 24.6722296,31 L17.9956281,30.9992908 C17.4499419,30.9992908 17,30.5516006 17,29.9993395 C17,27.857395 18.6841158,26.1084719 20.8003731,26.0044434 L21,25.999548 L23.2562987,25.9988545 Z M27.5,23.9996373 C29.4329966,23.9996373 31,25.5665594 31,27.4994559 C31,29.4323524 29.4329966,30.9992745 27.5,30.9992745 C25.5670034,30.9992745 24,29.4323524 24,27.4994559 C24,25.5665594 25.5670034,23.9996373 27.5,23.9996373 Z M27.5,24.9995855 C27.2928932,24.9995855 27.125,25.1674787 27.125,25.3745855 L27.125,25.3745855 L27.125,26.9985855 L25.3749806,26.9994818 C25.1678845,26.9994818 25,27.1673663 25,27.3744624 C25,27.5815584 25.1678845,27.7494429 25.3749806,27.7494429 L25.3749806,27.7494429 L27.125,27.7485855 L27.125,29.6243264 C27.125,29.8314331 27.2928932,29.9993264 27.5,29.9993264 C27.7071068,29.9993264 27.875,29.8314331 27.875,29.6243264 L27.875,29.6243264 L27.875,27.7485855 L29.6250194,27.7494429 C29.8321155,27.7494429 30,27.5815584 30,27.3744624 C30,27.1673663 29.8321155,26.9994818 29.6250194,26.9994818 L29.6250194,26.9994818 L27.875,26.9985855 L27.875,25.3745855 C27.875,25.1674787 27.7071068,24.9995855 27.5,24.9995855 Z M24.0000094,17 C26.2090166,17 28.0000094,18.7909249 28.0000094,20.9997915 C28.0000094,21.7287429 27.8049615,22.4121738 27.4642098,23.0007422 C25.9216754,23.0122985 24.565114,23.7994698 23.7635186,24.9910259 C21.6643887,24.8701294 20.0000094,23.1291775 20.0000094,20.9997915 C20.0000094,18.7909112 21.7909997,17 24.0000094,17 Z" id="形状结合备份-2" fill="#FF4D40" fill-rule="nonzero"></path>
            </g>
        </g>
    </g>
</svg>