<?xml version="1.0" encoding="UTF-8"?>
<svg width="10px" height="12px" viewBox="0 0 10 12" version="1.1" xmlns="http://www.w3.org/2000/svg" xmlns:xlink="http://www.w3.org/1999/xlink">
    <!-- Generator: Sketch 61.2 (89653) - https://sketch.com -->
    <title>复制备份</title>
    <desc>Created with Sketch.</desc>
    <g id="页面-1" stroke="none" stroke-width="1" fill="none" fill-rule="evenodd">
        <g id="1.3首页今日提投注金额赛事" transform="translate(-564.000000, -366.000000)" fill="#7D87A5" fill-rule="nonzero">
            <g id="编组-16" transform="translate(341.000000, 220.000000)">
                <g id="复制备份" transform="translate(223.000000, 146.000000)">
                    <path d="M2.53645899,1.23958139 L2.53645899,1.01041401 C2.53645899,0.49478841 2.93750157,0.0937458289 3.39583499,0.0937458289 L9.1250128,0.0937458289 C9.58334622,0.0937458289 9.9843888,0.49478841 9.9843888,1.01041401 L9.9843888,8.11459342 C9.9843888,8.63021902 9.58334622,9.0312616 9.1250128,9.0312616 L8.2656368,9.0312616 L8.2656368,2.95833339 C8.2656368,2.38541561 7.7500112,1.86979001 7.11980258,1.86979001 L2.53645899,1.86979001 L2.53645899,1.23958139 L2.53645899,1.23958139 Z M1.44791561,5.30728998 L6.0312498,5.30728998 L6.0312498,4.7343722 L1.44791561,4.7343722 L1.44791561,5.30728998 Z M1.44791561,9.31771579 L6.0312498,9.31771579 L6.0312498,8.74479801 L1.44791561,8.74479801 L1.44791561,9.31771579 Z M1.44791561,7.3125096 L6.0312498,7.3125096 L6.0312498,6.73959182 L1.44791561,6.73959182 L1.44791561,7.3125096 Z M0.874997829,2.3281288 L6.89062983,2.3281288 C7.34896325,2.3281288 7.75000583,2.72917138 7.75000583,3.1875048 L7.75000583,10.9218888 C7.75000583,11.3802222 7.34896325,11.7812648 6.89062983,11.7812648 L0.874997829,11.7812648 C0.41666441,11.7812648 0.0156218289,11.3802222 0.0156218289,10.9218888 L0.0156218289,3.1875048 C0.0156218289,2.72917138 0.41666441,2.3281288 0.874997829,2.3281288 Z" id="形状"></path>
                </g>
            </g>
        </g>
    </g>
</svg>