<?xml version="1.0" encoding="UTF-8"?>
<svg width="80px" height="28px" viewBox="0 0 80 28" version="1.1" xmlns="http://www.w3.org/2000/svg" xmlns:xlink="http://www.w3.org/1999/xlink">
    <!-- Generator: Sketch 58 (84663) - https://sketch.com -->
    <title>panda</title>
    <desc>Created with Sketch.</desc>
    <g id="页面-1" stroke="none" stroke-width="1" fill="none" fill-rule="evenodd">
        <g id="组件" transform="translate(-484.000000, -959.000000)" fill="#3263FF" fill-rule="nonzero">
            <g id="panda" transform="translate(484.000000, 959.000000)">
                <path d="M6.37549867,6.31606387 C6.34786753,6.47090258 6.45161467,6.59654611 6.60593204,6.59654611 L7.49690629,6.59654611 C8.41916111,6.59654611 9.09482093,6.43649396 9.52440711,6.11586836 C9.95347196,5.79628544 10.2125792,5.38651027 10.300686,4.88654285 C10.3867075,4.40117302 10.2970366,3.98931247 10.0337587,3.65200391 C9.76943807,3.314174 9.1902266,3.14525904 8.29716696,3.14525904 L7.21590271,3.14525904 C7.061064,3.14525904 6.91352409,3.27090258 6.88589295,3.42574129 L6.37549867,6.31606387 Z M2.63955864,0.280482242 C2.66718978,0.125643532 2.81472969,3.78364007e-13 2.9695684,3.78364007e-13 L10.6369519,3.78364007e-13 C12.3672875,3.78364007e-13 13.5913996,0.41186054 14.3077242,1.23453894 C15.0240487,2.05826002 15.2482259,3.22971653 14.9797346,4.74942978 C14.7039444,6.31137178 14.0178577,7.53235582 12.9235599,8.41186055 C11.8287408,9.29136527 10.317369,9.73137829 8.38892324,9.73137829 L6.05226635,9.73137829 C5.89742764,9.73137829 5.74988773,9.85702184 5.72225658,10.0118605 L4.80677922,15.1919192 C4.77914807,15.3472792 4.63160816,15.4724014 4.47676945,15.4724014 L0.23564856,15.4724014 C0.0808098504,15.4724014 -0.022415956,15.3472792 0.00417250923,15.1919192 L2.63955864,0.280482242 Z" id="Fill-1"></path>
                <path d="M23.3625545,9.50130987 L22.7995047,5.17990225 C22.7650962,4.91506027 22.3902509,4.91558162 22.2630433,5.18094493 L20.1860149,9.50235256 C20.0994722,9.68273705 20.2021765,9.86416422 20.3903813,9.86416422 L23.029938,9.86416422 C23.2191855,9.86416422 23.3860149,9.68169436 23.3625545,9.50130987 M23.6023722,13.2096188 L18.5922711,13.2096188 C18.4676702,13.2096188 18.3435907,13.2919909 18.2878071,13.410857 L17.2717107,15.5629586 C17.2154057,15.682346 17.0918475,15.7641968 16.9667253,15.7641968 L12.7000587,15.7641968 C12.5040339,15.7641968 12.4034148,15.5686934 12.5045552,15.3846595 L20.7443727,0.473222547 C20.8048485,0.363740633 20.9221505,0.291274031 21.0389313,0.291274031 L25.8660411,0.291274031 C25.9823004,0.291274031 26.0740567,0.363740633 26.0959531,0.473222547 L29.0649984,15.3846595 C29.1009711,15.5686934 28.9310133,15.7641968 28.7349885,15.7641968 L24.3411144,15.7641968 C24.2180776,15.7641968 24.1231933,15.6828674 24.1080744,15.565044 L23.8354122,13.4092929 C23.8208145,13.2909482 23.7259302,13.2096188 23.6023722,13.2096188" id="Fill-3"></path>
                <path d="M33.706406,0.291274031 L37.7415965,0.291274031 C37.8349169,0.291274031 37.9131184,0.337152167 37.9522189,0.413789507 L41.8242295,8.09889867 C41.939446,8.32724665 42.3158553,8.2172434 42.3643402,7.94093189 L43.6666536,0.571756273 C43.6942847,0.416917562 43.8418247,0.291274031 43.9966635,0.291274031 L47.9427045,0.291274031 C48.0975431,0.291274031 48.2012904,0.416917562 48.1736591,0.571756273 L45.5382731,15.4837146 C45.5116845,15.6385533 45.363102,15.7641968 45.2082633,15.7641968 L41.1303225,15.7641968 C41.0380449,15.7641968 40.9588009,15.7183187 40.9202216,15.6416813 L37.0685435,8.01913327 C36.9533267,7.79182796 36.5774389,7.90183122 36.5284327,8.17762138 L35.2375887,15.4837146 C35.2099576,15.6385533 35.0624176,15.7641968 34.9075791,15.7641968 L30.9719647,15.7641968 C30.8171262,15.7641968 30.7139004,15.6385533 30.7415315,15.4837146 L33.3758749,0.571756273 C33.403506,0.416917562 33.551046,0.291274031 33.706406,0.291274031" id="Fill-5"></path>
                <path d="M55.5758358,4.076116 L54.1807233,11.9692408 C54.1536136,12.1240795 54.2573607,12.249723 54.4121995,12.249723 L55.3031736,12.249723 C56.3020658,12.249723 57.0324665,12.1386771 57.4938547,11.9171065 C57.9547215,11.6950147 58.3540698,11.3086999 58.6913784,10.7560769 C59.0276442,10.2039752 59.3055196,9.30830889 59.5244835,8.07012056 C59.81435,6.43101987 59.7450115,5.30804822 59.3175105,4.70329098 C58.8889671,4.09801238 58.0563833,3.79563376 56.8181949,3.79563376 L55.9058456,3.79563376 C55.7510069,3.79563376 55.6034669,3.92075595 55.5758358,4.076116 L55.5758358,4.076116 Z M51.4139589,0.571652004 C51.4410687,0.416813295 51.58913,0.291169762 51.7434475,0.291169762 L58.5662562,0.291169762 C59.966582,0.291169762 61.0640078,0.480938416 61.8590551,0.861518409 C62.6535809,1.24157706 63.2698078,1.78637993 63.7077355,2.49749104 C64.1446204,3.2080808 64.4063344,4.03492995 64.4933985,4.97751711 C64.5799413,5.92062562 64.5304138,6.91951776 64.3432518,7.97523624 C64.0518215,9.62841316 63.6368329,10.9109156 63.0993287,11.8217009 C62.5613033,12.7330075 61.9044118,13.4967742 61.1270902,14.1124796 C60.3497687,14.7281851 59.5599349,15.1379603 58.7570675,15.3418051 C57.6585989,15.6233301 56.6836885,15.7640925 55.8323362,15.7640925 L49.0095275,15.7640925 C48.8546889,15.7640925 48.7514631,15.6389703 48.7790942,15.4836103 L51.4139589,0.571652004 Z" id="Fill-7"></path>
                <path d="M74.0666536,9.50130987 L73.5030824,5.17990225 C73.4691951,4.91506027 73.0938285,4.91558162 72.9666211,5.18094493 L70.8895927,9.50235256 C70.8030498,9.68273705 70.9062756,9.86416422 71.0944804,9.86416422 L73.7340371,9.86416422 C73.9232845,9.86416422 74.090114,9.68169436 74.0666536,9.50130987 M74.3064711,13.2096188 L69.2958487,13.2096188 C69.171248,13.2096188 69.0476898,13.2919909 68.9913847,13.410857 L67.9752884,15.5629586 C67.9195047,15.682346 67.7954253,15.7641968 67.6708244,15.7641968 L63.4041576,15.7641968 C63.2081329,15.7641968 63.1075138,15.5686934 63.2086544,15.3846595 L71.4484718,0.473222547 C71.5089475,0.363740633 71.6257282,0.291274031 71.7430304,0.291274031 L76.5696187,0.291274031 C76.6863995,0.291274031 76.7781558,0.363740633 76.8000522,0.473222547 L79.768576,15.3846595 C79.80507,15.5686934 79.6351124,15.7641968 79.4390876,15.7641968 L75.0452135,15.7641968 C74.9216553,15.7641968 74.8267709,15.6828674 74.8121733,15.565044 L74.5395113,13.4092929 C74.5243924,13.2909482 74.429508,13.2096188 74.3064711,13.2096188" id="Fill-9"></path>
                <g id="编组" opacity="0.600000024" transform="translate(0.000000, 18.181818)">
                    <path d="M0.34518084,6.45656565 L2.75899642,6.30694036 C2.84501793,6.3012056 2.90966438,6.36063864 2.90966438,6.44509613 C2.90862171,6.81420658 2.97014011,7.10042358 3.09369827,7.30478984 C3.32152493,7.67859238 3.70836104,7.86523298 4.25420658,7.86523298 C4.66085369,7.86523298 4.99190616,7.76982731 5.24579993,7.57849462 C5.50021505,7.38768329 5.64984035,7.16611275 5.69415445,6.91430433 C5.73638318,6.67500815 5.66913002,6.46125775 5.49291625,6.27201042 C5.31618116,6.08328445 4.86052785,5.904464 4.12647767,5.73659173 C2.92478331,5.45558815 2.09897687,5.0817856 1.64853698,4.61622678 C1.19340502,4.15014664 1.02918214,3.55633756 1.15743239,2.83427827 C1.24136852,2.35985664 1.45772564,1.91150211 1.80754643,1.48973607 C2.15684587,1.06744868 2.6286608,0.735874878 3.22351255,0.49449332 C3.81784295,0.253633105 4.59620724,0.132160313 5.55756273,0.132160313 C6.73736071,0.132160313 7.59757576,0.351645487 8.13925056,0.790615836 C8.64547409,1.20039101 8.89311176,1.8364288 8.88112089,2.69872924 C8.87955685,2.79726295 8.79144998,2.88901922 8.69083089,2.894754 L6.30464647,3.03343109 C6.22227436,3.03760182 6.15867058,2.98338222 6.15502118,2.90413816 C6.1367742,2.55848811 6.04136853,2.30198762 5.86828284,2.13515804 C5.6727794,1.94643205 5.37352884,1.85154773 4.97053111,1.85154773 C4.63843596,1.85154773 4.37620071,1.92192896 4.18382535,2.06217009 C3.99092864,2.20345389 3.87675464,2.37445422 3.84130336,2.5756924 C3.81523624,2.72271098 3.86111436,2.85513196 3.97893776,2.97243402 C4.09206907,3.09442815 4.39079831,3.2080808 4.87564678,3.31234929 C6.07525578,3.58084067 6.92035191,3.85298142 7.41145651,4.12772891 C7.90203975,4.40299773 8.23465624,4.74395569 8.40826327,5.15112415 C8.58187031,5.5582926 8.62409905,6.01394591 8.53494949,6.51756273 C8.430681,7.10980776 8.17000978,7.65565331 7.75449984,8.15509938 C7.33846856,8.65454545 6.81399804,9.03304007 6.18056696,9.2911046 C5.54765722,9.54969045 4.78389051,9.67898338 3.8897882,9.67898338 C2.31950473,9.67898338 1.28568263,9.37660476 0.788321929,8.77184751 C0.322241773,8.20619095 0.112140763,7.49820789 0.155933529,6.64581296 C0.160625611,6.54988596 0.247168458,6.46230042 0.34518084,6.45656565" id="Fill-11"></path>
                    <path d="M13.2575823,4.05807755 C13.2414207,4.15087651 13.3029391,4.22542847 13.395738,4.22542847 L13.926986,4.22542847 C14.4770023,4.22542847 14.88,4.13054415 15.1365005,3.93869013 C15.393001,3.74787878 15.5473183,3.50389051 15.5999739,3.20516129 C15.6510655,2.91581622 15.5973672,2.67026393 15.4404431,2.4685044 C15.2829977,2.26674487 14.937869,2.16664711 14.4040143,2.16664711 L13.7596351,2.16664711 C13.6668361,2.16664711 13.5787292,2.24172044 13.5625676,2.33347671 L13.2575823,4.05807755 Z M11.0293646,0.4571652 C11.0455262,0.364887585 11.1336331,0.289814271 11.2259107,0.289814271 L15.8001694,0.289814271 C16.8324275,0.289814271 17.5628283,0.535366569 17.9903291,1.02699251 C18.4173085,1.5180971 18.5512936,2.216696 18.3912415,3.12331053 C18.2264973,4.05547084 17.8177647,4.7843076 17.1645227,5.30825676 C16.5112805,5.83324862 15.6098794,6.09548387 14.4592766,6.09548387 L13.0652069,6.09548387 C12.9724079,6.09548387 12.8843011,6.17107853 12.8681395,6.26335615 L12.3217726,9.35387422 C12.3056109,9.44615184 12.2175041,9.52174649 12.1252265,9.52174649 L9.59463016,9.52174649 C9.50235256,9.52174649 9.44083415,9.44615184 9.45699576,9.35387422 L11.0293646,0.4571652 Z" id="Fill-13"></path>
                    <path d="M22.0587813,4.92460085 C21.8945585,5.85623982 21.9492995,6.52616487 22.2235256,6.93333333 C22.4977516,7.3405018 22.9330727,7.54382535 23.5289671,7.54382535 C24.1420658,7.54382535 24.6519387,7.34519387 25.0580645,6.94584555 C25.4641904,6.54701858 25.7587487,5.83121538 25.9412187,4.79843596 C26.0944933,3.92987944 26.0314109,3.29436298 25.7519713,2.89345064 C25.4725318,2.49305964 25.0325187,2.29234278 24.4324536,2.29234278 C23.8568915,2.29234278 23.3590095,2.49618769 22.938286,2.9028348 C22.5186055,3.31000325 22.2250896,3.98409905 22.0587813,4.92460085 M19.2086022,4.91208864 C19.4750082,3.40488758 20.1021831,2.23134571 21.0901271,1.39198436 C22.0780711,0.552101662 23.3214727,0.132420984 24.8203324,0.132420984 C26.3562073,0.132420984 27.4677093,0.545324209 28.1527533,1.37008798 C28.8383187,2.19485175 29.0494624,3.35014664 28.7872271,4.83649396 C28.5964158,5.91515151 28.2585858,6.800391 27.773216,7.49064842 C27.2878462,8.18090584 26.6684915,8.71840991 25.9146302,9.10263929 C25.1602476,9.48686869 24.2708375,9.67872271 23.2463995,9.67872271 C22.2052785,9.67872271 21.373216,9.51293582 20.7491691,9.181362 C20.1256435,8.84926685 19.6652982,8.32479635 19.3686544,7.60742913 C19.0714891,6.88954056 19.0177907,5.99074616 19.2086022,4.91208864" id="Fill-15"></path>
                    <path d="M33.3985011,3.86309547 C33.3823395,3.95537309 33.443858,4.0304464 33.5366569,4.0304464 L34.5715216,4.0304464 C34.7018573,4.0304464 34.9609645,3.98821765 35.3493645,3.90428153 C35.5453895,3.86674487 35.7163896,3.76977516 35.8639296,3.61441513 C36.0109482,3.45957642 36.1021831,3.28127729 36.1376344,3.07951776 C36.19029,2.78130987 36.1360704,2.55244053 35.9754969,2.39343109 C35.8149235,2.23337895 35.4739655,2.15413489 34.9536656,2.15413489 L33.8677093,2.15413489 C33.7754318,2.15413489 33.6873249,2.22868687 33.6706418,2.32148582 L33.3985011,3.86309547 Z M29.563506,9.35387422 L31.1353535,0.4571652 C31.1515151,0.364887585 31.239622,0.289814271 31.3318996,0.289814271 L35.919192,0.289814271 C36.8002607,0.289814271 37.4613229,0.365408927 37.9002933,0.51659824 C38.3397849,0.667787553 38.6661453,0.947748453 38.8788531,1.35700228 C39.0920822,1.76677745 39.1463016,2.26518084 39.0425545,2.85325513 C38.9523624,3.36521342 38.7652004,3.80679049 38.4810687,4.17798631 C38.1969371,4.54970349 37.8429456,4.85156076 37.4206582,5.08199413 C37.260606,5.16905833 37.0713587,5.24673835 36.8518736,5.31607689 C36.7012056,5.3640404 36.6558487,5.56215055 36.7804496,5.62575431 C36.8862822,5.67945258 36.9717824,5.7336722 37.0369502,5.78737047 C37.1276638,5.86296513 37.2517433,6.02458129 37.406582,6.27274031 C37.561942,6.52089931 37.6620398,6.712232 37.7053111,6.84673835 L38.5311176,9.27723689 C38.5686544,9.38880416 38.4643858,9.52174649 38.3392636,9.52174649 L35.4906484,9.52174649 C35.42913,9.52174649 35.3785598,9.48733789 35.3587487,9.43363962 L34.3645487,6.70024113 C34.2357771,6.33478005 34.1054415,6.09809058 33.9740633,5.98860867 C33.7931575,5.84628218 33.5731509,5.77485825 33.3124796,5.77485825 L33.2280222,5.77485825 C33.1357445,5.77485825 33.0476376,5.84993158 33.031476,5.94168785 L32.4282829,9.35387422 C32.4115998,9.44615184 32.3234929,9.52174649 32.2317367,9.52174649 L29.7006191,9.52174649 C29.6083415,9.52174649 29.5468231,9.44615184 29.563506,9.35387422 L29.563506,9.35387422 Z" id="Fill-17"></path>
                    <path d="M40.5633627,0.290022809 L48.8996285,0.290022809 C48.9924275,0.290022809 49.053946,0.365096122 49.0377844,0.456852395 L48.6942196,2.40198111 C48.6775367,2.49478005 48.5894298,2.56933204 48.4971522,2.56933204 L45.9222418,2.56933204 C45.8304855,2.56933204 45.7418573,2.64440535 45.7251744,2.73668296 L44.5563245,9.35408276 C44.5401629,9.44636038 44.4515347,9.52143369 44.3592571,9.52143369 L41.8411731,9.52143369 C41.7488955,9.52143369 41.6873769,9.44636038 41.70406,9.35408276 L42.8734311,2.73668296 C42.8895927,2.64440535 42.8275529,2.56933204 42.7352753,2.56933204 L40.1608864,2.56933204 C40.0686087,2.56933204 40.0070902,2.49478005 40.0232518,2.40198111 L40.3668165,0.456852395 C40.3829782,0.365096122 40.4710851,0.290022809 40.5633627,0.290022809" id="Fill-19"></path>
                    <path d="M48.9456109,6.45656565 L51.3594265,6.30694036 C51.4449267,6.3012056 51.5100945,6.36063864 51.5095731,6.44509613 C51.5090518,6.81420658 51.5700489,7.10042358 51.6936071,7.30478984 C51.9219551,7.67859238 52.3082698,7.86523298 52.8541153,7.86523298 C53.2612838,7.86523298 53.5923362,7.76982731 53.84623,7.57849462 C54.1006451,7.38768329 54.2497491,7.16611275 54.2945845,6.91430433 C54.3368133,6.67500815 54.2695602,6.46125775 54.0928251,6.27201042 C53.91609,6.08328445 53.460958,5.904464 52.7269078,5.73659173 C51.5252135,5.45558815 50.6988856,5.0817856 50.2484458,4.61622678 C49.7933138,4.15014664 49.6296122,3.55633756 49.7573411,2.83427827 C49.8412773,2.35985664 50.0581558,1.91150211 50.4074553,1.48973607 C50.757276,1.06744868 51.2290909,0.735874878 51.8239427,0.49449332 C52.4182731,0.253633105 53.196116,0.132160313 54.1579929,0.132160313 C55.3372695,0.132160313 56.1980058,0.351645487 56.7396807,0.790615836 C57.2459042,1.20039101 57.4930205,1.8364288 57.4810296,2.69872924 C57.4799869,2.79726295 57.3918802,2.88901922 57.2912609,2.894754 L54.9045553,3.03343109 C54.8221831,3.03760182 54.7591007,2.98338222 54.7554513,2.90413816 C54.7366829,2.55848811 54.6412773,2.30198762 54.4681916,2.13515804 C54.2726882,1.94643205 53.9739589,1.85154773 53.5704398,1.85154773 C53.238866,1.85154773 52.9766309,1.92192896 52.7837342,2.06217009 C52.5908375,2.20345389 52.4766635,2.37445422 52.4412122,2.5756924 C52.4151449,2.72271098 52.4615445,2.85513196 52.5793678,2.97243402 C52.6919778,3.09442815 52.9912284,3.2080808 53.4760769,3.31234929 C54.6756858,3.58084067 55.5202607,3.85298142 56.0118865,4.12772891 C56.5024698,4.40299773 56.8345651,4.74395569 57.008172,5.15112415 C57.1817791,5.5582926 57.2240078,6.01394591 57.1353796,6.51756273 C57.0305898,7.10980776 56.7704398,7.65565331 56.35493,8.15509938 C55.9388987,8.65454545 55.4144282,9.03304007 54.7809971,9.2911046 C54.1480873,9.54969045 53.3843205,9.67898338 52.4896969,9.67898338 C50.9199349,9.67898338 49.8861127,9.37660476 49.3882307,8.77184751 C48.9226718,8.20619095 48.7120495,7.49820789 48.7563636,6.64581296 C48.7610556,6.54988596 48.8475985,6.46230042 48.9456109,6.45656565" id="Fill-21"></path>
                </g>
            </g>
        </g>
    </g>
</svg>