<?xml version="1.0" encoding="UTF-8"?>
<svg width="592px" height="333px" viewBox="0 0 592 333" version="1.1" xmlns="http://www.w3.org/2000/svg" xmlns:xlink="http://www.w3.org/1999/xlink">
    <!-- Generator: Sketch 61.1 (89650) - https://sketch.com -->
    <title>logo</title>
    <desc>Created with Sketch.</desc>
    <g id="logo" stroke="none" stroke-width="1" fill="none" fill-rule="evenodd">
        <g id="编组-39" fill="#FFFFFF" fill-rule="nonzero">
            <g id="编组" transform="translate(0.000000, 268.000000)">
                <path d="M11.0645825,1.17010643 C11.198392,0.507741877 11.769251,0.0237527616 12.4445825,0.00010642732 L44.4445825,0.00010642732 C51.6712491,0.00010642732 56.7812491,1.71677309 59.7745825,5.15010643 C62.7679158,8.58343976 63.7045825,13.4767731 62.5845825,19.8301064 C61.4312491,26.3501064 58.5679158,31.4467731 53.9945825,35.1201064 C49.4212491,38.7934398 43.1112491,40.6301064 35.0645825,40.6301064 L25.3045825,40.6301064 C24.6306367,40.6573208 24.0616853,41.1396927 23.9245825,41.8001064 L20.1045825,63.4301064 C19.9741407,64.0944537 19.401319,64.5801069 18.7245825,64.6002129 L1.01458246,64.6002129 C0.717100771,64.6044425 0.433135607,64.4760948 0.239835095,64.2499332 C0.0465345821,64.0237716 -0.0360263966,63.7232837 0.0145824615,63.4301064 L11.0645825,1.17010643 Z M26.6645825,26.3701064 C26.6139736,26.6632837 26.6965346,26.9637716 26.8898351,27.1899332 C27.0831356,27.4160948 27.3671008,27.5444425 27.6645825,27.5402129 L31.3945825,27.5402129 C35.2345825,27.5402129 38.0545825,26.8734398 39.8545825,25.5401064 C41.5685081,24.3195285 42.7325586,22.4728558 43.0945825,20.4001064 C43.5057429,18.6037685 43.0992065,16.7175859 41.9845825,15.2501064 C40.8745825,13.8401064 38.4645825,13.1301064 34.7345825,13.1301064 L30.2145825,13.1301064 C29.539251,13.1537528 28.968392,13.6377419 28.8345825,14.3001064 L26.6645825,26.3701064 Z" id="形状"></path>
                <path d="M98.1945825,53.9401064 L77.3045825,53.9401064 C76.7564653,53.9574211 76.2650113,54.2824773 76.0345825,54.7801064 L71.7845825,63.7801064 C71.5541536,64.2777356 71.0626996,64.6027918 70.5145825,64.6201064 L52.7045825,64.6201064 C52.3293007,64.6221307 51.9844784,64.4138652 51.8116042,64.0807661 C51.6387299,63.7476669 51.6669104,63.3458177 51.8845825,63.0401064 L86.2845825,0.780106427 C86.533051,0.328713098 86.9997211,0.0403640862 87.5145825,0.0201064273 L107.674582,0.0201064273 C108.154479,-0.0239160727 108.588506,0.305944164 108.674582,0.780106427 L121.074582,63.0401064 C121.119651,63.4366955 120.995728,63.8339405 120.733161,64.1345608 C120.470594,64.4351811 120.093629,64.6114156 119.694582,64.6201064 L101.304582,64.6201064 C100.801173,64.6608742 100.357242,64.2924113 100.304582,63.7901064 L99.1645825,54.7901064 C99.1172608,54.2946589 98.6919541,53.9219675 98.1945825,53.9401064 L98.1945825,53.9401064 Z M97.1945825,38.4501064 L94.8345825,20.4501064 C94.6945825,19.3401064 93.1345825,19.3501064 92.5945825,20.4501064 L83.9245825,38.4501064 C83.741337,38.7591713 83.7379867,39.1427873 83.9158063,39.4550054 C84.0936259,39.7672236 84.4252776,39.9601064 84.7845825,39.9601064 L95.7845825,39.9601064 C96.1746349,39.9552633 96.5457793,39.7912874 96.812007,39.5061783 C97.0782346,39.2210693 97.2164353,38.8395763 97.1945825,38.4501064 Z" id="形状"></path>
                <path d="M140.384582,0 L157.234582,0 C157.598921,-0.00290253111 157.936063,0.192486261 158.114582,0.510106427 L174.274582,32.6001064 C174.754582,33.6001064 176.334582,33.0901064 176.534582,31.9401064 L181.974582,1.17010643 C182.105024,0.505759186 182.677846,0.020105987 183.354582,0 L199.824582,0 C200.122064,-0.0042296105 200.406029,0.124118018 200.59933,0.350279618 C200.79263,0.576441218 200.875191,0.876929176 200.824582,1.17010643 L189.824582,63.4301064 C189.694141,64.0944537 189.121319,64.5801069 188.444582,64.6002129 L171.444582,64.6002129 C171.080244,64.6031154 170.743102,64.4077266 170.564582,64.0901064 L154.484582,32.2701064 C153.994582,31.2701064 152.424582,31.7701064 152.224582,32.9301064 L146.834582,63.4301064 C146.704141,64.0944537 146.131319,64.5801069 145.454582,64.6002129 L129.024582,64.6002129 C128.727101,64.6044425 128.443136,64.4760948 128.249835,64.2499332 C128.056535,64.0237716 127.973974,63.7232837 128.024582,63.4301064 L139.024582,1.17010643 C139.153287,0.512810976 139.715437,0.0291966214 140.384582,0 L140.384582,0 Z" id="路径"></path>
                <path d="M214.304582,1.17010643 C214.441685,0.509692698 215.010637,0.0273207936 215.684582,0.00010642732 L244.174582,0.00010642732 C250.021249,0.00010642732 254.604582,0.793439761 257.924582,2.38010643 C261.113896,3.84757245 263.799341,6.22342626 265.644582,9.21010643 C267.525754,12.359063 268.648676,15.9024281 268.924582,19.5601064 C269.272777,23.7428783 269.060904,27.9534165 268.294582,32.0801064 C267.074582,38.9801064 265.344582,44.3334398 263.104582,48.1401064 C260.975613,51.8138239 258.181346,55.0591082 254.864582,57.7101064 C251.969198,60.1023877 248.597863,61.8511181 244.974582,62.8401064 C240.990254,63.9324945 236.885243,64.5237235 232.754582,64.6002129 L204.304582,64.6002129 C204.007101,64.6044425 203.723136,64.4760948 203.529835,64.2499332 C203.336535,64.0237716 203.253974,63.7232837 203.304582,63.4301064 L214.304582,1.17010643 Z M231.684582,15.8001064 L225.864582,48.8001064 C225.813974,49.0932837 225.896535,49.3937716 226.089835,49.6199332 C226.283136,49.8460948 226.567101,49.9744425 226.864582,49.9702129 L230.584582,49.9702129 C234.764582,49.9702129 237.814582,49.5067731 239.734582,48.5801064 C241.840625,47.4885003 243.579354,45.8019331 244.734582,43.7301064 C246.141249,41.4301064 247.301249,37.6934398 248.214582,32.5201064 C249.427916,25.6734398 249.141249,20.9867731 247.354582,18.4601064 C245.567916,15.9334398 242.087916,14.6701064 236.914582,14.6701064 L233.104582,14.6701064 C232.429952,14.6757571 231.847049,15.1429065 231.694582,15.8001064 L231.684582,15.8001064 Z" id="形状"></path>
                <path d="M309.904582,53.9401064 L288.984582,53.9401064 C288.437196,53.9597107 287.946832,54.2840459 287.714582,54.7801064 L283.474582,63.7801064 C283.242333,64.2761669 282.751969,64.6005022 282.204582,64.6201064 L264.384582,64.6201064 C264.009301,64.6224744 263.664478,64.4138652 263.491604,64.0807661 C263.31873,63.7476669 263.34691,63.3458177 263.564582,63.0401064 L297.974582,0.780106427 C298.218469,0.324381864 298.687897,0.0343287108 299.204582,0.0196776137 L319.354582,0.0196776137 C319.82528,0.0063928025 320.241767,0.322923146 320.354582,0.780106427 L332.744582,63.0401064 C332.789651,63.4366955 332.665728,63.8339405 332.403161,64.1345608 C332.140594,64.4351811 331.763629,64.6114156 331.364582,64.6201064 L313.024582,64.6201064 C312.52288,64.6555198 312.08219,64.2897475 312.024582,63.7901064 L310.894582,54.7901064 C310.820354,54.3008467 310.399441,53.9394562 309.904582,53.9401064 Z M308.904582,38.4501064 L306.554582,20.4501064 C306.414582,19.3401064 304.844582,19.3501064 304.314582,20.4501064 L295.644582,38.4501064 C295.462222,38.757637 295.457922,39.1391304 295.633305,39.4506931 C295.808688,39.7622557 296.137067,39.9564796 296.494582,39.9601064 L307.494582,39.9601064 C307.884635,39.9552633 308.255779,39.7912874 308.522007,39.5061783 C308.788235,39.2210693 308.926435,38.8395763 308.904582,38.4501064 L308.904582,38.4501064 Z" id="形状"></path>
                <path d="M353.354582,51.2501064 L363.434582,50.6301064 C363.596564,50.6096437 363.75941,50.6608914 363.880479,50.7704308 C364.001549,50.8799701 364.068785,51.0368916 364.064582,51.2001064 C363.988245,52.4446621 364.254563,53.6863292 364.834582,54.7901064 C365.781249,56.3501064 367.394582,57.1301064 369.674582,57.1301064 C371.150975,57.1991939 372.609144,56.7810681 373.824582,55.9401064 C374.785518,55.2916807 375.456227,54.294584 375.694582,53.1601064 C375.875859,52.1827785 375.561277,51.1791151 374.854582,50.4801064 C374.114582,49.6934398 372.211249,48.9501064 369.144582,48.2501064 C364.124582,47.0701064 360.674582,45.5101064 358.794582,43.5701064 C356.899043,41.59555 356.14458,38.7889482 356.794582,36.1301064 C357.18948,34.0495874 358.127912,32.1106215 359.514582,30.5101064 C361.108576,28.6565583 363.139955,27.2301247 365.424582,26.3601064 C368.549928,25.2450405 371.858355,24.7326585 375.174582,24.8501064 C380.094582,24.8501064 383.687916,25.7634398 385.954582,27.5901064 C388.067916,29.3034398 389.097916,31.9701064 389.044582,35.5901064 C389.025808,36.0235905 388.687066,36.3751961 388.254582,36.4101064 L378.254582,36.9901064 C378.099396,37.0069005 377.944242,36.9581616 377.826535,36.8556427 C377.708828,36.7531239 377.639251,36.6061296 377.634582,36.4501064 C377.654817,35.2668718 377.226044,34.1199032 376.434582,33.2401064 C375.389196,32.3666694 374.042315,31.939259 372.684582,32.0501064 C371.525795,31.9901035 370.377716,32.2981247 369.404582,32.9301064 C368.659772,33.4268965 368.144804,34.2011479 367.974582,35.0801064 C367.865338,35.6917578 368.081092,36.316309 368.544582,36.7301064 C369.014582,37.2401064 370.264582,37.7301064 372.294582,38.1501064 C377.307916,39.2767731 380.837916,40.4134398 382.884582,41.5601064 C384.710423,42.4772502 386.175392,43.9809565 387.044582,45.8301064 C387.774901,47.6408832 387.959145,49.6258469 387.574582,51.5401064 C387.10804,54.0640333 385.983488,56.4200747 384.314582,58.3701064 C382.552834,60.4742679 380.294926,62.1066973 377.744582,63.1201064 C374.688769,64.2717126 371.439168,64.8218019 368.174582,64.7401064 C361.614582,64.7401064 357.297916,63.4767731 355.224582,60.9501064 C353.236927,58.4389385 352.291627,55.2592938 352.584582,52.0701064 C352.606273,51.6452889 352.931967,51.2984462 353.354582,51.2501064 L353.354582,51.2501064 Z" id="路径"></path>
                <path d="M397.964582,26.1701064 C398.046249,25.7770475 398.383578,25.4890839 398.784582,25.4701064 L417.884582,25.4701064 C422.204582,25.4701064 425.244582,26.4701064 427.034582,28.5501064 C428.824582,30.6301064 429.374582,33.5501064 428.704582,37.3001064 C428.19987,40.8766853 426.373069,44.134242 423.584582,46.4301064 C420.857916,48.6234398 417.091249,49.7201064 412.284582,49.7201064 L406.464582,49.7201064 C406.065218,49.7344812 405.727005,50.019075 405.644582,50.4101064 L403.364582,63.3201064 C403.286192,63.7150947 402.946978,64.004667 402.544582,64.0203061 L391.974582,64.0203061 C391.797928,64.0247783 391.629098,63.9472505 391.517515,63.8102187 C391.405932,63.6731868 391.364217,63.4921505 391.404582,63.3201064 L397.964582,26.1701064 Z M407.274582,41.1701064 C407.234217,41.3421505 407.275932,41.5231868 407.387515,41.6602187 C407.499098,41.7972505 407.667928,41.8747783 407.844582,41.8701064 L410.064582,41.8701064 C411.815277,41.9972302 413.56228,41.5779494 415.064582,40.6701064 C416.088538,39.9449584 416.785542,38.8455603 417.004582,37.6101064 C417.247322,36.5348748 417.002046,35.4073394 416.334582,34.5301064 C415.667916,33.6901064 414.227916,33.2701064 412.014582,33.2701064 L409.314582,33.2701064 C408.912187,33.2855459 408.572973,33.5751181 408.494582,33.9701064 L407.274582,41.1701064 Z" id="形状"></path>
                <path d="M432.124582,44.8001064 C433.231249,38.5067731 435.847916,33.6067731 439.974582,30.1001064 C444.101249,26.5934398 449.294582,24.8434398 455.554582,24.8500875 C461.961249,24.8500875 466.597916,26.5701064 469.464582,30.0101064 C472.331249,33.4501064 473.214582,38.2767731 472.114582,44.4901064 C471.527262,48.4471436 470.083695,52.2284014 467.884582,55.5701064 C465.89241,58.4189765 463.226605,60.7309447 460.124582,62.3001064 C456.654449,63.9741568 452.836357,64.8001534 448.984582,64.7101064 C444.631249,64.7101064 441.154582,64.0167731 438.554582,62.6301064 C435.911438,61.1955906 433.865816,58.866346 432.784582,56.0601064 C431.544582,53.0601064 431.324582,49.3067731 432.124582,44.8001064 Z M444.024582,44.8001064 C443.334582,48.7001064 443.564582,51.4901064 444.704582,53.1901064 C445.951009,54.9393368 448.023206,55.9071213 450.164582,55.7401064 C452.543292,55.8122799 454.848156,54.90912 456.544582,53.2401064 C458.244582,51.5801064 459.474582,48.5801064 460.234582,44.2401064 C460.901249,40.6067731 460.637916,37.9401064 459.444582,36.2401064 C458.165081,34.5064894 456.082842,33.5541768 453.934582,33.7201064 C451.595769,33.6936057 449.345465,34.613201 447.694582,36.2701064 C445.947916,38.0767731 444.724582,40.9367731 444.024582,44.8501064 L444.024582,44.8001064 Z" id="形状"></path>
                <path d="M475.354582,63.3501064 L481.924582,26.2001064 C481.999572,25.8031357 482.340762,25.5118759 482.744582,25.5001064 L501.894582,25.5001064 C504.68634,25.4045876 507.476055,25.7419171 510.164582,26.5001064 C511.941745,27.0773273 513.414366,28.3411166 514.254582,30.0101064 C515.175575,31.95472 515.415105,34.1527636 514.934582,36.2501064 C514.615884,38.2593516 513.812752,40.1607823 512.594582,41.7901064 C511.402109,43.3468352 509.891995,44.631966 508.164582,45.5601064 C507.406393,45.9715796 506.60913,46.3065642 505.784582,46.5601064 C505.164582,46.7601064 504.974582,47.5601064 505.494582,47.8501064 C505.87483,48.0373419 506.233603,48.2653471 506.564582,48.5301064 C507.166611,49.1235211 507.684736,49.796411 508.104582,50.5301064 C508.609314,51.2810667 509.02858,52.0860579 509.354582,52.9301064 L512.804582,63.0801064 C512.851656,63.3221541 512.79,63.5726604 512.635961,63.7652091 C512.481922,63.9577578 512.25106,64.0728993 512.004582,64.0801064 L500.104582,64.0801064 C499.860104,64.0901763 499.637394,63.9403534 499.554582,63.7101064 L495.404582,52.3001064 C495.117188,51.180899 494.557199,50.1502434 493.774582,49.3001064 C492.985944,48.6907142 492.010856,48.3727507 491.014582,48.4001064 L490.654582,48.4001064 C490.253578,48.4190839 489.916249,48.7070475 489.834582,49.1001064 L487.314582,63.3501064 C487.243127,63.7491153 486.899861,64.0421474 486.494582,64.0501064 L475.934582,64.0501064 C475.756203,64.0579856 475.584438,63.9818221 475.470517,63.8443319 C475.356597,63.7068416 475.313686,63.5239135 475.354582,63.3501064 Z M491.354582,40.4201064 C491.314217,40.5921505 491.355932,40.7731868 491.467515,40.9102187 C491.579098,41.0472505 491.747928,41.1247783 491.924582,41.1201064 L496.304582,41.1201064 C497.400814,41.0402164 498.48815,40.8662427 499.554582,40.6001064 C500.380838,40.4333796 501.133307,40.009897 501.704582,39.3901064 C502.297204,38.7722262 502.69384,37.9928714 502.844582,37.1501064 C503.135172,36.1451623 502.881288,35.0614183 502.174582,34.2901064 C501.504582,33.6201064 500.074582,33.2901064 497.904582,33.2901064 L493.304582,33.2901064 C492.901437,33.2999472 492.557897,33.5855408 492.474582,33.9801064 L491.354582,40.4201064 Z" id="形状"></path>
                <path d="M521.304582,25.5001064 L556.114582,25.5001064 C556.292962,25.4922272 556.464727,25.5683908 556.578648,25.705881 C556.692568,25.8433712 556.735479,26.0262994 556.694582,26.2001064 L555.254582,34.3201064 C555.179593,34.7170772 554.838403,35.008337 554.434582,35.0201064 L543.684582,35.0201064 C543.280762,35.0318759 542.939572,35.3231357 542.864582,35.7201064 L537.984582,63.3501064 C537.90533,63.7486347 537.560769,64.0392283 537.154582,64.0501064 L526.644582,64.0501064 C526.466203,64.0579856 526.294438,63.9818221 526.180517,63.8443319 C526.066597,63.7068416 526.023686,63.5239135 526.064582,63.3501064 L530.954582,35.7201064 C530.995479,35.5462994 530.952568,35.3633712 530.838648,35.225881 C530.724727,35.0883908 530.552962,35.0122272 530.374582,35.0201064 L519.604582,35.0201064 C519.427928,35.0247783 519.259098,34.9472505 519.147515,34.8102187 C519.035932,34.6731868 518.994217,34.4921505 519.034582,34.3201064 L520.464582,26.2001064 C520.548059,25.8000218 520.896004,25.5100679 521.304582,25.5001064 Z" id="路径"></path>
                <path d="M556.304582,51.2501064 L566.384582,50.6301064 C566.546564,50.6096437 566.70941,50.6608914 566.830479,50.7704308 C566.951549,50.8799701 567.018785,51.0368916 567.014582,51.2001064 C566.942809,52.4443149 567.208869,53.684774 567.784582,54.7901064 C568.731249,56.3501064 570.344582,57.1301064 572.624582,57.1301064 C574.100975,57.1991939 575.559144,56.7810681 576.774582,55.9401064 C577.735518,55.2916807 578.406227,54.294584 578.644582,53.1601064 C578.825859,52.1827785 578.511277,51.1791151 577.804582,50.4801064 C577.064582,49.6934398 575.161249,48.9501064 572.094582,48.2501064 C567.094582,47.0701064 563.634582,45.5101064 561.744582,43.5701064 C559.831173,41.6054218 559.057498,38.797548 559.694582,36.1301064 C560.08948,34.0495874 561.027912,32.1106215 562.414582,30.5101064 C564.008576,28.6565583 566.039955,27.2301247 568.324582,26.3601064 C571.449928,25.2450405 574.758355,24.7326585 578.074582,24.8501064 C582.994582,24.8501064 586.587916,25.7634398 588.854582,27.5901064 C590.961249,29.3034398 591.991249,31.9701064 591.944582,35.5901064 C591.925808,36.0235905 591.587066,36.3751961 591.154582,36.4101064 L581.154582,36.9901064 C580.999396,37.0069005 580.844242,36.9581616 580.726535,36.8556427 C580.608828,36.7531239 580.539251,36.6061296 580.534582,36.4501064 C580.559869,35.2660084 580.130423,34.1172408 579.334582,33.2401064 C578.289196,32.3666694 576.942315,31.939259 575.584582,32.0501064 C574.425795,31.9901035 573.277716,32.2981247 572.304582,32.9301064 C571.562954,33.4300668 571.048958,34.2028571 570.874582,35.0801064 C570.765338,35.6917578 570.981092,36.316309 571.444582,36.7301064 C571.924582,37.2401064 573.164582,37.7301064 575.194582,38.1501064 C580.201249,39.2767731 583.731249,40.4134398 585.784582,41.5601064 C587.610423,42.4772502 589.075392,43.9809565 589.944582,45.8301064 C590.674901,47.6408832 590.859145,49.6258469 590.474582,51.5401064 C590.012613,54.0655162 588.887516,56.4226973 587.214582,58.3701064 C585.452834,60.4742679 583.194926,62.1066973 580.644582,63.1201064 C577.589034,64.2726897 574.33924,64.8228115 571.074582,64.7401064 C564.521249,64.7401064 560.187916,63.4767731 558.074582,60.9501064 C556.086927,58.4389385 555.141627,55.2592938 555.434582,52.0701064 C555.461112,51.6092487 555.842962,51.2493435 556.304582,51.2501064 Z" id="路径"></path>
            </g>
            <path d="M293.134582,4.26325641e-14 C326.122843,4.26325641e-14 357.052509,8.79650732 383.700034,22.7660734 C383.219857,22.5143487 382.738595,22.2644608 382.255957,22.0162717 C389.193945,15.4141761 398.585812,11.36 408.924582,11.36 C430.298002,11.36 447.624582,28.6865802 447.624582,50.06 C447.624582,57.0162261 445.789261,63.5437898 442.576431,69.1848777 C442.096002,68.6249468 441.610812,68.0665317 441.120907,67.5097086 L442.694777,69.3214659 C462.723634,92.71108 474.444582,118.7312 474.444582,141.82 C474.444582,202.58 393.274582,220.02 293.134582,220.02 C192.994582,220.02 111.824582,202.58 111.824582,141.82 C111.824582,117.542244 124.78375,90.0234989 146.734166,65.7298126 C145.699792,66.8746173 144.68579,68.0261104 143.692152,69.1840833 C140.479904,63.5437898 138.644582,57.0162261 138.644582,50.06 C138.644582,28.6865802 155.971163,11.36 177.344582,11.36 C187.683353,11.36 197.07522,15.4141761 204.017131,22.0194756 L204.865936,21.5802675 C230.98751,8.300544 261.089782,4.26325641e-14 293.134582,4.26325641e-14 Z M293.134582,7 C204.044582,7 131.824582,77.31 131.824582,130 C131.824582,182.69 204.044582,197.83 293.134582,197.83 C382.224582,197.83 454.444582,182.69 454.444582,130 C454.444582,77.3 382.224582,7 293.134582,7 Z M415.254582,92.35 C435.344582,112.45 435.704582,132.54 423.534582,144.71 C411.364582,156.88 391.274582,156.52 371.174582,136.42 C351.084582,116.33 338.594582,84.1 350.764582,71.93 C362.934582,59.76 395.164582,72.25 415.254582,92.35 Z M235.504582,71.93 C247.674582,84.1 235.184582,116.33 215.084582,136.42 C194.994582,156.52 174.894582,156.88 162.724582,144.71 C150.554582,132.54 150.914582,112.45 171.014582,92.35 C191.114582,72.25 223.334582,59.76 235.504582,71.93 Z M307.004582,116.87 C307.004582,122.79 300.794582,131.87 293.134582,131.87 C285.474582,131.87 279.264582,122.78 279.264582,116.87 C279.264582,111.048209 285.290593,110.039463 292.792582,110.010648 L293.134582,110.01 C300.794582,110.01 307.004582,110.95 307.004582,116.87 Z M365.244582,92.68 C362.794582,96.38 367.794582,107.02 373.384582,110.68 C378.974582,114.34 390.714582,114.83 393.164582,111.14 C395.614582,107.45 389.954582,102.4 382.244582,97.3 C374.534582,92.2 367.694582,88.99 365.244582,92.68 Z M204.014582,97.3 C196.304582,102.4 190.664582,107.45 193.104582,111.14 C195.544582,114.83 207.304582,114.34 212.884582,110.68 C218.464582,107.02 223.474582,96.38 221.024582,92.68 C218.574582,88.99 211.724582,92.2 204.014582,97.3 Z" id="形状结合"></path>
        </g>
    </g>
</svg>