<?xml version="1.0" encoding="UTF-8"?>
<svg width="12px" height="10px" viewBox="0 0 12 10" version="1.1" xmlns="http://www.w3.org/2000/svg" xmlns:xlink="http://www.w3.org/1999/xlink">
    <!-- Generator: Sketch 61.2 (89653) - https://sketch.com -->
    <title>形状</title>
    <desc>Created with Sketch.</desc>
    <g id="页面-1" stroke="none" stroke-width="1" fill="none" fill-rule="evenodd">
        <g id="组件" transform="translate(-1011.000000, -556.000000)" fill="#8A92A5" fill-rule="nonzero">
            <path d="M1020.83468,556 C1021.29941,556 1021.67699,556.382713 1021.67699,556.853745 L1021.676,557.86 L1022.12865,557.860575 C1022.57366,557.860575 1022.94354,558.235581 1022.99411,558.714756 L1023,558.827061 L1023,565.033514 C1023,565.565081 1022.60789,566 1022.12865,566 L1022.12865,566 L1013.61842,566 C1013.13917,566 1012.74707,565.565081 1012.74707,565.033514 L1012.74707,565.033514 L1012.747,563.777 L1011.84231,563.777909 C1011.73775,563.777909 1011.46908,563.752885 1011.24688,563.527673 C1011.08714,563.365756 1011,563.15232 1011,562.924164 L1011,556.853745 C1011,556.382713 1011.37759,556 1011.84231,556 L1020.83468,556 Z M1019.74201,560.020767 C1019.60985,559.867681 1019.37894,559.852962 1019.22936,559.986911 L1019.22936,559.986911 L1018.0327,561.054092 C1018.00656,561.077644 1017.98478,561.102667 1017.96735,561.130635 L1017.96735,561.130635 L1017.92814,561.135051 C1017.91361,561.114443 1017.89619,561.096779 1017.87731,561.079116 L1017.87731,561.079116 L1016.68065,560.011935 C1016.53107,559.879457 1016.30016,559.894177 1016.168,560.04579 C1016.0373,560.197403 1016.05182,560.431447 1016.2014,560.565397 L1016.2014,560.565397 L1017.39806,561.632578 C1017.40097,561.635522 1017.40387,561.636994 1017.40678,561.639938 L1017.40678,561.639938 L1016.12153,561.639938 C1015.92257,561.639938 1015.75847,561.804799 1015.75847,562.007931 C1015.75847,562.211063 1015.92112,562.375924 1016.12153,562.375924 L1016.12153,562.375924 L1017.62026,562.375924 L1017.62026,563.038313 L1016.12153,563.038313 C1015.92257,563.038313 1015.75847,563.203174 1015.75847,563.406306 C1015.75847,563.609438 1015.92112,563.774299 1016.12153,563.774299 L1016.12153,563.774299 L1017.62026,563.774299 L1017.62026,564.355729 C1017.62026,564.558861 1017.78436,564.723722 1017.98332,564.723722 C1018.18228,564.723722 1018.34639,564.558861 1018.34639,564.355729 L1018.34639,564.355729 L1018.34639,563.774299 L1019.79574,563.774299 C1019.99615,563.774299 1020.1588,563.609438 1020.1588,563.406306 C1020.1588,563.204646 1019.99615,563.038313 1019.79574,563.038313 L1019.79574,563.038313 L1018.34639,563.038313 L1018.34639,562.375924 L1019.79574,562.375924 C1019.99615,562.375924 1020.1588,562.211063 1020.1588,562.007931 C1020.1588,561.806271 1019.99615,561.639938 1019.79574,561.638466 L1019.79574,561.638466 L1018.47128,561.638466 C1018.4858,561.629634 1018.49887,561.61933 1018.51194,561.607554 L1018.51194,561.607554 L1019.7086,560.540373 C1019.85964,560.406424 1019.87416,560.17238 1019.74201,560.020767 Z M1020.83323,556.77573 L1011.84231,556.77573 C1011.80019,556.77573 1011.76534,556.811057 1011.76534,556.853745 L1011.76534,562.924164 C1011.76534,562.950659 1011.77696,562.968323 1011.78712,562.978627 C1011.80891,563.000707 1011.8394,563.000707 1011.84086,563.000707 L1012.747,563 L1012.74707,558.827061 C1012.74707,558.333463 1013.08516,557.923199 1013.51717,557.867108 L1013.61842,557.860575 L1020.91,557.86 L1020.9102,556.853745 C1020.9102,556.811057 1020.87535,556.77573 1020.83323,556.77573 Z" id="形状"></path>
        </g>
    </g>
</svg>