<?xml version="1.0" encoding="UTF-8"?>
<svg width="20px" height="10px" viewBox="0 0 20 10" version="1.1" xmlns="http://www.w3.org/2000/svg" xmlns:xlink="http://www.w3.org/1999/xlink">
    <!-- Generator: Sketch 61.2 (89653) - https://sketch.com -->
    <title>New</title>
    <desc>Created with Sketch.</desc>
    <g id="页面-1" stroke="none" stroke-width="1" fill="none" fill-rule="evenodd">
        <g id="组件" transform="translate(-1007.000000, -496.000000)" fill="#FF3A3A" fill-rule="nonzero">
            <g id="New" transform="translate(1007.000000, 496.000000)">
                <path d="M18.3333333,0 C19.2538079,0 20,0.746192085 20,1.66666667 L20,8.33333333 C20,9.25380791 19.2538079,10 18.3333333,10 L1.66666667,10 C0.746192085,10 0,9.25380791 0,8.33333333 L0,1.66666667 C0,0.746192085 0.746192085,0 1.66666667,0 L18.3333333,0 Z M3.67,2.8025 L2.85,2.8025 L2.85,7.5 L3.79083333,7.5 L3.79083333,4.56083333 L3.84916667,4.56083333 L6.0175,7.5 L6.83083333,7.5 L6.83083333,2.8025 L5.89,2.8025 L5.89,5.72916667 L5.83166667,5.72916667 L3.67,2.8025 Z M10.545,2.8025 L7.43333333,2.8025 L7.43333333,7.5 L10.545,7.5 L10.545,6.66 L8.41666667,6.66 L8.41666667,5.51833333 L10.425,5.51833333 L10.425,4.74 L8.41666667,4.74 L8.41666667,3.64166667 L10.545,3.64166667 L10.545,2.8025 Z M12.0233333,2.8025 L11,2.8025 L12.2441667,7.5 L13.1725,7.5 L14.0508333,4.39166667 L14.1033333,4.39166667 L14.9916667,7.5 L15.9133333,7.5 L17.16,2.8025 L16.1441667,2.8025 L15.4183333,6.11333333 L15.3666667,6.11333333 L14.4941667,2.8025 L13.6641667,2.8025 L12.8075,6.11333333 L12.7558333,6.11333333 L12.0225,2.8025 L12.0233333,2.8025 Z" id="形状"></path>
            </g>
        </g>
    </g>
</svg>