<?xml version="1.0" encoding="UTF-8"?>
<svg width="30px" height="30px" viewBox="0 0 30 30" version="1.1" xmlns="http://www.w3.org/2000/svg" xmlns:xlink="http://www.w3.org/1999/xlink">
    <!-- Generator: Sketch 58 (84663) - https://sketch.com -->
    <title>编组 25</title>
    <desc>Created with Sketch.</desc>
    <g id="页面-1" stroke="none" stroke-width="1" fill="none" fill-rule="evenodd">
        <g id="6权限账号系统-资源模弹窗" transform="translate(-905.000000, -905.000000)">
            <g id="编组-27复制-3" transform="translate(785.000000, 875.000000)">
                <g id="编组-26" transform="translate(120.000000, 30.000000)">
                    <g id="编组-25">
                        <rect id="矩形" fill="#82EA5D" x="0" y="0" width="30" height="30" rx="15"></rect>
                        <path d="M9.04594155,8.04594155 C9.87436867,8.04594155 10.5459415,8.71751442 10.5459415,9.54594155 L10.5459415,16.0449415 L22.0459415,16.0459415 C22.8743687,16.0459415 23.5459415,16.7175144 23.5459415,17.5459415 C23.5459415,18.3743687 22.8743687,19.0459415 22.0459415,19.0459415 L9.06722641,19.0457936 C9.06014321,19.0458921 9.05304815,19.0459415 9.04594155,19.0459415 C8.21751442,19.0459415 7.54594155,18.3743687 7.54594155,17.5459415 L7.54594155,9.54594155 C7.54594155,8.71751442 8.21751442,8.04594155 9.04594155,8.04594155 Z" id="形状结合" fill="#FFFFFF" transform="translate(15.545942, 13.545942) rotate(-45.000000) translate(-15.545942, -13.545942) "></path>
                    </g>
                </g>
            </g>
        </g>
    </g>
</svg>