<?xml version="1.0" encoding="UTF-8"?>
<svg width="14px" height="14px" viewBox="0 0 14 14" version="1.1" xmlns="http://www.w3.org/2000/svg" xmlns:xlink="http://www.w3.org/1999/xlink">
    <!-- Generator: Sketch 58 (84663) - https://sketch.com -->
    <title>登录页_警示提示</title>
    <desc>Created with Sketch.</desc>
    <g id="页面-1" stroke="none" stroke-width="1" fill="none" fill-rule="evenodd">
        <g id="1登录页权限账号系统" transform="translate(-872.000000, -498.000000)" fill="#D06263">
            <g id="编组-7复制" transform="translate(757.000000, 488.000000)">
                <g id="编组-6" transform="translate(115.000000, 10.000000)">
                    <g id="登录页_警示提示">
                        <path d="M7,0 C10.8659932,-7.10171439e-16 14,3.13400675 14,7 C14,10.8659932 10.8659932,14 7,14 C3.13400675,14 4.73447626e-16,10.8659932 0,7 C-4.73447626e-16,3.13400675 3.13400675,7.10171439e-16 7,0 Z M6.924,9.756 C6.66,9.756 6.444,9.84 6.276,10.008 C6.084,10.176 6,10.392 6,10.656 C6,10.92 6.084,11.136 6.276,11.304 C6.444,11.472 6.66,11.568 6.924,11.568 C7.188,11.568 7.404,11.484 7.596,11.316 C7.764,11.148 7.86,10.92 7.86,10.656 C7.86,10.392 7.764,10.176 7.596,10.008 C7.416,9.84 7.188,9.756 6.924,9.756 Z M7.74,3 L6.12,3 L6.42,9.108 L7.44,9.108 L7.74,3 Z" id="形状结合"></path>
                    </g>
                </g>
            </g>
        </g>
    </g>
</svg>