<?xml version="1.0" encoding="UTF-8"?>
<svg width="6px" height="8px" viewBox="0 0 6 8" version="1.1" xmlns="http://www.w3.org/2000/svg" xmlns:xlink="http://www.w3.org/1999/xlink">
    <!-- Generator: Sketch 61.2 (89653) - https://sketch.com -->
    <title>上升</title>
    <desc>Created with Sketch.</desc>
    <g id="页面-1" stroke="none" stroke-width="1" fill="none" fill-rule="evenodd">
        <g id="组件" transform="translate(-1014.000000, -516.000000)" fill="#FF3A3A" fill-rule="nonzero">
            <g id="上升" transform="translate(1014.000000, 516.000000)">
                <path d="M4.10000466,3.46473401 L4.10000466,5.70473662 C4.10000466,5.93939939 3.90200443,6.13139962 3.66000845,6.13139962 L2.18600244,6.13139962 C1.94400645,6.13139962 1.74600622,5.93939939 1.74600622,5.70473662 L1.74600622,3.46473401 L0.580009161,3.46473401 C0.338000286,3.46473401 0.140000055,3.27273379 0.140000055,3.03807102 C0.140000055,2.93139589 0.1840087,2.82473327 0.261004493,2.73939567 L2.63700726,0.360730401 C2.80200745,0.190067702 3.08801208,0.190067702 3.26400799,0.350067888 L3.2750037,0.360730401 L5.64001075,2.73939567 C5.80501094,2.91007087 5.80501094,3.17673368 5.62901504,3.34739638 C5.55200635,3.42207146 5.44201052,3.46473401 5.32100608,3.46473401 L4.10000466,3.46473401 L4.10000466,3.46473401 Z M2.01000653,6.6327377 L3.880013,6.6327377 C4.00100455,6.6327377 4.10000466,6.72873781 4.10000466,6.84607545 C4.10000466,6.96341308 4.00100455,7.0594007 3.880013,7.0594007 L2.01000653,7.0594007 C1.88900209,7.0594007 1.79000198,6.96340058 1.79000198,6.84607545 C1.79000198,6.72875031 1.88900209,6.6327377 2.01000653,6.6327377 Z M2.01000653,7.48607619 L3.880013,7.48607619 C4.00100455,7.48607619 4.10000466,7.5820763 4.10000466,7.69940144 C4.10000466,7.81672658 4.00100455,7.91273919 3.880013,7.91273919 L2.01000653,7.91273919 C1.88900209,7.91273919 1.79000198,7.81673908 1.79000198,7.69940144 C1.79000198,7.5820638 1.88900209,7.48607619 2.01000653,7.48607619 Z" id="形状"></path>
            </g>
        </g>
    </g>
</svg>